{
.appVersion = "1357";
DisplayStrings = (
"a/Placeholder a/space b/Placeholder b/space c/Placeholder c/space d/Placeholder d/space e/Placeholder e/space f/Placeholder f/space g/Placeholder g/space h/Placeholder h/space i/Placeholder i/space jjj/space k/Placeholder k/space l/Placeholder l/space m/Placeholder m/space n/Placeholder n/space o/Placeholder o/space p/Placeholder p/space q/Placeholder q/space r/Placeholder r/space s/Placeholder s/space t/Placeholder t/space u/Placeholder u/space v/Placeholder v/space w/Placeholder w/space x/Placeholder x/space y/Placeholder y/space z/Placeholder z\012nn/Placeholder no/Placeholder oo\012naolounhnouobvcmi/idotless jnvkchdefgohijbqkodlmnopvqorstnuvw\012xyoz\012fear/space fall/space kilo/space long/space ovoide/space want/space wind/space oxo/space zapato/space født\012Twombli/space Tgmaiwan/space Taiwan/space Tomato/space Temperture/space Tiro/space Kdy/zcaron/space Twardock/space vy/acutecomb sledkem/space Walking/space Wonder/space Wc/space Wd/space/space Wrcnder/space You/space Family/space Fear/space Furor/space Vocal/space Yea/space Viajar/space Zusam/space Pearl/space Point/space Pain/space Ayuda/space Yuca/space Ws/space Want/space Vamos/space Vean/space Voces\012Kilo/space Londres/space Leon/space Lio/space Month/space Another\012abcdefghijklmnopqrstuvwxyz\012Luxurious/space London",

glyphs = (
{
glyphname = .notdef;
lastChange = "2021-11-03 23:13:36 +0000";
layers = (
{
layerId = "24D0D9E8-BA2F-4B13-8DB9-88CA40D3CAFC";
paths = (
{
closed = 1;
nodes = (
"501 0 LINE",
"501 800 LINE",
"63 800 LINE",
"63 0 LINE"
);
},
{
closed = 1;
nodes = (
"280 374 LINE",
"434 63 LINE",
"125 63 LINE"
);
},
{
closed = 1;
nodes = (
"125 684 LINE",
"266 401 LINE",
"125 119 LINE"
);
},
{
closed = 1;
nodes = (
"438 110 LINE",
"293 401 LINE",
"438 693 LINE"
);
},
{
closed = 1;
nodes = (
"126 738 LINE",
"433 738 LINE",
"280 429 LINE"
);
}
);
width = 568;
}
);
note = .notdef;
},
{
color = 9;
glyphname = A;
lastChange = "2021-11-16 13:08:18 +0000";
layers = (
{
anchors = (
{
name = bottom;
position = "{313, 0}";
},
{
name = ogonek;
position = "{597, 10}";
},
{
name = top;
position = "{373, 665}";
}
);
background = {
paths = (
{
closed = 1;
nodes = (
"-22 -3 OFFCURVE",
"15 -2 OFFCURVE",
"63 -2 CURVE SMOOTH",
"110 -2 OFFCURVE",
"146 -3 OFFCURVE",
"173 -7 CURVE",
"189 23 LINE",
"133 22 OFFCURVE",
"105 31 OFFCURVE",
"105 46 CURVE SMOOTH",
"105 49 OFFCURVE",
"106 49 OFFCURVE",
"105 48 CURVE SMOOTH",
"107 50 LINE",
"112 71 OFFCURVE",
"137 126 OFFCURVE",
"179 215 CURVE SMOOTH",
"181 219 OFFCURVE",
"183 220 OFFCURVE",
"184 220 CURVE SMOOTH",
"414 220 LINE SMOOTH",
"417 220 OFFCURVE",
"419 219 OFFCURVE",
"419 215 CURVE",
"446 108 OFFCURVE",
"458 53 OFFCURVE",
"458 51 CURVE SMOOTH",
"458 31 OFFCURVE",
"434 22 OFFCURVE",
"384 22 CURVE",
"373 -2 LINE",
"377 -7 LINE",
"442 -4 LINE SMOOTH",
"481 -2 OFFCURVE",
"506 -2 OFFCURVE",
"516 -2 CURVE SMOOTH",
"526 -2 OFFCURVE",
"570 -3 OFFCURVE",
"647 -7 CURVE",
"663 23 LINE",
"652 23 OFFCURVE",
"642 24 OFFCURVE",
"632 25 CURVE SMOOTH",
"623 26 OFFCURVE",
"615 26 OFFCURVE",
"607 27 CURVE",
"583 33 OFFCURVE",
"566 44 OFFCURVE",
"558 62 CURVE SMOOTH",
"541 97 OFFCURVE",
"517 170 OFFCURVE",
"485 284 CURVE SMOOTH",
"453 391 LINE SMOOTH",
"432 466 OFFCURVE",
"407 562 OFFCURVE",
"377 680 CURVE",
"371 682 LINE",
"351 669 OFFCURVE",
"331 654 OFFCURVE",
"309 636 CURVE SMOOTH",
"306 633 OFFCURVE",
"303 629 OFFCURVE",
"301 624 CURVE SMOOTH",
"300 621 OFFCURVE",
"300 617 OFFCURVE",
"301 613 CURVE SMOOTH",
"302 602 LINE",
"301 587 OFFCURVE",
"295 566 OFFCURVE",
"282 539 CURVE SMOOTH",
"77 95 LINE SMOOTH",
"62 65 OFFCURVE",
"48 47 OFFCURVE",
"34 38 CURVE SMOOTH",
"23 32 OFFCURVE",
"1 27 OFFCURVE",
"-37 22 CURVE",
"-52 -8 LINE"
);
},
{
closed = 1;
nodes = (
"200 261 OFFCURVE",
"199 260 OFFCURVE",
"201 264 CURVE SMOOTH",
"326 535 LINE SMOOTH",
"328 539 OFFCURVE",
"329 542 OFFCURVE",
"329 544 CURVE SMOOTH",
"329 545 OFFCURVE",
"328 546 OFFCURVE",
"328 546 CURVE",
"326 546 OFFCURVE",
"324 543 OFFCURVE",
"326 535 CURVE SMOOTH",
"405 263 LINE",
"406 261 OFFCURVE",
"406 261 OFFCURVE",
"403 261 CURVE SMOOTH",
"201 261 LINE SMOOTH"
);
}
);
};
layerId = "24D0D9E8-BA2F-4B13-8DB9-88CA40D3CAFC";
paths = (
{
closed = 1;
nodes = (
"-4 -3 OFFCURVE",
"33 -2 OFFCURVE",
"81 -2 CURVE SMOOTH",
"128 -2 OFFCURVE",
"164 -3 OFFCURVE",
"191 -7 CURVE",
"207 23 LINE",
"151 22 OFFCURVE",
"123 31 OFFCURVE",
"123 45 CURVE SMOOTH",
"123 51 OFFCURVE",
"130 66 OFFCURVE",
"135 79 CURVE SMOOTH",
"147 108 OFFCURVE",
"168 153 OFFCURVE",
"197 215 CURVE SMOOTH",
"199 219 OFFCURVE",
"201 220 OFFCURVE",
"206 220 CURVE SMOOTH",
"430 220 LINE SMOOTH",
"433 220 OFFCURVE",
"437 217 OFFCURVE",
"439 210 CURVE SMOOTH",
"464 105 OFFCURVE",
"476 62 OFFCURVE",
"476 51 CURVE SMOOTH",
"476 31 OFFCURVE",
"452 22 OFFCURVE",
"402 22 CURVE",
"391 -2 LINE",
"395 -7 LINE",
"460 -4 LINE SMOOTH",
"499 -2 OFFCURVE",
"524 -2 OFFCURVE",
"534 -2 CURVE SMOOTH",
"544 -2 OFFCURVE",
"588 -3 OFFCURVE",
"665 -7 CURVE",
"681 23 LINE",
"670 23 OFFCURVE",
"660 23 OFFCURVE",
"650 24 CURVE SMOOTH",
"611 29 OFFCURVE",
"588 36 OFFCURVE",
"576 62 CURVE SMOOTH",
"559 97 OFFCURVE",
"425 555 OFFCURVE",
"395 673 CURVE",
"389 675 LINE",
"369 662 OFFCURVE",
"349 647 OFFCURVE",
"330 631 CURVE SMOOTH",
"324 626 OFFCURVE",
"318 620 OFFCURVE",
"318 614 CURVE SMOOTH",
"318 607 OFFCURVE",
"320 601 OFFCURVE",
"320 595 CURVE SMOOTH",
"320 580 OFFCURVE",
"313 559 OFFCURVE",
"300 532 CURVE SMOOTH",
"95 95 LINE SMOOTH",
"81 65 OFFCURVE",
"66 47 OFFCURVE",
"52 38 CURVE SMOOTH",
"41 32 OFFCURVE",
"19 27 OFFCURVE",
"-19 22 CURVE",
"-34 -8 LINE"
);
},
{
closed = 1;
nodes = (
"219 261 OFFCURVE",
"218 262 OFFCURVE",
"219 264 CURVE SMOOTH",
"286 408 OFFCURVE",
"310 462 OFFCURVE",
"344 528 CURVE",
"370 445 OFFCURVE",
"397 353 OFFCURVE",
"423 264 CURVE SMOOTH",
"424 262 OFFCURVE",
"423 261 OFFCURVE",
"421 261 CURVE SMOOTH",
"221 261 LINE SMOOTH"
);
}
);
width = 688;
}
);
leftKerningGroup = A;
note = A;
rightKerningGroup = A;
unicode = 0041;
},
{
glyphname = AE;
lastChange = "2021-11-16 13:08:26 +0000";
layers = (
{
anchors = (
{
name = bottom;
position = "{451, 0}";
},
{
name = top;
position = "{625, 665}";
}
);
layerId = "24D0D9E8-BA2F-4B13-8DB9-88CA40D3CAFC";
paths = (
{
closed = 1;
nodes = (
"857 138 OFFCURVE",
"848 119 OFFCURVE",
"833 97 CURVE SMOOTH",
"820 76 OFFCURVE",
"807 62 OFFCURVE",
"796 54 CURVE SMOOTH",
"774 39 OFFCURVE",
"729 31 OFFCURVE",
"662 31 CURVE SMOOTH",
"645 31 OFFCURVE",
"629 32 OFFCURVE",
"614 34 CURVE SMOOTH",
"584 38 OFFCURVE",
"561 42 OFFCURVE",
"553 45 CURVE SMOOTH",
"545 48 OFFCURVE",
"540 55 OFFCURVE",
"538 67 CURVE SMOOTH",
"537 78 OFFCURVE",
"536 95 OFFCURVE",
"536 118 CURVE SMOOTH",
"536 164 OFFCURVE",
"539 234 OFFCURVE",
"545 329 CURVE",
"556 330 OFFCURVE",
"568 330 OFFCURVE",
"582 330 CURVE SMOOTH",
"608 330 OFFCURVE",
"640 329 OFFCURVE",
"678 327 CURVE SMOOTH",
"716 326 OFFCURVE",
"735 312 OFFCURVE",
"732 287 CURVE",
"726 266 LINE",
"730 261 LINE",
"754 267 LINE",
"754 282 OFFCURVE",
"754 291 OFFCURVE",
"755 294 CURVE",
"755 301 OFFCURVE",
"758 311 OFFCURVE",
"762 325 CURVE SMOOTH",
"766 339 OFFCURVE",
"768 349 OFFCURVE",
"769 354 CURVE",
"769 364 OFFCURVE",
"765 370 OFFCURVE",
"756 370 CURVE SMOOTH",
"548 368 LINE",
"557 498 OFFCURVE",
"568 583 OFFCURVE",
"580 620 CURVE",
"600 622 OFFCURVE",
"633 623 OFFCURVE",
"683 623 CURVE SMOOTH",
"705 623 OFFCURVE",
"721 622 OFFCURVE",
"733 621 CURVE SMOOTH",
"770 616 OFFCURVE",
"787 605 OFFCURVE",
"787 587 CURVE SMOOTH",
"787 581 OFFCURVE",
"782 566 OFFCURVE",
"766 527 CURVE",
"793 520 LINE",
"819 616 LINE",
"826 636 OFFCURVE",
"827 645 OFFCURVE",
"827 653 CURVE SMOOTH",
"827 662 OFFCURVE",
"824 667 OFFCURVE",
"815 668 CURVE",
"530 665 LINE SMOOTH",
"472 664 OFFCURVE",
"427 669 OFFCURVE",
"393 674 CURVE",
"378 646 LINE",
"385 647 OFFCURVE",
"392 647 OFFCURVE",
"399 647 CURVE SMOOTH",
"423 647 OFFCURVE",
"446 642 OFFCURVE",
"461 631 CURVE",
"440 601 OFFCURVE",
"378 508 OFFCURVE",
"113 105 CURVE SMOOTH",
"94 77 OFFCURVE",
"69 47 OFFCURVE",
"55 38 CURVE SMOOTH",
"44 32 OFFCURVE",
"22 27 OFFCURVE",
"-16 22 CURVE",
"-31 -8 LINE",
"-6 -3 OFFCURVE",
"55 -2 OFFCURVE",
"102 -2 CURVE SMOOTH",
"150 -2 OFFCURVE",
"186 -3 OFFCURVE",
"212 -7 CURVE",
"228 23 LINE",
"172 22 OFFCURVE",
"144 31 OFFCURVE",
"144 46 CURVE",
"145 48 LINE",
"145 49 OFFCURVE",
"146 50 OFFCURVE",
"146 51 CURVE SMOOTH",
"151 71 OFFCURVE",
"188 136 OFFCURVE",
"250 226 CURVE",
"255 231 OFFCURVE",
"257 232 OFFCURVE",
"258 232 CURVE SMOOTH",
"457 232 LINE",
"450 146 OFFCURVE",
"443 87 OFFCURVE",
"437 67 CURVE SMOOTH",
"432 51 OFFCURVE",
"419 39 OFFCURVE",
"397 31 CURVE SMOOTH",
"380 24 OFFCURVE",
"361 20 OFFCURVE",
"341 20 CURVE SMOOTH",
"334 20 OFFCURVE",
"327 22 OFFCURVE",
"323 23 CURVE",
"310 -8 LINE",
"397 0 OFFCURVE",
"449 3 OFFCURVE",
"466 4 CURVE SMOOTH",
"483 5 OFFCURVE",
"502 6 OFFCURVE",
"521 6 CURVE SMOOTH",
"541 6 OFFCURVE",
"625 1 OFFCURVE",
"774 -10 CURVE",
"779 -11 OFFCURVE",
"783 -11 OFFCURVE",
"787 -11 CURVE SMOOTH",
"806 -11 OFFCURVE",
"818 -7 OFFCURVE",
"828 2 CURVE SMOOTH",
"835 9 OFFCURVE",
"840 22 OFFCURVE",
"845 42 CURVE SMOOTH",
"853 79 OFFCURVE",
"865 111 OFFCURVE",
"880 140 CURVE",
"858 148 LINE"
);
},
{
closed = 1;
nodes = (
"474 479 OFFCURVE",
"474 470 OFFCURVE",
"473 462 CURVE SMOOTH",
"461 292 LINE",
"460 277 LINE",
"286 277 LINE",
"286 277 OFFCURVE",
"286 277 OFFCURVE",
"285 277 CURVE",
"287 279 LINE",
"476 579 LINE",
"478 553 OFFCURVE",
"476 520 OFFCURVE",
"475 489 CURVE SMOOTH"
);
}
);
width = 902;
}
);
leftKerningGroup = A;
note = AE;
rightKerningGroup = E;
unicode = 00C6;
},
{
color = 9;
glyphname = B;
lastChange = "2021-11-16 03:55:29 +0000";
layers = (
{
background = {
paths = (
{
closed = 1;
nodes = (
"71 -2 OFFCURVE",
"117 0 OFFCURVE",
"147 1 CURVE SMOOTH",
"237 1 LINE",
"278 -2 OFFCURVE",
"310 -4 OFFCURVE",
"335 -4 CURVE SMOOTH",
"411 -4 OFFCURVE",
"474 14 OFFCURVE",
"523 49 CURVE SMOOTH",
"574 87 OFFCURVE",
"603 140 OFFCURVE",
"608 209 CURVE SMOOTH",
"611 258 OFFCURVE",
"603 295 OFFCURVE",
"585 320 CURVE SMOOTH",
"556 361 OFFCURVE",
"503 384 OFFCURVE",
"424 389 CURVE",
"425 381 LINE",
"460 395 OFFCURVE",
"487 415 OFFCURVE",
"507 442 CURVE SMOOTH",
"531 472 OFFCURVE",
"543 506 OFFCURVE",
"543 546 CURVE SMOOTH",
"543 584 OFFCURVE",
"530 613 OFFCURVE",
"502 633 CURVE SMOOTH",
"468 657 OFFCURVE",
"418 669 OFFCURVE",
"351 669 CURVE SMOOTH",
"335 669 OFFCURVE",
"317 668 OFFCURVE",
"298 667 CURVE SMOOTH",
"270 665 OFFCURVE",
"242 664 OFFCURVE",
"214 664 CURVE SMOOTH",
"171 664 OFFCURVE",
"126 666 OFFCURVE",
"80 671 CURVE",
"64 641 LINE",
"79 645 OFFCURVE",
"93 647 OFFCURVE",
"105 647 CURVE SMOOTH",
"125 647 OFFCURVE",
"140 642 OFFCURVE",
"152 632 CURVE",
"157 626 OFFCURVE",
"160 598 OFFCURVE",
"160 549 CURVE SMOOTH",
"160 490 OFFCURVE",
"156 401 OFFCURVE",
"148 283 CURVE SMOOTH",
"140 164 OFFCURVE",
"130 91 OFFCURVE",
"121 64 CURVE SMOOTH",
"110 36 OFFCURVE",
"79 22 OFFCURVE",
"21 22 CURVE",
"5 -8 LINE"
);
},
{
closed = 1;
nodes = (
"292 25 OFFCURVE",
"265 26 OFFCURVE",
"256 28 CURVE SMOOTH",
"233 34 OFFCURVE",
"222 45 OFFCURVE",
"221 64 CURVE SMOOTH",
"220 78 OFFCURVE",
"220 94 OFFCURVE",
"220 111 CURVE SMOOTH",
"220 151 OFFCURVE",
"222 200 OFFCURVE",
"226 259 CURVE SMOOTH",
"236 403 LINE SMOOTH",
"242 492 OFFCURVE",
"249 559 OFFCURVE",
"257 602 CURVE SMOOTH",
"260 615 OFFCURVE",
"269 622 OFFCURVE",
"288 626 CURVE SMOOTH",
"296 628 OFFCURVE",
"318 629 OFFCURVE",
"349 629 CURVE SMOOTH",
"388 629 OFFCURVE",
"419 618 OFFCURVE",
"443 594 CURVE SMOOTH",
"462 574 OFFCURVE",
"471 550 OFFCURVE",
"471 522 CURVE SMOOTH",
"471 497 OFFCURVE",
"464 474 OFFCURVE",
"447 448 CURVE SMOOTH",
"436 434 OFFCURVE",
"420 420 OFFCURVE",
"397 409 CURVE SMOOTH",
"372 396 OFFCURVE",
"350 390 OFFCURVE",
"327 390 CURVE SMOOTH",
"307 390 LINE",
"286 360 LINE",
"376 360 LINE SMOOTH",
"424 360 OFFCURVE",
"460 347 OFFCURVE",
"486 320 CURVE SMOOTH",
"513 294 OFFCURVE",
"526 256 OFFCURVE",
"524 209 CURVE SMOOTH",
"522 152 OFFCURVE",
"502 106 OFFCURVE",
"465 73 CURVE SMOOTH",
"430 41 OFFCURVE",
"386 25 OFFCURVE",
"333 25 CURVE SMOOTH"
);
}
);
};
layerId = "24D0D9E8-BA2F-4B13-8DB9-88CA40D3CAFC";
paths = (
{
closed = 1;
nodes = (
"71 -2 OFFCURVE",
"117 1 OFFCURVE",
"147 1 CURVE SMOOTH",
"293 -2 OFFCURVE",
"324 -4 OFFCURVE",
"335 -4 CURVE SMOOTH",
"411 -4 OFFCURVE",
"474 14 OFFCURVE",
"523 49 CURVE SMOOTH",
"574 87 OFFCURVE",
"603 140 OFFCURVE",
"608 209 CURVE SMOOTH",
"611 258 OFFCURVE",
"603 295 OFFCURVE",
"585 320 CURVE SMOOTH",
"556 361 OFFCURVE",
"503 384 OFFCURVE",
"424 389 CURVE",
"425 381 LINE",
"460 395 OFFCURVE",
"487 415 OFFCURVE",
"507 442 CURVE SMOOTH",
"531 472 OFFCURVE",
"543 506 OFFCURVE",
"543 546 CURVE SMOOTH",
"543 584 OFFCURVE",
"530 613 OFFCURVE",
"502 633 CURVE SMOOTH",
"468 657 OFFCURVE",
"418 669 OFFCURVE",
"351 669 CURVE SMOOTH",
"335 669 OFFCURVE",
"317 668 OFFCURVE",
"298 667 CURVE SMOOTH",
"270 665 OFFCURVE",
"242 664 OFFCURVE",
"214 664 CURVE SMOOTH",
"171 664 OFFCURVE",
"126 666 OFFCURVE",
"80 671 CURVE",
"64 641 LINE",
"79 645 OFFCURVE",
"93 647 OFFCURVE",
"105 647 CURVE SMOOTH",
"164 647 OFFCURVE",
"160 620 OFFCURVE",
"160 549 CURVE SMOOTH",
"160 490 OFFCURVE",
"156 401 OFFCURVE",
"148 283 CURVE SMOOTH",
"140 164 OFFCURVE",
"130 91 OFFCURVE",
"121 64 CURVE SMOOTH",
"110 36 OFFCURVE",
"79 22 OFFCURVE",
"21 22 CURVE",
"5 -8 LINE"
);
},
{
closed = 1;
nodes = (
"292 25 OFFCURVE",
"265 26 OFFCURVE",
"256 28 CURVE SMOOTH",
"233 34 OFFCURVE",
"222 45 OFFCURVE",
"221 64 CURVE SMOOTH",
"218 99 OFFCURVE",
"222 200 OFFCURVE",
"226 259 CURVE SMOOTH",
"236 403 LINE SMOOTH",
"242 492 OFFCURVE",
"249 559 OFFCURVE",
"257 602 CURVE SMOOTH",
"260 615 OFFCURVE",
"269 622 OFFCURVE",
"288 626 CURVE SMOOTH",
"296 628 OFFCURVE",
"318 629 OFFCURVE",
"349 629 CURVE SMOOTH",
"418 629 OFFCURVE",
"471 589 OFFCURVE",
"471 522 CURVE SMOOTH",
"471 475 OFFCURVE",
"447 433 OFFCURVE",
"397 409 CURVE SMOOTH",
"372 396 OFFCURVE",
"350 390 OFFCURVE",
"327 390 CURVE SMOOTH",
"307 390 LINE",
"286 360 LINE",
"376 360 LINE SMOOTH",
"424 360 OFFCURVE",
"460 347 OFFCURVE",
"486 320 CURVE SMOOTH",
"513 294 OFFCURVE",
"526 256 OFFCURVE",
"524 209 CURVE SMOOTH",
"522 152 OFFCURVE",
"502 106 OFFCURVE",
"465 73 CURVE SMOOTH",
"430 41 OFFCURVE",
"386 25 OFFCURVE",
"333 25 CURVE SMOOTH"
);
}
);
width = 674;
}
);
leftKerningGroup = H;
leftMetricsKey = H;
note = B;
unicode = 0042;
},
{
color = 9;
glyphname = C;
lastChange = "2021-11-16 13:22:05 +0000";
layers = (
{
anchors = (
{
name = bottom;
position = "{386, 0}";
},
{
name = top;
position = "{428, 665}";
}
);
background = {
paths = (
{
closed = 1;
nodes = (
"450 -16 OFFCURVE",
"506 -4 OFFCURVE",
"560 18 CURVE SMOOTH",
"572 23 OFFCURVE",
"605 42 OFFCURVE",
"662 74 CURVE",
"664 101 LINE",
"564 56 OFFCURVE",
"474 36 OFFCURVE",
"394 36 CURVE SMOOTH",
"307 36 OFFCURVE",
"238 68 OFFCURVE",
"188 132 CURVE SMOOTH",
"145 188 OFFCURVE",
"124 258 OFFCURVE",
"124 340 CURVE SMOOTH",
"124 352 OFFCURVE",
"124 364 OFFCURVE",
"125 376 CURVE SMOOTH",
"131 460 OFFCURVE",
"159 524 OFFCURVE",
"209 566 CURVE SMOOTH",
"258 607 OFFCURVE",
"325 628 OFFCURVE",
"408 628 CURVE SMOOTH",
"469 628 OFFCURVE",
"520 619 OFFCURVE",
"560 602 CURVE SMOOTH",
"594 588 OFFCURVE",
"615 573 OFFCURVE",
"626 557 CURVE SMOOTH",
"637 541 OFFCURVE",
"641 520 OFFCURVE",
"640 493 CURVE SMOOTH",
"639 485 OFFCURVE",
"638 476 OFFCURVE",
"636 466 CURVE",
"658 461 LINE",
"659 469 OFFCURVE",
"659 468 OFFCURVE",
"659 473 CURVE SMOOTH",
"661 495 OFFCURVE",
"667 524 OFFCURVE",
"677 558 CURVE SMOOTH",
"690 600 OFFCURVE",
"702 618 OFFCURVE",
"710 614 CURVE",
"717 628 LINE",
"635 660 OFFCURVE",
"545 676 OFFCURVE",
"446 676 CURVE SMOOTH",
"436 676 OFFCURVE",
"426 676 OFFCURVE",
"416 675 CURVE SMOOTH",
"310 672 OFFCURVE",
"221 643 OFFCURVE",
"151 588 CURVE SMOOTH",
"75 528 OFFCURVE",
"32 447 OFFCURVE",
"25 346 CURVE SMOOTH",
"24 327 OFFCURVE",
"25 309 OFFCURVE",
"25 290 CURVE",
"33 175 OFFCURVE",
"79 92 OFFCURVE",
"164 41 CURVE SMOOTH",
"227 3 OFFCURVE",
"304 -16 OFFCURVE",
"394 -16 CURVE SMOOTH"
);
}
);
};
layerId = "24D0D9E8-BA2F-4B13-8DB9-88CA40D3CAFC";
paths = (
{
closed = 1;
nodes = (
"449 -13 OFFCURVE",
"505 -1 OFFCURVE",
"558 21 CURVE SMOOTH",
"570 26 OFFCURVE",
"603 45 OFFCURVE",
"659 77 CURVE",
"661 103 LINE",
"562 59 OFFCURVE",
"473 39 OFFCURVE",
"394 39 CURVE SMOOTH",
"308 39 OFFCURVE",
"239 71 OFFCURVE",
"190 134 CURVE SMOOTH",
"147 189 OFFCURVE",
"126 259 OFFCURVE",
"126 340 CURVE SMOOTH",
"126 427 OFFCURVE",
"147 510 OFFCURVE",
"211 564 CURVE SMOOTH",
"259 604 OFFCURVE",
"325 625 OFFCURVE",
"408 625 CURVE SMOOTH",
"468 625 OFFCURVE",
"519 616 OFFCURVE",
"558 599 CURVE SMOOTH",
"592 585 OFFCURVE",
"613 571 OFFCURVE",
"623 555 CURVE SMOOTH",
"634 539 OFFCURVE",
"638 518 OFFCURVE",
"637 491 CURVE SMOOTH",
"636 483 OFFCURVE",
"635 475 OFFCURVE",
"633 465 CURVE",
"655 460 LINE",
"656 468 OFFCURVE",
"656 467 OFFCURVE",
"656 472 CURVE SMOOTH",
"658 493 OFFCURVE",
"664 522 OFFCURVE",
"674 556 CURVE SMOOTH",
"687 597 OFFCURVE",
"699 615 OFFCURVE",
"707 611 CURVE",
"714 625 LINE",
"632 657 OFFCURVE",
"543 673 OFFCURVE",
"445 673 CURVE SMOOTH",
"334 673 OFFCURVE",
"233 649 OFFCURVE",
"153 585 CURVE SMOOTH",
"78 526 OFFCURVE",
"28 454 OFFCURVE",
"28 327 CURVE SMOOTH",
"28 220 OFFCURVE",
"60 108 OFFCURVE",
"166 44 CURVE SMOOTH",
"228 6 OFFCURVE",
"305 -13 OFFCURVE",
"394 -13 CURVE SMOOTH"
);
}
);
width = 727;
}
);
leftKerningGroup = O;
note = C;
rightKerningGroup = C;
unicode = 0043;
},
{
color = 9;
glyphname = D;
lastChange = "2021-11-16 13:22:30 +0000";
layers = (
{
anchors = (
{
name = bottom;
position = "{388, 0}";
},
{
name = center;
position = "{197, 333}";
},
{
name = top;
position = "{428, 665}";
}
);
background = {
paths = (
{
closed = 1;
nodes = (
"76 -1 OFFCURVE",
"140 2 OFFCURVE",
"192 2 CURVE SMOOTH",
"219 2 OFFCURVE",
"243 1 OFFCURVE",
"264 -1 CURVE SMOOTH",
"288 -4 OFFCURVE",
"313 -5 OFFCURVE",
"336 -5 CURVE SMOOTH",
"444 -5 OFFCURVE",
"535 22 OFFCURVE",
"612 77 CURVE SMOOTH",
"644 100 OFFCURVE",
"671 135 OFFCURVE",
"695 181 CURVE SMOOTH",
"724 240 OFFCURVE",
"740 302 OFFCURVE",
"740 366 CURVE SMOOTH",
"740 422 OFFCURVE",
"728 473 OFFCURVE",
"704 517 CURVE SMOOTH",
"649 619 OFFCURVE",
"541 669 OFFCURVE",
"381 669 CURVE SMOOTH",
"345 669 OFFCURVE",
"304 667 OFFCURVE",
"260 662 CURVE SMOOTH",
"246 661 OFFCURVE",
"230 660 OFFCURVE",
"212 660 CURVE SMOOTH",
"177 660 OFFCURVE",
"134 663 OFFCURVE",
"85 668 CURVE",
"70 637 LINE",
"85 641 OFFCURVE",
"99 643 OFFCURVE",
"111 643 CURVE SMOOTH",
"130 643 OFFCURVE",
"145 638 OFFCURVE",
"155 628 CURVE SMOOTH",
"160 622 OFFCURVE",
"163 594 OFFCURVE",
"163 547 CURVE SMOOTH",
"163 487 OFFCURVE",
"159 397 OFFCURVE",
"150 276 CURVE SMOOTH",
"142 161 OFFCURVE",
"134 91 OFFCURVE",
"127 65 CURVE SMOOTH",
"122 50 OFFCURVE",
"109 38 OFFCURVE",
"88 30 CURVE SMOOTH",
"72 23 OFFCURVE",
"54 20 OFFCURVE",
"33 20 CURVE SMOOTH",
"26 20 OFFCURVE",
"20 20 OFFCURVE",
"17 22 CURVE",
"0 -8 LINE"
);
},
{
closed = 1;
nodes = (
"277 28 OFFCURVE",
"237 44 OFFCURVE",
"224 77 CURVE",
"227 174 OFFCURVE",
"230 256 OFFCURVE",
"235 324 CURVE SMOOTH",
"244 496 OFFCURVE",
"256 597 OFFCURVE",
"269 621 CURVE",
"276 629 OFFCURVE",
"306 634 OFFCURVE",
"356 634 CURVE SMOOTH",
"376 634 OFFCURVE",
"397 632 OFFCURVE",
"418 629 CURVE SMOOTH",
"482 620 OFFCURVE",
"535 591 OFFCURVE",
"577 541 CURVE SMOOTH",
"623 486 OFFCURVE",
"643 421 OFFCURVE",
"639 344 CURVE SMOOTH",
"634 231 OFFCURVE",
"603 147 OFFCURVE",
"546 96 CURVE SMOOTH",
"509 62 OFFCURVE",
"456 41 OFFCURVE",
"389 31 CURVE SMOOTH",
"376 29 OFFCURVE",
"363 28 OFFCURVE",
"348 28 CURVE SMOOTH"
);
}
);
};
layerId = "24D0D9E8-BA2F-4B13-8DB9-88CA40D3CAFC";
paths = (
{
closed = 1;
nodes = (
"76 -1 OFFCURVE",
"140 2 OFFCURVE",
"192 2 CURVE SMOOTH",
"219 2 OFFCURVE",
"243 1 OFFCURVE",
"264 -1 CURVE SMOOTH",
"288 -4 OFFCURVE",
"313 -5 OFFCURVE",
"336 -5 CURVE SMOOTH",
"444 -5 OFFCURVE",
"535 22 OFFCURVE",
"612 77 CURVE SMOOTH",
"644 100 OFFCURVE",
"671 135 OFFCURVE",
"695 181 CURVE SMOOTH",
"724 240 OFFCURVE",
"740 302 OFFCURVE",
"740 366 CURVE SMOOTH",
"740 422 OFFCURVE",
"728 473 OFFCURVE",
"704 517 CURVE SMOOTH",
"649 619 OFFCURVE",
"541 669 OFFCURVE",
"381 669 CURVE SMOOTH",
"345 669 OFFCURVE",
"304 667 OFFCURVE",
"260 662 CURVE SMOOTH",
"246 661 OFFCURVE",
"230 660 OFFCURVE",
"212 660 CURVE SMOOTH",
"177 660 OFFCURVE",
"134 663 OFFCURVE",
"85 668 CURVE",
"70 637 LINE",
"85 641 OFFCURVE",
"99 643 OFFCURVE",
"111 643 CURVE SMOOTH",
"130 643 OFFCURVE",
"145 638 OFFCURVE",
"155 628 CURVE SMOOTH",
"160 622 OFFCURVE",
"163 594 OFFCURVE",
"163 547 CURVE SMOOTH",
"163 487 OFFCURVE",
"159 397 OFFCURVE",
"150 276 CURVE SMOOTH",
"142 161 OFFCURVE",
"134 91 OFFCURVE",
"127 65 CURVE SMOOTH",
"122 50 OFFCURVE",
"109 38 OFFCURVE",
"88 30 CURVE SMOOTH",
"72 23 OFFCURVE",
"54 20 OFFCURVE",
"33 20 CURVE SMOOTH",
"26 20 OFFCURVE",
"20 20 OFFCURVE",
"17 22 CURVE",
"0 -8 LINE"
);
},
{
closed = 1;
nodes = (
"277 28 OFFCURVE",
"237 44 OFFCURVE",
"224 77 CURVE",
"227 174 OFFCURVE",
"230 256 OFFCURVE",
"235 324 CURVE SMOOTH",
"244 496 OFFCURVE",
"256 597 OFFCURVE",
"269 621 CURVE",
"276 629 OFFCURVE",
"306 634 OFFCURVE",
"356 634 CURVE SMOOTH",
"376 634 OFFCURVE",
"397 632 OFFCURVE",
"418 629 CURVE SMOOTH",
"482 620 OFFCURVE",
"535 591 OFFCURVE",
"577 541 CURVE SMOOTH",
"623 486 OFFCURVE",
"643 421 OFFCURVE",
"639 344 CURVE SMOOTH",
"634 231 OFFCURVE",
"603 147 OFFCURVE",
"546 96 CURVE SMOOTH",
"509 62 OFFCURVE",
"456 41 OFFCURVE",
"389 31 CURVE SMOOTH",
"376 29 OFFCURVE",
"363 28 OFFCURVE",
"348 28 CURVE SMOOTH"
);
}
);
width = 776;
}
);
leftKerningGroup = H;
note = D;
rightKerningGroup = O;
rightMetricsKey = "=O-5";
unicode = 0044;
},
{
color = 9;
glyphname = E;
lastChange = "2021-11-16 13:22:43 +0000";
layers = (
{
anchors = (
{
name = bottom;
position = "{296, 0}";
},
{
name = ogonek;
position = "{515, 10}";
},
{
name = top;
position = "{309, 665}";
},
{
name = topleft;
position = "{20, 665}";
}
);
background = {
paths = (
{
closed = 1;
nodes = (
"498 -11 OFFCURVE",
"511 -6 OFFCURVE",
"519 2 CURVE SMOOTH",
"527 9 OFFCURVE",
"533 24 OFFCURVE",
"537 42 CURVE SMOOTH",
"545 78 OFFCURVE",
"555 111 OFFCURVE",
"571 140 CURVE",
"548 149 LINE",
"549 139 OFFCURVE",
"540 119 OFFCURVE",
"525 97 CURVE SMOOTH",
"510 75 OFFCURVE",
"497 62 OFFCURVE",
"487 54 CURVE SMOOTH",
"465 39 OFFCURVE",
"421 31 OFFCURVE",
"354 31 CURVE SMOOTH",
"336 31 OFFCURVE",
"320 32 OFFCURVE",
"306 34 CURVE SMOOTH",
"276 38 OFFCURVE",
"253 42 OFFCURVE",
"245 45 CURVE SMOOTH",
"236 48 OFFCURVE",
"231 55 OFFCURVE",
"230 67 CURVE SMOOTH",
"228 79 OFFCURVE",
"228 96 OFFCURVE",
"228 119 CURVE SMOOTH",
"228 167 OFFCURVE",
"231 238 OFFCURVE",
"237 329 CURVE",
"247 330 OFFCURVE",
"260 330 OFFCURVE",
"274 330 CURVE SMOOTH",
"300 330 OFFCURVE",
"332 329 OFFCURVE",
"370 327 CURVE SMOOTH",
"407 326 OFFCURVE",
"426 312 OFFCURVE",
"424 287 CURVE",
"422 281 OFFCURVE",
"421 276 OFFCURVE",
"420 273 CURVE SMOOTH",
"418 266 LINE",
"422 261 LINE",
"446 267 LINE",
"446 282 OFFCURVE",
"446 291 OFFCURVE",
"447 294 CURVE",
"447 301 OFFCURVE",
"449 311 OFFCURVE",
"453 325 CURVE SMOOTH",
"458 340 OFFCURVE",
"460 349 OFFCURVE",
"461 354 CURVE",
"461 364 OFFCURVE",
"457 370 OFFCURVE",
"448 370 CURVE SMOOTH",
"240 368 LINE",
"249 495 OFFCURVE",
"259 582 OFFCURVE",
"271 619 CURVE",
"292 623 OFFCURVE",
"325 623 OFFCURVE",
"374 623 CURVE SMOOTH",
"396 623 OFFCURVE",
"413 622 OFFCURVE",
"425 621 CURVE SMOOTH",
"461 616 OFFCURVE",
"478 605 OFFCURVE",
"478 587 CURVE SMOOTH",
"478 580 OFFCURVE",
"470 557 OFFCURVE",
"457 527 CURVE",
"485 520 LINE",
"501 584 LINE",
"501 587 OFFCURVE",
"503 594 OFFCURVE",
"511 616 CURVE SMOOTH",
"518 636 OFFCURVE",
"519 645 OFFCURVE",
"519 652 CURVE SMOOTH",
"519 661 OFFCURVE",
"515 667 OFFCURVE",
"506 668 CURVE",
"222 665 LINE SMOOTH",
"164 666 OFFCURVE",
"119 669 OFFCURVE",
"85 674 CURVE",
"70 646 LINE",
"81 647 OFFCURVE",
"90 648 OFFCURVE",
"99 648 CURVE SMOOTH",
"128 648 OFFCURVE",
"146 642 OFFCURVE",
"156 630 CURVE SMOOTH",
"163 623 OFFCURVE",
"167 593 OFFCURVE",
"167 539 CURVE SMOOTH",
"167 517 OFFCURVE",
"166 491 OFFCURVE",
"165 462 CURVE SMOOTH",
"152 276 LINE SMOOTH",
"144 163 OFFCURVE",
"137 94 OFFCURVE",
"129 67 CURVE SMOOTH",
"123 51 OFFCURVE",
"110 39 OFFCURVE",
"89 31 CURVE SMOOTH",
"69 23 OFFCURVE",
"51 20 OFFCURVE",
"32 20 CURVE SMOOTH",
"25 20 OFFCURVE",
"20 22 OFFCURVE",
"15 23 CURVE",
"0 -8 LINE",
"89 0 OFFCURVE",
"140 3 OFFCURVE",
"158 4 CURVE SMOOTH",
"174 5 OFFCURVE",
"193 6 OFFCURVE",
"213 6 CURVE SMOOTH",
"232 6 OFFCURVE",
"316 1 OFFCURVE",
"465 -10 CURVE",
"470 -11 OFFCURVE",
"475 -11 OFFCURVE",
"479 -11 CURVE SMOOTH"
);
}
);
};
layerId = "24D0D9E8-BA2F-4B13-8DB9-88CA40D3CAFC";
paths = (
{
closed = 1;
nodes = (
"498 -11 OFFCURVE",
"511 -6 OFFCURVE",
"519 2 CURVE SMOOTH",
"527 9 OFFCURVE",
"533 24 OFFCURVE",
"537 42 CURVE SMOOTH",
"545 78 OFFCURVE",
"555 111 OFFCURVE",
"571 140 CURVE",
"548 149 LINE",
"549 139 OFFCURVE",
"540 119 OFFCURVE",
"525 97 CURVE SMOOTH",
"510 75 OFFCURVE",
"497 62 OFFCURVE",
"487 54 CURVE SMOOTH",
"465 39 OFFCURVE",
"421 31 OFFCURVE",
"354 31 CURVE SMOOTH",
"336 31 OFFCURVE",
"320 32 OFFCURVE",
"306 34 CURVE SMOOTH",
"276 38 OFFCURVE",
"253 42 OFFCURVE",
"245 45 CURVE SMOOTH",
"236 48 OFFCURVE",
"231 55 OFFCURVE",
"230 67 CURVE SMOOTH",
"229 75 OFFCURVE",
"228 91 OFFCURVE",
"228 112 CURVE SMOOTH",
"228 170 OFFCURVE",
"233 264 OFFCURVE",
"237 329 CURVE",
"247 330 OFFCURVE",
"260 330 OFFCURVE",
"274 330 CURVE SMOOTH",
"300 330 OFFCURVE",
"332 329 OFFCURVE",
"370 327 CURVE SMOOTH",
"407 326 OFFCURVE",
"422 316 OFFCURVE",
"422 292 CURVE SMOOTH",
"422 285 OFFCURVE",
"421 276 OFFCURVE",
"418 266 CURVE",
"422 261 LINE",
"446 267 LINE",
"446 287 OFFCURVE",
"449 304 OFFCURVE",
"452 320 CURVE SMOOTH",
"454 331 OFFCURVE",
"460 349 OFFCURVE",
"461 354 CURVE SMOOTH",
"464 364 OFFCURVE",
"457 370 OFFCURVE",
"448 370 CURVE SMOOTH",
"240 368 LINE",
"249 495 OFFCURVE",
"259 582 OFFCURVE",
"271 619 CURVE",
"292 623 OFFCURVE",
"325 623 OFFCURVE",
"374 623 CURVE SMOOTH",
"421 623 OFFCURVE",
"478 620 OFFCURVE",
"478 587 CURVE SMOOTH",
"478 580 OFFCURVE",
"470 557 OFFCURVE",
"457 527 CURVE",
"485 520 LINE",
"488 534 OFFCURVE",
"494 561 OFFCURVE",
"502 589 CURVE SMOOTH",
"515 628 OFFCURVE",
"519 645 OFFCURVE",
"519 652 CURVE SMOOTH",
"519 661 OFFCURVE",
"515 667 OFFCURVE",
"506 668 CURVE",
"222 665 LINE SMOOTH",
"164 664 OFFCURVE",
"119 669 OFFCURVE",
"85 674 CURVE",
"70 646 LINE",
"81 647 OFFCURVE",
"90 648 OFFCURVE",
"99 648 CURVE SMOOTH",
"128 648 OFFCURVE",
"146 642 OFFCURVE",
"156 630 CURVE SMOOTH",
"163 623 OFFCURVE",
"167 593 OFFCURVE",
"167 539 CURVE SMOOTH",
"167 517 OFFCURVE",
"167 491 OFFCURVE",
"165 462 CURVE SMOOTH",
"152 276 LINE SMOOTH",
"144 163 OFFCURVE",
"137 94 OFFCURVE",
"129 67 CURVE SMOOTH",
"116 33 OFFCURVE",
"51 20 OFFCURVE",
"15 23 CURVE",
"0 -8 LINE",
"89 0 OFFCURVE",
"140 3 OFFCURVE",
"158 4 CURVE SMOOTH",
"174 5 OFFCURVE",
"193 6 OFFCURVE",
"213 6 CURVE SMOOTH",
"232 6 OFFCURVE",
"316 1 OFFCURVE",
"465 -10 CURVE",
"470 -11 OFFCURVE",
"475 -11 OFFCURVE",
"479 -11 CURVE SMOOTH"
);
}
);
width = 591;
}
);
leftKerningGroup = H;
note = E;
rightKerningGroup = E;
unicode = 0045;
},
{
color = 9;
glyphname = F;
lastChange = "2021-11-16 05:14:32 +0000";
layers = (
{
background = {
paths = (
{
closed = 1;
nodes = (
"231 330 OFFCURVE",
"264 330 OFFCURVE",
"274 330 CURVE SMOOTH",
"300 330 OFFCURVE",
"332 329 OFFCURVE",
"370 327 CURVE SMOOTH",
"407 326 OFFCURVE",
"422 316 OFFCURVE",
"422 292 CURVE SMOOTH",
"422 285 OFFCURVE",
"421 276 OFFCURVE",
"418 266 CURVE",
"422 261 LINE",
"446 267 LINE",
"446 287 OFFCURVE",
"449 304 OFFCURVE",
"452 320 CURVE SMOOTH",
"454 331 OFFCURVE",
"460 349 OFFCURVE",
"461 354 CURVE SMOOTH",
"464 364 OFFCURVE",
"457 370 OFFCURVE",
"448 370 CURVE SMOOTH",
"211 368 LINE",
"210 330 LINE"
);
}
);
};
layerId = "24D0D9E8-BA2F-4B13-8DB9-88CA40D3CAFC";
paths = (
{
closed = 1;
nodes = (
"443 667 OFFCURVE",
"330 666 OFFCURVE",
"222 664 CURVE SMOOTH",
"180 665 OFFCURVE",
"134 668 OFFCURVE",
"86 673 CURVE",
"70 643 LINE",
"170 650 OFFCURVE",
"169 626 OFFCURVE",
"169 541 CURVE SMOOTH",
"169 496 OFFCURVE",
"166 434 OFFCURVE",
"160 355 CURVE SMOOTH",
"145 171 OFFCURVE",
"138 102 OFFCURVE",
"128 67 CURVE SMOOTH",
"115 31 OFFCURVE",
"50 18 OFFCURVE",
"16 23 CURVE",
"0 -8 LINE",
"87 0 OFFCURVE",
"145 3 OFFCURVE",
"172 3 CURVE SMOOTH",
"254 4 OFFCURVE",
"305 1 OFFCURVE",
"327 -8 CURVE",
"345 25 LINE",
"296 22 OFFCURVE",
"234 32 OFFCURVE",
"232 67 CURVE SMOOTH",
"228 122 OFFCURVE",
"231 224 OFFCURVE",
"237 330 CURVE",
"274 330 LINE SMOOTH",
"300 330 OFFCURVE",
"332 329 OFFCURVE",
"370 327 CURVE SMOOTH",
"407 326 OFFCURVE",
"422 316 OFFCURVE",
"422 292 CURVE SMOOTH",
"422 285 OFFCURVE",
"421 276 OFFCURVE",
"418 266 CURVE",
"422 261 LINE",
"446 267 LINE",
"446 287 OFFCURVE",
"449 304 OFFCURVE",
"452 320 CURVE SMOOTH",
"454 331 OFFCURVE",
"460 349 OFFCURVE",
"461 354 CURVE SMOOTH",
"464 364 OFFCURVE",
"457 370 OFFCURVE",
"448 370 CURVE SMOOTH",
"240 368 LINE",
"250 500 OFFCURVE",
"261 583 OFFCURVE",
"271 618 CURVE",
"289 620 OFFCURVE",
"324 622 OFFCURVE",
"377 623 CURVE SMOOTH",
"431 623 OFFCURVE",
"465 622 OFFCURVE",
"481 620 CURVE SMOOTH",
"513 616 OFFCURVE",
"528 605 OFFCURVE",
"528 586 CURVE",
"525 572 OFFCURVE",
"523 562 OFFCURVE",
"508 527 CURVE",
"536 520 LINE",
"540 536 OFFCURVE",
"550 577 OFFCURVE",
"563 617 CURVE SMOOTH",
"569 635 OFFCURVE",
"572 646 OFFCURVE",
"572 653 CURVE SMOOTH",
"572 661 OFFCURVE",
"568 666 OFFCURVE",
"560 668 CURVE"
);
}
);
width = 572;
}
);
leftKerningGroup = H;
note = F;
rightKerningGroup = F;
unicode = 0046;
},
{
color = 9;
glyphname = G;
lastChange = "2021-11-16 13:22:56 +0000";
layers = (
{
anchors = (
{
name = bottom;
position = "{400, 0}";
},
{
name = top;
position = "{451, 665}";
}
);
background = {
paths = (
{
closed = 1;
nodes = (
"425 -6 OFFCURVE",
"473 -2 OFFCURVE",
"526 5 CURVE SMOOTH",
"577 12 OFFCURVE",
"611 16 OFFCURVE",
"625 16 CURVE SMOOTH",
"636 16 OFFCURVE",
"644 15 OFFCURVE",
"655 14 CURVE",
"659 24 LINE",
"655 36 OFFCURVE",
"653 57 OFFCURVE",
"653 84 CURVE SMOOTH",
"653 100 OFFCURVE",
"654 118 OFFCURVE",
"655 138 CURVE SMOOTH",
"657 189 OFFCURVE",
"661 228 OFFCURVE",
"667 253 CURVE SMOOTH",
"674 285 OFFCURVE",
"694 300 OFFCURVE",
"729 298 CURVE",
"736 327 LINE",
"703 315 OFFCURVE",
"654 307 OFFCURVE",
"590 307 CURVE SMOOTH",
"545 307 OFFCURVE",
"506 310 OFFCURVE",
"474 317 CURVE",
"467 287 LINE",
"475 288 OFFCURVE",
"483 288 OFFCURVE",
"491 288 CURVE SMOOTH",
"515 288 OFFCURVE",
"539 285 OFFCURVE",
"563 277 CURVE SMOOTH",
"573 274 OFFCURVE",
"579 251 OFFCURVE",
"579 211 CURVE SMOOTH",
"579 198 OFFCURVE",
"578 184 OFFCURVE",
"577 168 CURVE SMOOTH",
"573 116 OFFCURVE",
"568 75 OFFCURVE",
"560 47 CURVE",
"516 38 OFFCURVE",
"474 34 OFFCURVE",
"435 34 CURVE SMOOTH",
"368 34 OFFCURVE",
"312 46 OFFCURVE",
"266 70 CURVE SMOOTH",
"211 97 OFFCURVE",
"172 139 OFFCURVE",
"146 195 CURVE SMOOTH",
"127 237 OFFCURVE",
"118 283 OFFCURVE",
"118 333 CURVE SMOOTH",
"118 342 OFFCURVE",
"118 352 OFFCURVE",
"119 361 CURVE SMOOTH",
"126 452 OFFCURVE",
"154 519 OFFCURVE",
"206 563 CURVE SMOOTH",
"255 604 OFFCURVE",
"321 625 OFFCURVE",
"403 625 CURVE SMOOTH",
"464 625 OFFCURVE",
"514 616 OFFCURVE",
"553 599 CURVE SMOOTH",
"585 587 OFFCURVE",
"607 571 OFFCURVE",
"619 555 CURVE SMOOTH",
"630 539 OFFCURVE",
"634 518 OFFCURVE",
"632 491 CURVE SMOOTH",
"632 483 OFFCURVE",
"631 474 OFFCURVE",
"629 465 CURVE",
"646 461 LINE",
"651 467 LINE",
"651 471 LINE SMOOTH",
"653 494 OFFCURVE",
"659 521 OFFCURVE",
"670 556 CURVE SMOOTH",
"683 598 OFFCURVE",
"695 616 OFFCURVE",
"704 611 CURVE",
"709 625 LINE",
"627 657 OFFCURVE",
"538 672 OFFCURVE",
"441 672 CURVE SMOOTH",
"411 672 LINE SMOOTH",
"306 669 OFFCURVE",
"219 640 OFFCURVE",
"148 585 CURVE SMOOTH",
"73 526 OFFCURVE",
"31 446 OFFCURVE",
"24 345 CURVE SMOOTH",
"23 327 OFFCURVE",
"24 309 OFFCURVE",
"24 290 CURVE SMOOTH",
"31 177 OFFCURVE",
"76 96 OFFCURVE",
"158 47 CURVE SMOOTH",
"219 11 OFFCURVE",
"294 -6 OFFCURVE",
"383 -6 CURVE SMOOTH"
);
}
);
};
layerId = "24D0D9E8-BA2F-4B13-8DB9-88CA40D3CAFC";
paths = (
{
closed = 1;
nodes = (
"470 -6 OFFCURVE",
"631 16 OFFCURVE",
"645 16 CURVE SMOOTH",
"656 16 OFFCURVE",
"664 15 OFFCURVE",
"675 14 CURVE",
"679 24 LINE",
"671 48 OFFCURVE",
"673 96 OFFCURVE",
"675 138 CURVE SMOOTH",
"677 189 OFFCURVE",
"681 228 OFFCURVE",
"687 253 CURVE SMOOTH",
"694 285 OFFCURVE",
"714 300 OFFCURVE",
"749 298 CURVE",
"756 327 LINE",
"723 315 OFFCURVE",
"674 307 OFFCURVE",
"610 307 CURVE SMOOTH",
"565 307 OFFCURVE",
"526 310 OFFCURVE",
"494 317 CURVE",
"487 287 LINE",
"495 288 OFFCURVE",
"503 288 OFFCURVE",
"511 288 CURVE SMOOTH",
"535 288 OFFCURVE",
"559 285 OFFCURVE",
"583 277 CURVE SMOOTH",
"602 271 OFFCURVE",
"600 208 OFFCURVE",
"597 168 CURVE SMOOTH",
"593 116 OFFCURVE",
"588 75 OFFCURVE",
"580 47 CURVE",
"536 38 OFFCURVE",
"494 34 OFFCURVE",
"455 34 CURVE SMOOTH",
"261 34 OFFCURVE",
"138 146 OFFCURVE",
"138 333 CURVE SMOOTH",
"138 419 OFFCURVE",
"162 509 OFFCURVE",
"226 563 CURVE SMOOTH",
"275 604 OFFCURVE",
"341 625 OFFCURVE",
"423 625 CURVE SMOOTH",
"503 625 OFFCURVE",
"603 603 OFFCURVE",
"639 555 CURVE SMOOTH",
"650 539 OFFCURVE",
"652 518 OFFCURVE",
"650 491 CURVE SMOOTH",
"650 483 OFFCURVE",
"649 474 OFFCURVE",
"647 465 CURVE",
"669 461 LINE",
"674 467 LINE",
"674 471 LINE SMOOTH",
"674 499 OFFCURVE",
"691 576 OFFCURVE",
"724 611 CURVE",
"729 625 LINE",
"647 657 OFFCURVE",
"558 672 OFFCURVE",
"449 672 CURVE SMOOTH",
"326 672 OFFCURVE",
"239 640 OFFCURVE",
"168 585 CURVE SMOOTH",
"93 526 OFFCURVE",
"51 446 OFFCURVE",
"44 345 CURVE SMOOTH",
"37 221 OFFCURVE",
"73 109 OFFCURVE",
"178 47 CURVE SMOOTH",
"239 11 OFFCURVE",
"314 -6 OFFCURVE",
"403 -6 CURVE SMOOTH"
);
}
);
width = 799;
}
);
leftKerningGroup = O;
leftMetricsKey = O;
note = G;
rightKerningGroup = G;
unicode = 0047;
},
{
color = 9;
glyphname = H;
lastChange = "2021-11-16 13:23:05 +0000";
layers = (
{
anchors = (
{
name = bottom;
position = "{446, 0}";
},
{
name = center;
position = "{446, 333}";
},
{
name = top;
position = "{489, 665}";
},
{
name = topleft;
position = "{20, 665}";
}
);
background = {
paths = (
{
closed = 1;
nodes = (
"347 25 LINE",
"337 23 OFFCURVE",
"327 23 OFFCURVE",
"318 23 CURVE SMOOTH",
"303 23 OFFCURVE",
"289 25 OFFCURVE",
"275 29 CURVE SMOOTH",
"248 37 OFFCURVE",
"236 48 OFFCURVE",
"235 65 CURVE SMOOTH",
"234 76 OFFCURVE",
"233 93 OFFCURVE",
"233 115 CURVE SMOOTH",
"233 153 OFFCURVE",
"235 207 OFFCURVE",
"238 278 CURVE SMOOTH",
"241 321 LINE",
"316 324 OFFCURVE",
"364 326 OFFCURVE",
"388 326 CURVE SMOOTH",
"667 326 LINE",
"666 321 OFFCURVE",
"666 312 OFFCURVE",
"664 299 CURVE SMOOTH",
"663 279 LINE SMOOTH",
"655 169 OFFCURVE",
"646 98 OFFCURVE",
"636 65 CURVE SMOOTH",
"627 35 OFFCURVE",
"597 20 OFFCURVE",
"544 20 CURVE SMOOTH",
"536 20 OFFCURVE",
"530 21 OFFCURVE",
"524 23 CURVE",
"509 -7 LINE",
"680 5 LINE",
"769 2 OFFCURVE",
"821 -3 OFFCURVE",
"833 -8 CURVE",
"853 25 LINE",
"843 23 OFFCURVE",
"833 23 OFFCURVE",
"824 23 CURVE SMOOTH",
"809 23 OFFCURVE",
"795 25 OFFCURVE",
"781 29 CURVE SMOOTH",
"754 37 OFFCURVE",
"742 48 OFFCURVE",
"741 65 CURVE SMOOTH",
"739 76 OFFCURVE",
"739 93 OFFCURVE",
"739 117 CURVE SMOOTH",
"739 154 OFFCURVE",
"741 208 OFFCURVE",
"743 278 CURVE SMOOTH",
"748 361 OFFCURVE",
"755 438 OFFCURVE",
"763 508 CURVE SMOOTH",
"770 571 OFFCURVE",
"777 613 OFFCURVE",
"784 627 CURVE",
"798 642 OFFCURVE",
"818 649 OFFCURVE",
"843 649 CURVE SMOOTH",
"849 649 OFFCURVE",
"855 649 OFFCURVE",
"861 648 CURVE",
"884 675 LINE",
"838 671 OFFCURVE",
"787 666 OFFCURVE",
"731 664 CURVE",
"661 667 OFFCURVE",
"615 670 OFFCURVE",
"596 673 CURVE",
"579 643 LINE",
"595 647 OFFCURVE",
"609 649 OFFCURVE",
"621 649 CURVE SMOOTH",
"641 649 OFFCURVE",
"656 644 OFFCURVE",
"668 634 CURVE",
"674 626 OFFCURVE",
"677 595 OFFCURVE",
"677 543 CURVE SMOOTH",
"677 499 OFFCURVE",
"675 441 OFFCURVE",
"670 370 CURVE",
"654 370 OFFCURVE",
"623 369 OFFCURVE",
"575 367 CURVE SMOOTH",
"563 366 OFFCURVE",
"549 366 OFFCURVE",
"534 365 CURVE SMOOTH",
"512 364 OFFCURVE",
"492 364 OFFCURVE",
"474 363 CURVE SMOOTH",
"437 362 OFFCURVE",
"410 361 OFFCURVE",
"390 361 CURVE SMOOTH",
"374 361 OFFCURVE",
"349 363 OFFCURVE",
"313 366 CURVE SMOOTH",
"300 367 OFFCURVE",
"289 368 OFFCURVE",
"280 368 CURVE SMOOTH",
"262 370 OFFCURVE",
"251 371 OFFCURVE",
"244 371 CURVE",
"254 514 OFFCURVE",
"266 602 OFFCURVE",
"278 627 CURVE",
"293 642 OFFCURVE",
"312 649 OFFCURVE",
"337 649 CURVE SMOOTH",
"343 649 OFFCURVE",
"349 649 OFFCURVE",
"355 648 CURVE",
"378 675 LINE",
"332 671 OFFCURVE",
"281 666 OFFCURVE",
"225 664 CURVE",
"155 667 OFFCURVE",
"110 670 OFFCURVE",
"90 673 CURVE",
"74 643 LINE",
"89 647 OFFCURVE",
"103 649 OFFCURVE",
"115 649 CURVE SMOOTH",
"135 649 OFFCURVE",
"150 644 OFFCURVE",
"162 634 CURVE",
"167 628 OFFCURVE",
"170 600 OFFCURVE",
"170 550 CURVE SMOOTH",
"170 491 OFFCURVE",
"166 400 OFFCURVE",
"158 279 CURVE SMOOTH",
"150 170 OFFCURVE",
"141 97 OFFCURVE",
"132 67 CURVE SMOOTH",
"127 51 OFFCURVE",
"114 39 OFFCURVE",
"92 31 CURVE SMOOTH",
"74 24 OFFCURVE",
"56 20 OFFCURVE",
"35 20 CURVE SMOOTH",
"28 20 OFFCURVE",
"23 22 OFFCURVE",
"18 23 CURVE",
"3 -7 LINE",
"174 5 LINE",
"262 2 OFFCURVE",
"315 -2 OFFCURVE",
"329 -8 CURVE"
);
}
);
};
layerId = "24D0D9E8-BA2F-4B13-8DB9-88CA40D3CAFC";
paths = (
{
closed = 1;
nodes = (
"349 25 LINE",
"309 17 OFFCURVE",
"239 29 OFFCURVE",
"237 65 CURVE SMOOTH",
"233 106 OFFCURVE",
"240 278 OFFCURVE",
"243 321 CURVE",
"347 325 OFFCURVE",
"489 326 OFFCURVE",
"668 321 CURVE",
"665 279 OFFCURVE",
"656 126 OFFCURVE",
"638 65 CURVE SMOOTH",
"626 26 OFFCURVE",
"570 14 OFFCURVE",
"526 23 CURVE",
"511 -7 LINE",
"563 0 OFFCURVE",
"626 4 OFFCURVE",
"683 4 CURVE SMOOTH",
"749 4 OFFCURVE",
"808 -1 OFFCURVE",
"835 -8 CURVE",
"855 25 LINE",
"762 21 OFFCURVE",
"741 34 OFFCURVE",
"741 117 CURVE SMOOTH",
"741 154 OFFCURVE",
"743 208 OFFCURVE",
"745 278 CURVE SMOOTH",
"750 361 OFFCURVE",
"757 438 OFFCURVE",
"765 508 CURVE SMOOTH",
"776 604 OFFCURVE",
"772 649 OFFCURVE",
"845 649 CURVE SMOOTH",
"851 649 OFFCURVE",
"857 649 OFFCURVE",
"863 648 CURVE",
"886 675 LINE",
"840 671 OFFCURVE",
"771 664 OFFCURVE",
"733 664 CURVE SMOOTH",
"700 664 OFFCURVE",
"617 670 OFFCURVE",
"598 673 CURVE",
"581 643 LINE",
"597 647 OFFCURVE",
"611 649 OFFCURVE",
"623 649 CURVE SMOOTH",
"682 649 OFFCURVE",
"679 622 OFFCURVE",
"679 543 CURVE SMOOTH",
"679 499 OFFCURVE",
"677 441 OFFCURVE",
"672 370 CURVE",
"536 365 OFFCURVE",
"405 362 OFFCURVE",
"246 371 CURVE",
"258 539 OFFCURVE",
"246 666 OFFCURVE",
"357 648 CURVE",
"380 675 LINE",
"334 671 OFFCURVE",
"277 665 OFFCURVE",
"227 664 CURVE SMOOTH",
"201 663 OFFCURVE",
"112 670 OFFCURVE",
"92 673 CURVE",
"76 643 LINE",
"170 657 OFFCURVE",
"172 641 OFFCURVE",
"172 550 CURVE SMOOTH",
"172 491 OFFCURVE",
"168 400 OFFCURVE",
"160 279 CURVE SMOOTH",
"152 170 OFFCURVE",
"143 97 OFFCURVE",
"134 67 CURVE SMOOTH",
"123 32 OFFCURVE",
"59 16 OFFCURVE",
"20 23 CURVE",
"5 -7 LINE",
"57 1 OFFCURVE",
"119 4 OFFCURVE",
"176 4 CURVE SMOOTH",
"238 4 OFFCURVE",
"295 -1 OFFCURVE",
"331 -8 CURVE"
);
}
);
width = 891;
}
);
leftKerningGroup = H;
note = H;
rightKerningGroup = H;
unicode = 0048;
},
{
color = 9;
glyphname = I;
lastChange = "2021-11-16 04:38:02 +0000";
layers = (
{
background = {
paths = (
{
closed = 1;
nodes = (
"348 25 LINE",
"339 23 OFFCURVE",
"330 23 OFFCURVE",
"321 23 CURVE SMOOTH",
"307 23 OFFCURVE",
"292 25 OFFCURVE",
"277 29 CURVE SMOOTH",
"250 37 OFFCURVE",
"238 48 OFFCURVE",
"237 65 CURVE SMOOTH",
"236 75 OFFCURVE",
"235 92 OFFCURVE",
"235 114 CURVE SMOOTH",
"235 153 OFFCURVE",
"237 209 OFFCURVE",
"240 283 CURVE SMOOTH",
"251 486 OFFCURVE",
"264 596 OFFCURVE",
"280 624 CURVE",
"293 639 OFFCURVE",
"313 647 OFFCURVE",
"339 647 CURVE SMOOTH",
"345 647 OFFCURVE",
"350 647 OFFCURVE",
"356 646 CURVE",
"380 675 LINE",
"334 671 OFFCURVE",
"283 666 OFFCURVE",
"227 664 CURVE",
"156 667 OFFCURVE",
"111 670 OFFCURVE",
"92 673 CURVE",
"75 641 LINE",
"91 645 OFFCURVE",
"105 647 OFFCURVE",
"117 647 CURVE SMOOTH",
"137 647 OFFCURVE",
"152 642 OFFCURVE",
"163 632 CURVE",
"168 626 OFFCURVE",
"171 598 OFFCURVE",
"171 549 CURVE SMOOTH",
"171 490 OFFCURVE",
"167 401 OFFCURVE",
"159 284 CURVE SMOOTH",
"151 171 OFFCURVE",
"142 98 OFFCURVE",
"132 65 CURVE SMOOTH",
"123 35 OFFCURVE",
"93 20 OFFCURVE",
"40 20 CURVE SMOOTH",
"32 20 OFFCURVE",
"26 21 OFFCURVE",
"20 23 CURVE",
"5 -7 LINE",
"176 5 LINE",
"265 2 OFFCURVE",
"318 -3 OFFCURVE",
"330 -8 CURVE"
);
}
);
};
layerId = "24D0D9E8-BA2F-4B13-8DB9-88CA40D3CAFC";
paths = (
{
closed = 1;
nodes = (
"348 25 LINE",
"309 16 OFFCURVE",
"239 29 OFFCURVE",
"237 65 CURVE SMOOTH",
"233 104 OFFCURVE",
"237 207 OFFCURVE",
"240 283 CURVE SMOOTH",
"248 424 OFFCURVE",
"256 520 OFFCURVE",
"266 575 CURVE SMOOTH",
"276 629 OFFCURVE",
"294 656 OFFCURVE",
"356 646 CURVE",
"380 675 LINE",
"334 671 OFFCURVE",
"273 664 OFFCURVE",
"227 664 CURVE SMOOTH",
"175 664 OFFCURVE",
"111 670 OFFCURVE",
"92 673 CURVE",
"75 641 LINE",
"150 654 OFFCURVE",
"167 645 OFFCURVE",
"170 587 CURVE SMOOTH",
"173 535 OFFCURVE",
"166 381 OFFCURVE",
"159 284 CURVE SMOOTH",
"151 171 OFFCURVE",
"142 98 OFFCURVE",
"132 65 CURVE SMOOTH",
"120 26 OFFCURVE",
"52 13 OFFCURVE",
"20 23 CURVE",
"5 -7 LINE",
"62 -2 OFFCURVE",
"119 5 OFFCURVE",
"176 5 CURVE SMOOTH",
"250 5 OFFCURVE",
"318 -3 OFFCURVE",
"330 -8 CURVE"
);
}
);
width = 385;
}
);
leftKerningGroup = H;
leftMetricsKey = H;
note = I;
rightKerningGroup = H;
rightMetricsKey = H;
unicode = 0049;
},
{
color = 9;
glyphname = J;
lastChange = "2021-11-16 04:38:20 +0000";
layers = (
{
background = {
paths = (
{
closed = 1;
nodes = (
"184 -20 OFFCURVE",
"222 -5 OFFCURVE",
"247 24 CURVE SMOOTH",
"270 51 OFFCURVE",
"286 98 OFFCURVE",
"294 164 CURVE",
"294 170 OFFCURVE",
"294 176 OFFCURVE",
"295 182 CURVE",
"301 309 LINE SMOOTH",
"302 377 OFFCURVE",
"305 429 OFFCURVE",
"308 466 CURVE SMOOTH",
"314 555 OFFCURVE",
"324 610 OFFCURVE",
"335 627 CURVE",
"348 642 OFFCURVE",
"368 649 OFFCURVE",
"393 649 CURVE SMOOTH",
"399 649 OFFCURVE",
"405 649 OFFCURVE",
"411 648 CURVE",
"435 675 LINE",
"390 671 OFFCURVE",
"338 666 OFFCURVE",
"282 664 CURVE",
"212 667 OFFCURVE",
"166 670 OFFCURVE",
"147 673 CURVE",
"130 643 LINE",
"145 647 OFFCURVE",
"159 649 OFFCURVE",
"172 649 CURVE SMOOTH",
"191 649 OFFCURVE",
"207 644 OFFCURVE",
"219 634 CURVE",
"224 628 OFFCURVE",
"226 601 OFFCURVE",
"226 554 CURVE SMOOTH",
"226 496 OFFCURVE",
"222 405 OFFCURVE",
"214 284 CURVE SMOOTH",
"209 213 OFFCURVE",
"206 167 OFFCURVE",
"203 147 CURVE SMOOTH",
"193 58 OFFCURVE",
"159 14 OFFCURVE",
"100 14 CURVE SMOOTH",
"66 14 OFFCURVE",
"47 31 OFFCURVE",
"42 68 CURVE SMOOTH",
"40 78 OFFCURVE",
"39 88 OFFCURVE",
"39 98 CURVE SMOOTH",
"39 115 OFFCURVE",
"42 133 OFFCURVE",
"46 152 CURVE",
"25 158 LINE",
"11 68 OFFCURVE",
"-4 20 OFFCURVE",
"-12 21 CURVE",
"-17 18 LINE",
"-19 9 LINE",
"15 -4 OFFCURVE",
"46 -13 OFFCURVE",
"72 -16 CURVE SMOOTH",
"94 -19 OFFCURVE",
"115 -20 OFFCURVE",
"132 -20 CURVE SMOOTH"
);
}
);
};
layerId = "24D0D9E8-BA2F-4B13-8DB9-88CA40D3CAFC";
paths = (
{
closed = 1;
nodes = (
"292 -20 OFFCURVE",
"292 110 OFFCURVE",
"301 309 CURVE SMOOTH",
"304 377 OFFCURVE",
"305 429 OFFCURVE",
"308 466 CURVE SMOOTH",
"316 587 OFFCURVE",
"313 657 OFFCURVE",
"411 648 CURVE",
"435 675 LINE",
"390 671 OFFCURVE",
"335 664 OFFCURVE",
"282 664 CURVE SMOOTH",
"212 664 OFFCURVE",
"166 670 OFFCURVE",
"147 673 CURVE",
"130 643 LINE",
"219 656 OFFCURVE",
"226 644 OFFCURVE",
"226 554 CURVE SMOOTH",
"226 496 OFFCURVE",
"222 405 OFFCURVE",
"214 284 CURVE SMOOTH",
"203 128 OFFCURVE",
"202 14 OFFCURVE",
"100 14 CURVE SMOOTH",
"40 14 OFFCURVE",
"30 74 OFFCURVE",
"46 152 CURVE",
"25 158 LINE",
"12 73 OFFCURVE",
"1 26 OFFCURVE",
"-14 25 CURVE",
"-19 9 LINE",
"33 -11 OFFCURVE",
"77 -20 OFFCURVE",
"132 -20 CURVE SMOOTH"
);
}
);
width = 407;
}
);
leftKerningGroup = J;
note = J;
rightKerningGroup = J;
unicode = 004A;
},
{
color = 9;
glyphname = K;
lastChange = "2021-11-16 05:14:02 +0000";
layers = (
{
background = {
paths = (
{
closed = 1;
nodes = (
"669 -9 OFFCURVE",
"707 -4 OFFCURVE",
"753 5 CURVE",
"769 35 LINE",
"759 32 OFFCURVE",
"755 32 OFFCURVE",
"747 32 CURVE SMOOTH",
"708 32 OFFCURVE",
"665 49 OFFCURVE",
"619 82 CURVE SMOOTH",
"565 120 OFFCURVE",
"514 168 OFFCURVE",
"467 227 CURVE SMOOTH",
"400 311 OFFCURVE",
"362 359 OFFCURVE",
"351 372 CURVE",
"503 517 OFFCURVE",
"602 601 OFFCURVE",
"651 627 CURVE SMOOTH",
"676 640 OFFCURVE",
"698 646 OFFCURVE",
"718 646 CURVE",
"734 669 LINE",
"719 667 OFFCURVE",
"704 666 OFFCURVE",
"690 665 CURVE SMOOTH",
"651 662 OFFCURVE",
"616 660 OFFCURVE",
"585 658 CURVE",
"508 663 OFFCURVE",
"467 667 OFFCURVE",
"461 668 CURVE",
"437 642 LINE",
"448 643 OFFCURVE",
"460 645 OFFCURVE",
"473 645 CURVE SMOOTH",
"510 645 OFFCURVE",
"530 634 OFFCURVE",
"530 612 CURVE SMOOTH",
"530 590 OFFCURVE",
"447 505 OFFCURVE",
"276 351 CURVE",
"275 345 LINE",
"313 296 OFFCURVE",
"346 253 OFFCURVE",
"374 215 CURVE SMOOTH",
"480 70 LINE SMOOTH",
"519 17 OFFCURVE",
"573 -9 OFFCURVE",
"639 -9 CURVE SMOOTH"
);
},
{
closed = 1;
nodes = (
"347 25 LINE",
"338 23 OFFCURVE",
"329 23 OFFCURVE",
"320 23 CURVE SMOOTH",
"306 23 OFFCURVE",
"291 25 OFFCURVE",
"276 29 CURVE SMOOTH",
"249 37 OFFCURVE",
"237 48 OFFCURVE",
"236 65 CURVE SMOOTH",
"234 81 OFFCURVE",
"233 104 OFFCURVE",
"233 132 CURVE SMOOTH",
"233 167 OFFCURVE",
"234 211 OFFCURVE",
"237 263 CURVE SMOOTH",
"245 378 LINE SMOOTH",
"255 523 OFFCURVE",
"265 603 OFFCURVE",
"279 627 CURVE",
"292 642 OFFCURVE",
"312 649 OFFCURVE",
"337 649 CURVE SMOOTH",
"343 649 OFFCURVE",
"349 649 OFFCURVE",
"355 648 CURVE",
"379 675 LINE",
"334 671 OFFCURVE",
"282 666 OFFCURVE",
"226 664 CURVE",
"156 667 OFFCURVE",
"110 670 OFFCURVE",
"91 673 CURVE",
"74 643 LINE",
"90 647 OFFCURVE",
"104 649 OFFCURVE",
"116 649 CURVE SMOOTH",
"136 649 OFFCURVE",
"151 644 OFFCURVE",
"163 634 CURVE",
"169 626 OFFCURVE",
"172 597 OFFCURVE",
"172 548 CURVE SMOOTH",
"172 509 OFFCURVE",
"170 457 OFFCURVE",
"166 393 CURVE SMOOTH",
"158 284 LINE SMOOTH",
"150 176 OFFCURVE",
"141 101 OFFCURVE",
"132 67 CURVE",
"126 51 OFFCURVE",
"113 39 OFFCURVE",
"92 31 CURVE SMOOTH",
"75 24 OFFCURVE",
"56 20 OFFCURVE",
"36 20 CURVE SMOOTH",
"29 20 OFFCURVE",
"24 21 OFFCURVE",
"18 23 CURVE",
"5 -7 LINE",
"175 5 LINE",
"264 2 OFFCURVE",
"317 -3 OFFCURVE",
"329 -8 CURVE"
);
}
);
};
layerId = "24D0D9E8-BA2F-4B13-8DB9-88CA40D3CAFC";
paths = (
{
closed = 1;
nodes = (
"681 -19 OFFCURVE",
"719 -14 OFFCURVE",
"764 -4 CURVE",
"778 22 LINE",
"742 13 OFFCURVE",
"681 36 OFFCURVE",
"631 72 CURVE SMOOTH",
"505 161 OFFCURVE",
"484 215 OFFCURVE",
"351 372 CURVE",
"490 504 OFFCURVE",
"634 646 OFFCURVE",
"718 646 CURVE",
"734 669 LINE",
"713 666 OFFCURVE",
"609 658 OFFCURVE",
"585 658 CURVE SMOOTH",
"546 658 OFFCURVE",
"467 667 OFFCURVE",
"461 668 CURVE",
"437 642 LINE",
"448 643 OFFCURVE",
"460 645 OFFCURVE",
"473 645 CURVE SMOOTH",
"510 645 OFFCURVE",
"530 634 OFFCURVE",
"530 612 CURVE SMOOTH",
"530 590 OFFCURVE",
"447 505 OFFCURVE",
"276 351 CURVE",
"275 345 LINE",
"307 304 OFFCURVE",
"312 297 OFFCURVE",
"491 60 CURVE SMOOTH",
"531 7 OFFCURVE",
"585 -19 OFFCURVE",
"651 -19 CURVE SMOOTH"
);
},
{
closed = 1;
nodes = (
"347 25 LINE",
"313 17 OFFCURVE",
"238 27 OFFCURVE",
"236 65 CURVE SMOOTH",
"231 102 OFFCURVE",
"233 207 OFFCURVE",
"237 263 CURVE SMOOTH",
"254 514 OFFCURVE",
"262 598 OFFCURVE",
"279 627 CURVE",
"296 646 OFFCURVE",
"328 652 OFFCURVE",
"355 648 CURVE",
"379 675 LINE",
"334 671 OFFCURVE",
"282 664 OFFCURVE",
"226 664 CURVE SMOOTH",
"163 664 OFFCURVE",
"110 670 OFFCURVE",
"91 673 CURVE",
"74 643 LINE",
"90 647 OFFCURVE",
"104 649 OFFCURVE",
"116 649 CURVE SMOOTH",
"174 649 OFFCURVE",
"172 623 OFFCURVE",
"172 548 CURVE SMOOTH",
"172 488 OFFCURVE",
"169 428 OFFCURVE",
"158 284 CURVE SMOOTH",
"150 176 OFFCURVE",
"141 101 OFFCURVE",
"132 67 CURVE SMOOTH",
"119 31 OFFCURVE",
"53 11 OFFCURVE",
"18 23 CURVE",
"5 -7 LINE",
"62 -3 OFFCURVE",
"115 5 OFFCURVE",
"175 5 CURVE SMOOTH",
"260 5 OFFCURVE",
"317 -3 OFFCURVE",
"329 -8 CURVE"
);
}
);
width = 758;
}
);
leftKerningGroup = H;
leftMetricsKey = H;
note = K;
rightKerningGroup = K;
unicode = 004B;
},
{
color = 9;
glyphname = L;
lastChange = "2021-11-16 05:13:07 +0000";
layers = (
{
background = {
paths = (
{
closed = 1;
nodes = (
"504 -11 OFFCURVE",
"516 -7 OFFCURVE",
"523 -1 CURVE SMOOTH",
"530 6 OFFCURVE",
"535 18 OFFCURVE",
"540 36 CURVE SMOOTH",
"549 78 OFFCURVE",
"561 112 OFFCURVE",
"575 139 CURVE",
"553 147 LINE",
"552 136 OFFCURVE",
"543 118 OFFCURVE",
"527 96 CURVE SMOOTH",
"512 74 OFFCURVE",
"500 60 OFFCURVE",
"489 53 CURVE SMOOTH",
"468 39 OFFCURVE",
"425 31 OFFCURVE",
"360 31 CURVE SMOOTH",
"342 31 OFFCURVE",
"325 32 OFFCURVE",
"310 34 CURVE SMOOTH",
"280 38 OFFCURVE",
"260 43 OFFCURVE",
"250 49 CURVE SMOOTH",
"242 53 OFFCURVE",
"237 62 OFFCURVE",
"235 75 CURVE SMOOTH",
"233 96 OFFCURVE",
"232 118 OFFCURVE",
"232 140 CURVE SMOOTH",
"232 153 OFFCURVE",
"232 165 OFFCURVE",
"233 178 CURVE SMOOTH",
"233 196 OFFCURVE",
"234 213 OFFCURVE",
"235 231 CURVE SMOOTH",
"238 283 LINE SMOOTH",
"248 480 OFFCURVE",
"262 597 OFFCURVE",
"278 627 CURVE",
"291 642 OFFCURVE",
"311 649 OFFCURVE",
"336 649 CURVE SMOOTH",
"342 649 OFFCURVE",
"348 649 OFFCURVE",
"354 648 CURVE",
"377 675 LINE",
"333 671 OFFCURVE",
"281 666 OFFCURVE",
"225 664 CURVE",
"155 667 OFFCURVE",
"109 670 OFFCURVE",
"89 673 CURVE",
"73 643 LINE",
"88 647 OFFCURVE",
"102 649 OFFCURVE",
"114 649 CURVE SMOOTH",
"134 649 OFFCURVE",
"150 644 OFFCURVE",
"162 634 CURVE",
"167 628 OFFCURVE",
"169 601 OFFCURVE",
"169 554 CURVE SMOOTH",
"169 496 OFFCURVE",
"165 405 OFFCURVE",
"157 284 CURVE SMOOTH",
"149 166 OFFCURVE",
"141 93 OFFCURVE",
"133 67 CURVE SMOOTH",
"127 51 OFFCURVE",
"114 39 OFFCURVE",
"93 31 CURVE SMOOTH",
"76 24 OFFCURVE",
"57 20 OFFCURVE",
"37 20 CURVE SMOOTH",
"30 20 OFFCURVE",
"25 22 OFFCURVE",
"20 23 CURVE",
"5 -8 LINE",
"93 0 OFFCURVE",
"145 3 OFFCURVE",
"162 4 CURVE SMOOTH",
"173 5 OFFCURVE",
"187 5 OFFCURVE",
"204 5 CURVE SMOOTH",
"236 5 OFFCURVE",
"325 0 OFFCURVE",
"469 -10 CURVE SMOOTH",
"476 -11 OFFCURVE",
"482 -11 OFFCURVE",
"487 -11 CURVE SMOOTH"
);
}
);
};
layerId = "24D0D9E8-BA2F-4B13-8DB9-88CA40D3CAFC";
paths = (
{
closed = 1;
nodes = (
"523 -11 OFFCURVE",
"530 2 OFFCURVE",
"540 36 CURVE SMOOTH",
"549 78 OFFCURVE",
"561 112 OFFCURVE",
"575 139 CURVE",
"553 147 LINE",
"550 136 OFFCURVE",
"543 118 OFFCURVE",
"522 88 CURVE SMOOTH",
"486 36 OFFCURVE",
"443 31 OFFCURVE",
"360 31 CURVE SMOOTH",
"292 31 OFFCURVE",
"241 38 OFFCURVE",
"235 75 CURVE SMOOTH",
"230 130 OFFCURVE",
"234 203 OFFCURVE",
"238 283 CURVE SMOOTH",
"242 351 OFFCURVE",
"249 497 OFFCURVE",
"260 565 CURVE SMOOTH",
"270 624 OFFCURVE",
"298 657 OFFCURVE",
"354 648 CURVE",
"377 675 LINE",
"333 671 OFFCURVE",
"267 664 OFFCURVE",
"225 664 CURVE SMOOTH",
"188 664 OFFCURVE",
"109 670 OFFCURVE",
"89 673 CURVE",
"73 643 LINE",
"168 656 OFFCURVE",
"169 644 OFFCURVE",
"169 554 CURVE SMOOTH",
"169 496 OFFCURVE",
"165 405 OFFCURVE",
"157 284 CURVE SMOOTH",
"149 166 OFFCURVE",
"141 93 OFFCURVE",
"133 67 CURVE SMOOTH",
"121 34 OFFCURVE",
"69 15 OFFCURVE",
"20 22 CURVE",
"5 -8 LINE",
"78 -1 OFFCURVE",
"164 5 OFFCURVE",
"204 5 CURVE SMOOTH",
"248 5 OFFCURVE",
"475 -11 OFFCURVE",
"487 -11 CURVE SMOOTH"
);
}
);
width = 577;
}
);
leftKerningGroup = H;
leftMetricsKey = H;
note = L;
rightKerningGroup = L;
unicode = 004C;
},
{
color = 9;
glyphname = M;
lastChange = "2021-11-16 04:39:07 +0000";
layers = (
{
background = {
paths = (
{
closed = 1;
nodes = (
"431 -30 LINE",
"443 17 OFFCURVE",
"478 104 OFFCURVE",
"538 233 CURVE SMOOTH",
"603 370 OFFCURVE",
"657 473 OFFCURVE",
"701 543 CURVE",
"694 545 LINE",
"698 444 OFFCURVE",
"700 366 OFFCURVE",
"700 308 CURVE SMOOTH",
"700 297 OFFCURVE",
"700 286 OFFCURVE",
"700 276 CURVE SMOOTH",
"700 234 LINE SMOOTH",
"700 145 OFFCURVE",
"697 87 OFFCURVE",
"693 65 CURVE SMOOTH",
"689 50 OFFCURVE",
"677 38 OFFCURVE",
"656 30 CURVE SMOOTH",
"640 23 OFFCURVE",
"622 20 OFFCURVE",
"600 20 CURVE SMOOTH",
"591 20 OFFCURVE",
"586 20 OFFCURVE",
"582 22 CURVE",
"567 -7 LINE",
"665 0 OFFCURVE",
"720 4 OFFCURVE",
"732 4 CURVE SMOOTH",
"816 2 OFFCURVE",
"870 -2 OFFCURVE",
"883 -8 CURVE",
"900 25 LINE",
"890 24 OFFCURVE",
"881 23 OFFCURVE",
"873 23 CURVE SMOOTH",
"858 23 OFFCURVE",
"844 25 OFFCURVE",
"832 29 CURVE SMOOTH",
"807 36 OFFCURVE",
"794 47 OFFCURVE",
"791 63 CURVE SMOOTH",
"786 92 OFFCURVE",
"782 161 OFFCURVE",
"779 275 CURVE SMOOTH",
"778 307 OFFCURVE",
"778 338 OFFCURVE",
"778 367 CURVE SMOOTH",
"778 430 OFFCURVE",
"780 486 OFFCURVE",
"783 535 CURVE SMOOTH",
"786 575 OFFCURVE",
"790 600 OFFCURVE",
"794 608 CURVE",
"805 623 OFFCURVE",
"824 630 OFFCURVE",
"849 630 CURVE SMOOTH",
"854 630 OFFCURVE",
"860 630 OFFCURVE",
"866 629 CURVE",
"887 656 LINE",
"824 648 OFFCURVE",
"775 644 OFFCURVE",
"743 643 CURVE SMOOTH",
"741 643 OFFCURVE",
"733 643 OFFCURVE",
"719 644 CURVE SMOOTH",
"705 645 OFFCURVE",
"694 645 OFFCURVE",
"687 644 CURVE SMOOTH",
"677 644 OFFCURVE",
"666 642 OFFCURVE",
"665 636 CURVE SMOOTH",
"664 611 OFFCURVE",
"629 522 OFFCURVE",
"563 373 CURVE SMOOTH",
"503 236 OFFCURVE",
"460 147 OFFCURVE",
"436 103 CURVE",
"433 99 OFFCURVE",
"430 96 OFFCURVE",
"431 96 CURVE",
"431 96 OFFCURVE",
"429 98 OFFCURVE",
"427 105 CURVE SMOOTH",
"405 172 OFFCURVE",
"390 224 OFFCURVE",
"380 259 CURVE SMOOTH",
"344 373 OFFCURVE",
"319 471 OFFCURVE",
"303 552 CURVE SMOOTH",
"294 600 OFFCURVE",
"290 629 OFFCURVE",
"292 644 CURVE",
"250 648 OFFCURVE",
"219 649 OFFCURVE",
"196 648 CURVE",
"154 650 OFFCURVE",
"127 652 OFFCURVE",
"118 653 CURVE",
"103 625 LINE",
"111 626 OFFCURVE",
"119 628 OFFCURVE",
"132 628 CURVE SMOOTH",
"163 628 OFFCURVE",
"180 616 OFFCURVE",
"182 594 CURVE",
"142 337 LINE SMOOTH",
"128 240 OFFCURVE",
"108 146 OFFCURVE",
"80 56 CURVE SMOOTH",
"73 32 OFFCURVE",
"49 20 OFFCURVE",
"8 20 CURVE",
"-10 -11 LINE",
"3 -5 OFFCURVE",
"45 0 OFFCURVE",
"116 5 CURVE",
"194 -1 OFFCURVE",
"235 -4 OFFCURVE",
"241 -6 CURVE",
"257 24 LINE",
"240 24 LINE",
"236 23 OFFCURVE",
"233 23 OFFCURVE",
"229 23 CURVE SMOOTH",
"188 23 OFFCURVE",
"166 36 OFFCURVE",
"161 60 CURVE SMOOTH",
"159 68 OFFCURVE",
"159 80 OFFCURVE",
"159 94 CURVE SMOOTH",
"159 105 OFFCURVE",
"159 119 OFFCURVE",
"160 134 CURVE SMOOTH",
"163 176 OFFCURVE",
"171 244 OFFCURVE",
"185 339 CURVE SMOOTH",
"196 412 OFFCURVE",
"208 485 OFFCURVE",
"221 558 CURVE",
"213 557 LINE",
"253 427 OFFCURVE",
"282 327 OFFCURVE",
"301 258 CURVE SMOOTH",
"318 199 LINE SMOOTH",
"327 167 OFFCURVE",
"334 139 OFFCURVE",
"340 116 CURVE SMOOTH",
"348 86 OFFCURVE",
"354 64 OFFCURVE",
"357 49 CURVE SMOOTH",
"360 37 OFFCURVE",
"370 22 OFFCURVE",
"384 5 CURVE SMOOTH",
"406 -21 OFFCURVE",
"415 -33 OFFCURVE",
"415 -38 CURVE"
);
}
);
};
layerId = "24D0D9E8-BA2F-4B13-8DB9-88CA40D3CAFC";
paths = (
{
closed = 1;
nodes = (
"807 26 OFFCURVE",
"801 62 CURVE SMOOTH",
"786 159 OFFCURVE",
"786 443 OFFCURVE",
"793 558 CURVE SMOOTH",
"796 599 OFFCURVE",
"797 623 OFFCURVE",
"808 638 CURVE SMOOTH",
"818 652 OFFCURVE",
"850 659 OFFCURVE",
"876 654 CURVE",
"897 683 LINE",
"806 668 OFFCURVE",
"743 669 OFFCURVE",
"676 668 CURVE",
"674 636 OFFCURVE",
"639 544 OFFCURVE",
"573 391 CURVE SMOOTH",
"517 260 OFFCURVE",
"476 171 OFFCURVE",
"440 98 CURVE",
"415 184 OFFCURVE",
"400 237 OFFCURVE",
"390 273 CURVE SMOOTH",
"354 391 OFFCURVE",
"329 492 OFFCURVE",
"313 575 CURVE SMOOTH",
"304 625 OFFCURVE",
"300 654 OFFCURVE",
"302 670 CURVE",
"239 669 OFFCURVE",
"171 672 OFFCURVE",
"128 680 CURVE",
"113 650 LINE",
"149 654 OFFCURVE",
"189 657 OFFCURVE",
"192 619 CURVE",
"152 354 LINE SMOOTH",
"137 254 OFFCURVE",
"118 157 OFFCURVE",
"90 55 CURVE SMOOTH",
"83 30 OFFCURVE",
"59 18 OFFCURVE",
"18 18 CURVE",
"0 -13 LINE",
"13 -7 OFFCURVE",
"76 3 OFFCURVE",
"126 3 CURVE SMOOTH",
"168 3 OFFCURVE",
"245 -6 OFFCURVE",
"251 -8 CURVE",
"267 22 LINE",
"173 21 OFFCURVE",
"163 38 OFFCURVE",
"170 144 CURVE SMOOTH",
"173 188 OFFCURVE",
"181 258 OFFCURVE",
"195 356 CURVE SMOOTH",
"205 425 OFFCURVE",
"216 495 OFFCURVE",
"228 564 CURVE",
"265 438 OFFCURVE",
"292 340 OFFCURVE",
"311 272 CURVE SMOOTH",
"326 219 OFFCURVE",
"363 68 OFFCURVE",
"367 48 CURVE SMOOTH",
"370 36 OFFCURVE",
"380 20 OFFCURVE",
"394 3 CURVE SMOOTH",
"401 -6 OFFCURVE",
"425 -36 OFFCURVE",
"425 -42 CURVE",
"441 -33 LINE",
"453 15 OFFCURVE",
"488 114 OFFCURVE",
"583 321 CURVE SMOOTH",
"610 381 OFFCURVE",
"660 484 OFFCURVE",
"704 572 CURVE",
"710 414 OFFCURVE",
"715 140 OFFCURVE",
"703 65 CURVE SMOOTH",
"697 29 OFFCURVE",
"637 13 OFFCURVE",
"592 20 CURVE",
"577 -9 LINE",
"603 -6 OFFCURVE",
"691 2 OFFCURVE",
"742 2 CURVE SMOOTH",
"819 2 OFFCURVE",
"880 -4 OFFCURVE",
"894 -7 CURVE",
"910 23 LINE",
"864 18 OFFCURVE"
);
}
);
width = 920;
}
);
leftKerningGroup = M;
leftMetricsKey = "=H-5";
note = M;
rightKerningGroup = M;
rightMetricsKey = "=H+5";
unicode = 004D;
},
{
color = 9;
glyphname = N;
lastChange = "2021-11-16 04:39:26 +0000";
layers = (
{
background = {
paths = (
{
closed = 1;
nodes = (
"675 -56 LINE",
"672 -39 OFFCURVE",
"671 -16 OFFCURVE",
"671 14 CURVE SMOOTH",
"671 65 OFFCURVE",
"675 135 OFFCURVE",
"681 225 CURVE SMOOTH",
"696 448 OFFCURVE",
"711 574 OFFCURVE",
"725 619 CURVE SMOOTH",
"732 644 OFFCURVE",
"756 656 OFFCURVE",
"799 656 CURVE",
"814 680 LINE",
"802 674 OFFCURVE",
"759 669 OFFCURVE",
"684 664 CURVE",
"608 668 OFFCURVE",
"567 673 OFFCURVE",
"559 674 CURVE",
"545 648 LINE",
"562 651 OFFCURVE",
"576 652 OFFCURVE",
"588 652 CURVE SMOOTH",
"621 652 OFFCURVE",
"639 640 OFFCURVE",
"642 617 CURVE SMOOTH",
"644 606 OFFCURVE",
"645 587 OFFCURVE",
"645 561 CURVE SMOOTH",
"645 518 OFFCURVE",
"643 456 OFFCURVE",
"637 374 CURVE SMOOTH",
"630 276 OFFCURVE",
"622 198 OFFCURVE",
"612 140 CURVE",
"567 186 OFFCURVE",
"527 228 OFFCURVE",
"490 266 CURVE SMOOTH",
"415 344 LINE SMOOTH",
"380 383 OFFCURVE",
"335 436 OFFCURVE",
"282 504 CURVE SMOOTH",
"228 573 OFFCURVE",
"187 629 OFFCURVE",
"159 671 CURVE",
"156 673 LINE",
"127 671 OFFCURVE",
"101 670 OFFCURVE",
"79 670 CURVE SMOOTH",
"60 670 OFFCURVE",
"43 671 OFFCURVE",
"29 673 CURVE",
"13 643 LINE",
"28 647 OFFCURVE",
"42 649 OFFCURVE",
"55 649 CURVE SMOOTH",
"74 649 OFFCURVE",
"90 644 OFFCURVE",
"102 634 CURVE",
"108 627 OFFCURVE",
"112 598 OFFCURVE",
"112 547 CURVE SMOOTH",
"112 501 OFFCURVE",
"109 436 OFFCURVE",
"103 354 CURVE SMOOTH",
"101 328 OFFCURVE",
"89 229 OFFCURVE",
"66 57 CURVE SMOOTH",
"65 49 OFFCURVE",
"59 41 OFFCURVE",
"48 33 CURVE SMOOTH",
"34 25 OFFCURVE",
"16 21 OFFCURVE",
"-8 21 CURVE",
"-25 -9 LINE",
"1 -2 OFFCURVE",
"39 2 OFFCURVE",
"88 2 CURVE SMOOTH",
"139 2 OFFCURVE",
"187 -1 OFFCURVE",
"233 -7 CURVE",
"253 27 LINE",
"245 24 OFFCURVE",
"233 21 OFFCURVE",
"219 21 CURVE SMOOTH",
"181 21 OFFCURVE",
"159 34 OFFCURVE",
"151 60 CURVE SMOOTH",
"147 74 OFFCURVE",
"145 101 OFFCURVE",
"145 141 CURVE SMOOTH",
"145 190 OFFCURVE",
"148 258 OFFCURVE",
"154 349 CURVE SMOOTH",
"159 410 OFFCURVE",
"165 460 OFFCURVE",
"172 501 CURVE",
"250 410 OFFCURVE",
"311 339 OFFCURVE",
"356 290 CURVE SMOOTH",
"518 110 LINE SMOOTH",
"603 16 OFFCURVE",
"650 -44 OFFCURVE",
"659 -66 CURVE"
);
}
);
};
layerId = "24D0D9E8-BA2F-4B13-8DB9-88CA40D3CAFC";
paths = (
{
closed = 1;
nodes = (
"705 -56 LINE",
"702 -39 OFFCURVE",
"701 -16 OFFCURVE",
"701 14 CURVE SMOOTH",
"701 129 OFFCURVE",
"729 537 OFFCURVE",
"755 619 CURVE SMOOTH",
"762 644 OFFCURVE",
"786 656 OFFCURVE",
"829 656 CURVE",
"844 680 LINE",
"832 674 OFFCURVE",
"789 669 OFFCURVE",
"714 664 CURVE",
"638 668 OFFCURVE",
"597 673 OFFCURVE",
"589 674 CURVE",
"575 648 LINE",
"662 663 OFFCURVE",
"675 646 OFFCURVE",
"675 561 CURVE SMOOTH",
"675 456 OFFCURVE",
"655 207 OFFCURVE",
"642 140 CURVE",
"449 337 OFFCURVE",
"359 427 OFFCURVE",
"186 673 CURVE",
"148 670 OFFCURVE",
"90 669 OFFCURVE",
"59 673 CURVE",
"43 643 LINE",
"136 657 OFFCURVE",
"142 640 OFFCURVE",
"142 547 CURVE SMOOTH",
"142 424 OFFCURVE",
"119 182 OFFCURVE",
"97 65 CURVE SMOOTH",
"91 32 OFFCURVE",
"59 21 OFFCURVE",
"22 21 CURVE",
"5 -9 LINE",
"31 -2 OFFCURVE",
"69 2 OFFCURVE",
"135 2 CURVE SMOOTH",
"188 2 OFFCURVE",
"217 -1 OFFCURVE",
"263 -7 CURVE",
"281 23 LINE",
"251 18 OFFCURVE",
"194 19 OFFCURVE",
"181 60 CURVE SMOOTH",
"164 120 OFFCURVE",
"186 407 OFFCURVE",
"202 501 CURVE",
"309 376 OFFCURVE",
"354 325 OFFCURVE",
"548 110 CURVE SMOOTH",
"633 16 OFFCURVE",
"680 -44 OFFCURVE",
"689 -66 CURVE"
);
}
);
width = 844;
}
);
leftKerningGroup = H;
leftMetricsKey = H;
note = N;
rightKerningGroup = N;
rightMetricsKey = "=H-5";
unicode = 004E;
},
{
color = 3;
glyphname = Eng;
lastChange = "2021-11-16 04:39:48 +0000";
layers = (
{
layerId = "24D0D9E8-BA2F-4B13-8DB9-88CA40D3CAFC";
paths = (
{
closed = 1;
nodes = (
"584 -402 OFFCURVE",
"633 -327 OFFCURVE",
"642 -194 CURVE SMOOTH",
"650 -51 LINE SMOOTH",
"659 169 OFFCURVE",
"672 466 OFFCURVE",
"714 618 CURVE SMOOTH",
"721 642 OFFCURVE",
"746 654 OFFCURVE",
"788 654 CURVE",
"805 679 LINE",
"795 673 OFFCURVE",
"751 666 OFFCURVE",
"675 662 CURVE",
"600 666 OFFCURVE",
"560 671 OFFCURVE",
"551 672 CURVE",
"535 646 LINE",
"553 649 LINE SMOOTH",
"563 650 OFFCURVE",
"571 651 OFFCURVE",
"578 651 CURVE SMOOTH",
"617 651 OFFCURVE",
"635 633 OFFCURVE",
"635 599 CURVE SMOOTH",
"635 533 OFFCURVE",
"619 256 OFFCURVE",
"602 144 CURVE",
"532 214 LINE SMOOTH",
"404 343 OFFCURVE",
"310 438 OFFCURVE",
"155 669 CURVE",
"151 671 LINE",
"125 668 OFFCURVE",
"103 668 OFFCURVE",
"82 668 CURVE SMOOTH",
"60 668 OFFCURVE",
"40 668 OFFCURVE",
"26 672 CURVE",
"11 641 LINE",
"26 646 OFFCURVE",
"39 647 OFFCURVE",
"51 647 CURVE SMOOTH",
"86 647 OFFCURVE",
"101 638 OFFCURVE",
"104 613 CURVE SMOOTH",
"106 597 OFFCURVE",
"108 574 OFFCURVE",
"108 544 CURVE SMOOTH",
"108 498 OFFCURVE",
"105 435 OFFCURVE",
"98 355 CURVE SMOOTH",
"97 342 OFFCURVE",
"93 312 OFFCURVE",
"86 263 CURVE SMOOTH",
"80 214 OFFCURVE",
"71 147 OFFCURVE",
"60 62 CURVE SMOOTH",
"58 40 OFFCURVE",
"29 25 OFFCURVE",
"-13 26 CURVE",
"-29 -3 LINE",
"-1 2 OFFCURVE",
"36 7 OFFCURVE",
"84 7 CURVE SMOOTH",
"132 7 OFFCURVE",
"181 3 OFFCURVE",
"226 -2 CURVE",
"247 28 LINE",
"236 26 OFFCURVE",
"223 26 OFFCURVE",
"211 26 CURVE SMOOTH",
"168 26 OFFCURVE",
"147 43 OFFCURVE",
"141 79 CURVE SMOOTH",
"140 88 OFFCURVE",
"139 112 OFFCURVE",
"139 144 CURVE SMOOTH",
"139 232 OFFCURVE",
"145 387 OFFCURVE",
"167 501 CURVE",
"244 410 OFFCURVE",
"305 340 OFFCURVE",
"350 291 CURVE SMOOTH",
"509 113 LINE SMOOTH",
"532 88 OFFCURVE",
"552 65 OFFCURVE",
"569 45 CURVE SMOOTH",
"578 34 LINE",
"580 3 OFFCURVE",
"574 -131 OFFCURVE",
"563 -226 CURVE SMOOTH",
"553 -317 OFFCURVE",
"513 -368 OFFCURVE",
"452 -368 CURVE SMOOTH",
"416 -368 OFFCURVE",
"395 -346 OFFCURVE",
"395 -300 CURVE SMOOTH",
"395 -272 OFFCURVE",
"401 -232 OFFCURVE",
"407 -209 CURVE",
"377 -204 LINE",
"364 -294 OFFCURVE",
"344 -362 OFFCURVE",
"335 -362 CURVE",
"331 -367 LINE",
"332 -372 LINE",
"394 -399 OFFCURVE",
"447 -402 OFFCURVE",
"504 -402 CURVE SMOOTH"
);
}
);
width = 807;
}
);
leftKerningGroup = H;
rightKerningGroup = J;
unicode = 014A;
},
{
color = 9;
glyphname = O;
lastChange = "2021-11-16 04:02:29 +0000";
layers = (
{
background = {
paths = (
{
closed = 1;
nodes = (
"617 -24 OFFCURVE",
"746 99 OFFCURVE",
"763 343 CURVE SMOOTH",
"764 356 OFFCURVE",
"764 368 OFFCURVE",
"764 381 CURVE SMOOTH",
"764 475 OFFCURVE",
"737 548 OFFCURVE",
"682 598 CURVE SMOOTH",
"624 652 OFFCURVE",
"537 680 OFFCURVE",
"423 680 CURVE SMOOTH",
"307 680 OFFCURVE",
"218 653 OFFCURVE",
"152 598 CURVE SMOOTH",
"84 540 OFFCURVE",
"46 455 OFFCURVE",
"38 343 CURVE SMOOTH",
"37 327 OFFCURVE",
"36 312 OFFCURVE",
"36 297 CURVE SMOOTH",
"36 83 OFFCURVE",
"150 -24 OFFCURVE",
"375 -24 CURVE SMOOTH"
);
},
{
closed = 1;
nodes = (
"301 15 OFFCURVE",
"237 51 OFFCURVE",
"190 121 CURVE SMOOTH",
"151 181 OFFCURVE",
"132 246 OFFCURVE",
"132 321 CURVE SMOOTH",
"132 331 OFFCURVE",
"132 342 OFFCURVE",
"133 353 CURVE SMOOTH",
"138 426 OFFCURVE",
"161 489 OFFCURVE",
"201 540 CURVE SMOOTH",
"246 597 OFFCURVE",
"306 630 OFFCURVE",
"381 639 CURVE SMOOTH",
"394 641 OFFCURVE",
"406 641 OFFCURVE",
"419 641 CURVE SMOOTH",
"503 641 OFFCURVE",
"567 607 OFFCURVE",
"614 540 CURVE SMOOTH",
"651 486 OFFCURVE",
"668 423 OFFCURVE",
"668 350 CURVE SMOOTH",
"668 339 OFFCURVE",
"668 328 OFFCURVE",
"667 317 CURVE SMOOTH",
"662 241 OFFCURVE",
"638 175 OFFCURVE",
"597 120 CURVE SMOOTH",
"552 60 OFFCURVE",
"491 26 OFFCURVE",
"417 17 CURVE SMOOTH",
"406 15 OFFCURVE",
"395 15 OFFCURVE",
"384 15 CURVE SMOOTH"
);
}
);
};
layerId = "24D0D9E8-BA2F-4B13-8DB9-88CA40D3CAFC";
paths = (
{
closed = 1;
nodes = (
"629 -17 OFFCURVE",
"757 127 OFFCURVE",
"757 380 CURVE SMOOTH",
"757 579 OFFCURVE",
"629 673 OFFCURVE",
"423 673 CURVE SMOOTH",
"176 673 OFFCURVE",
"43 544 OFFCURVE",
"43 298 CURVE SMOOTH",
"43 100 OFFCURVE",
"169 -17 OFFCURVE",
"375 -17 CURVE SMOOTH"
);
},
{
closed = 1;
nodes = (
"231 21 OFFCURVE",
"137 149 OFFCURVE",
"137 321 CURVE SMOOTH",
"137 500 OFFCURVE",
"244 635 OFFCURVE",
"419 635 CURVE SMOOTH",
"572 635 OFFCURVE",
"663 508 OFFCURVE",
"663 350 CURVE SMOOTH",
"663 169 OFFCURVE",
"557 21 OFFCURVE",
"384 21 CURVE SMOOTH"
);
}
);
width = 798;
}
);
leftKerningGroup = O;
note = O;
rightKerningGroup = O;
unicode = 004F;
},
{
glyphname = Oslash;
lastChange = "2021-11-16 04:40:58 +0000";
layers = (
{
layerId = "24D0D9E8-BA2F-4B13-8DB9-88CA40D3CAFC";
paths = (
{
closed = 1;
nodes = (
"589 -23 OFFCURVE",
"715 96 OFFCURVE",
"731 333 CURVE SMOOTH",
"732 345 OFFCURVE",
"732 358 OFFCURVE",
"732 369 CURVE SMOOTH",
"732 478 OFFCURVE",
"695 557 OFFCURVE",
"620 606 CURVE",
"671 667 LINE",
"601 667 LINE",
"572 631 LINE",
"524 651 OFFCURVE",
"466 660 OFFCURVE",
"400 660 CURVE SMOOTH",
"289 660 OFFCURVE",
"202 633 OFFCURVE",
"138 580 CURVE SMOOTH",
"72 524 OFFCURVE",
"35 442 OFFCURVE",
"27 333 CURVE SMOOTH",
"26 319 OFFCURVE",
"26 305 OFFCURVE",
"26 292 CURVE SMOOTH",
"26 189 OFFCURVE",
"53 111 OFFCURVE",
"108 57 CURVE",
"57 -5 LINE",
"116 -4 LINE",
"143 30 LINE",
"197 -5 OFFCURVE",
"267 -23 OFFCURVE",
"354 -23 CURVE SMOOTH"
);
},
{
closed = 1;
nodes = (
"295 14 OFFCURVE",
"239 40 OFFCURVE",
"195 91 CURVE",
"569 545 LINE",
"616 490 OFFCURVE",
"639 422 OFFCURVE",
"639 339 CURVE SMOOTH",
"639 329 OFFCURVE",
"639 318 OFFCURVE",
"638 308 CURVE SMOOTH",
"632 233 OFFCURVE",
"610 169 OFFCURVE",
"570 117 CURVE SMOOTH",
"526 58 OFFCURVE",
"467 25 OFFCURVE",
"395 16 CURVE SMOOTH",
"384 15 OFFCURVE",
"373 14 OFFCURVE",
"363 14 CURVE SMOOTH"
);
},
{
closed = 1;
nodes = (
"134 184 OFFCURVE",
"118 244 OFFCURVE",
"118 310 CURVE SMOOTH",
"118 321 OFFCURVE",
"118 331 OFFCURVE",
"119 342 CURVE SMOOTH",
"124 414 OFFCURVE",
"146 474 OFFCURVE",
"185 524 CURVE SMOOTH",
"229 579 OFFCURVE",
"287 611 OFFCURVE",
"360 620 CURVE SMOOTH",
"373 622 OFFCURVE",
"385 622 OFFCURVE",
"397 622 CURVE SMOOTH",
"449 622 OFFCURVE",
"494 608 OFFCURVE",
"531 581 CURVE",
"166 131 LINE"
);
}
);
width = 772;
}
);
leftKerningGroup = O;
note = Oslash;
rightKerningGroup = O;
unicode = 00D8;
},
{
glyphname = OE;
lastChange = "2021-11-09 07:59:07 +0000";
layers = (
{
layerId = "24D0D9E8-BA2F-4B13-8DB9-88CA40D3CAFC";
paths = (
{
closed = 1;
nodes = (
"983 139 OFFCURVE",
"974 119 OFFCURVE",
"959 97 CURVE SMOOTH",
"944 75 OFFCURVE",
"931 62 OFFCURVE",
"921 54 CURVE SMOOTH",
"899 39 OFFCURVE",
"855 31 OFFCURVE",
"788 31 CURVE SMOOTH",
"770 31 OFFCURVE",
"754 32 OFFCURVE",
"740 34 CURVE SMOOTH",
"710 38 OFFCURVE",
"687 42 OFFCURVE",
"679 45 CURVE SMOOTH",
"670 48 OFFCURVE",
"665 55 OFFCURVE",
"664 67 CURVE SMOOTH",
"663 75 OFFCURVE",
"662 91 OFFCURVE",
"662 112 CURVE SMOOTH",
"662 170 OFFCURVE",
"667 264 OFFCURVE",
"671 329 CURVE",
"681 330 OFFCURVE",
"694 330 OFFCURVE",
"708 330 CURVE SMOOTH",
"734 330 OFFCURVE",
"766 329 OFFCURVE",
"804 327 CURVE SMOOTH",
"841 326 OFFCURVE",
"856 316 OFFCURVE",
"856 292 CURVE SMOOTH",
"856 285 OFFCURVE",
"855 276 OFFCURVE",
"852 266 CURVE",
"856 261 LINE",
"880 267 LINE",
"880 287 OFFCURVE",
"883 304 OFFCURVE",
"886 320 CURVE SMOOTH",
"888 331 OFFCURVE",
"894 349 OFFCURVE",
"895 354 CURVE SMOOTH",
"898 364 OFFCURVE",
"891 370 OFFCURVE",
"882 370 CURVE SMOOTH",
"674 368 LINE",
"683 495 OFFCURVE",
"693 582 OFFCURVE",
"705 619 CURVE",
"726 623 OFFCURVE",
"759 623 OFFCURVE",
"808 623 CURVE SMOOTH",
"855 623 OFFCURVE",
"912 620 OFFCURVE",
"912 587 CURVE SMOOTH",
"912 580 OFFCURVE",
"904 557 OFFCURVE",
"891 527 CURVE",
"919 520 LINE",
"922 534 OFFCURVE",
"928 561 OFFCURVE",
"936 589 CURVE SMOOTH",
"949 628 OFFCURVE",
"953 645 OFFCURVE",
"953 652 CURVE SMOOTH",
"953 661 OFFCURVE",
"949 667 OFFCURVE",
"940 668 CURVE",
"656 665 LINE SMOOTH",
"598 664 OFFCURVE",
"553 669 OFFCURVE",
"519 674 CURVE",
"519 673 LINE",
"490 678 OFFCURVE",
"460 680 OFFCURVE",
"427 680 CURVE SMOOTH",
"175 680 OFFCURVE",
"40 548 OFFCURVE",
"40 297 CURVE SMOOTH",
"40 95 OFFCURVE",
"169 -24 OFFCURVE",
"379 -24 CURVE SMOOTH",
"442 -24 OFFCURVE",
"497 -16 OFFCURVE",
"544 1 CURVE",
"568 3 OFFCURVE",
"584 4 OFFCURVE",
"592 4 CURVE SMOOTH",
"608 5 OFFCURVE",
"627 6 OFFCURVE",
"647 6 CURVE SMOOTH",
"666 6 OFFCURVE",
"750 1 OFFCURVE",
"899 -10 CURVE",
"904 -11 OFFCURVE",
"909 -11 OFFCURVE",
"913 -11 CURVE SMOOTH",
"932 -11 OFFCURVE",
"945 -6 OFFCURVE",
"953 2 CURVE SMOOTH",
"961 9 OFFCURVE",
"967 24 OFFCURVE",
"971 42 CURVE SMOOTH",
"979 78 OFFCURVE",
"989 111 OFFCURVE",
"1005 140 CURVE",
"982 149 LINE"
);
},
{
closed = 1;
nodes = (
"136 503 OFFCURVE",
"245 641 OFFCURVE",
"423 641 CURVE SMOOTH",
"498 641 OFFCURVE",
"558 612 OFFCURVE",
"601 563 CURVE",
"601 539 LINE SMOOTH",
"601 517 OFFCURVE",
"601 491 OFFCURVE",
"599 462 CURVE SMOOTH",
"586 276 LINE SMOOTH",
"579 181 OFFCURVE",
"573 116 OFFCURVE",
"567 83 CURVE",
"520 40 OFFCURVE",
"460 15 OFFCURVE",
"388 15 CURVE SMOOTH",
"232 15 OFFCURVE",
"136 145 OFFCURVE",
"136 321 CURVE SMOOTH"
);
}
);
width = 1025;
}
);
leftKerningGroup = O;
note = OE;
rightKerningGroup = E;
rightMetricsKey = E;
unicode = 0152;
},
{
color = 9;
glyphname = P;
lastChange = "2021-11-16 05:14:45 +0000";
layers = (
{
background = {
paths = (
{
closed = 1;
nodes = (
"159 3 LINE SMOOTH",
"166 4 OFFCURVE",
"174 4 OFFCURVE",
"183 4 CURVE SMOOTH",
"207 4 OFFCURVE",
"237 3 OFFCURVE",
"273 0 CURVE SMOOTH",
"291 -2 OFFCURVE",
"311 -4 OFFCURVE",
"330 -5 CURVE",
"342 18 LINE",
"338 24 LINE",
"328 22 OFFCURVE",
"307 23 OFFCURVE",
"279 28 CURVE SMOOTH",
"247 33 OFFCURVE",
"227 40 OFFCURVE",
"223 48 CURVE",
"220 58 OFFCURVE",
"219 77 OFFCURVE",
"219 104 CURVE SMOOTH",
"219 140 OFFCURVE",
"221 192 OFFCURVE",
"226 259 CURVE SMOOTH",
"236 403 LINE SMOOTH",
"242 492 OFFCURVE",
"249 559 OFFCURVE",
"257 602 CURVE SMOOTH",
"260 615 OFFCURVE",
"269 623 OFFCURVE",
"286 626 CURVE SMOOTH",
"294 628 OFFCURVE",
"317 629 OFFCURVE",
"349 629 CURVE SMOOTH",
"392 629 OFFCURVE",
"426 615 OFFCURVE",
"451 585 CURVE SMOOTH",
"472 561 OFFCURVE",
"482 531 OFFCURVE",
"482 497 CURVE SMOOTH",
"482 464 OFFCURVE",
"473 433 OFFCURVE",
"455 402 CURVE SMOOTH",
"435 372 OFFCURVE",
"407 350 OFFCURVE",
"368 335 CURVE SMOOTH",
"337 323 OFFCURVE",
"307 318 OFFCURVE",
"276 319 CURVE",
"260 294 LINE",
"273 292 OFFCURVE",
"287 292 OFFCURVE",
"300 292 CURVE SMOOTH",
"331 292 OFFCURVE",
"361 296 OFFCURVE",
"391 304 CURVE SMOOTH",
"445 319 OFFCURVE",
"488 350 OFFCURVE",
"520 394 CURVE SMOOTH",
"546 431 OFFCURVE",
"561 474 OFFCURVE",
"561 522 CURVE SMOOTH",
"561 571 OFFCURVE",
"546 607 OFFCURVE",
"516 633 CURVE SMOOTH",
"486 658 OFFCURVE",
"438 670 OFFCURVE",
"371 670 CURVE SMOOTH",
"351 670 OFFCURVE",
"327 669 OFFCURVE",
"298 667 CURVE SMOOTH",
"248 663 OFFCURVE",
"221 662 OFFCURVE",
"215 662 CURVE SMOOTH",
"146 665 OFFCURVE",
"100 668 OFFCURVE",
"80 671 CURVE",
"64 641 LINE",
"79 645 OFFCURVE",
"93 647 OFFCURVE",
"105 647 CURVE SMOOTH",
"125 647 OFFCURVE",
"140 642 OFFCURVE",
"152 632 CURVE",
"157 626 OFFCURVE",
"160 598 OFFCURVE",
"160 549 CURVE SMOOTH",
"160 490 OFFCURVE",
"156 401 OFFCURVE",
"148 283 CURVE SMOOTH",
"140 164 OFFCURVE",
"130 91 OFFCURVE",
"121 64 CURVE SMOOTH",
"110 35 OFFCURVE",
"77 22 OFFCURVE",
"18 23 CURVE",
"5 -6 LINE"
);
}
);
};
layerId = "24D0D9E8-BA2F-4B13-8DB9-88CA40D3CAFC";
paths = (
{
closed = 1;
nodes = (
"39 -4 OFFCURVE",
"132 4 OFFCURVE",
"174 4 CURVE SMOOTH",
"255 4 OFFCURVE",
"262 0 OFFCURVE",
"330 -5 CURVE",
"345 24 LINE",
"322 20 OFFCURVE",
"232 31 OFFCURVE",
"223 48 CURVE SMOOTH",
"212 83 OFFCURVE",
"225 251 OFFCURVE",
"236 403 CURVE SMOOTH",
"241 468 OFFCURVE",
"249 559 OFFCURVE",
"256 594 CURVE SMOOTH",
"260 615 OFFCURVE",
"269 623 OFFCURVE",
"286 626 CURVE SMOOTH",
"381 650 OFFCURVE",
"482 602 OFFCURVE",
"482 497 CURVE SMOOTH",
"482 386 OFFCURVE",
"387 315 OFFCURVE",
"276 319 CURVE",
"260 294 LINE",
"409 271 OFFCURVE",
"561 367 OFFCURVE",
"561 522 CURVE SMOOTH",
"561 633 OFFCURVE",
"487 670 OFFCURVE",
"371 670 CURVE SMOOTH",
"325 670 OFFCURVE",
"242 662 OFFCURVE",
"215 662 CURVE SMOOTH",
"146 665 OFFCURVE",
"100 668 OFFCURVE",
"80 671 CURVE",
"64 641 LINE",
"79 645 OFFCURVE",
"93 647 OFFCURVE",
"105 647 CURVE SMOOTH",
"164 647 OFFCURVE",
"160 620 OFFCURVE",
"160 549 CURVE SMOOTH",
"160 490 OFFCURVE",
"156 401 OFFCURVE",
"148 283 CURVE SMOOTH",
"140 164 OFFCURVE",
"130 91 OFFCURVE",
"121 64 CURVE SMOOTH",
"110 35 OFFCURVE",
"77 22 OFFCURVE",
"18 23 CURVE",
"5 -6 LINE"
);
}
);
width = 566;
}
);
leftKerningGroup = H;
leftMetricsKey = H;
note = P;
unicode = 0050;
},
{
color = 0;
glyphname = Thorn;
lastChange = "2021-11-16 04:41:19 +0000";
layers = (
{
background = {
paths = (
{
closed = 1;
nodes = (
"326 -168 LINE",
"319 -169 OFFCURVE",
"312 -170 OFFCURVE",
"305 -170 CURVE SMOOTH",
"290 -170 OFFCURVE",
"273 -167 OFFCURVE",
"254 -161 CURVE SMOOTH",
"229 -152 OFFCURVE",
"216 -140 OFFCURVE",
"213 -124 CURVE SMOOTH",
"207 -96 OFFCURVE",
"205 -12 OFFCURVE",
"205 155 CURVE SMOOTH",
"205 183 LINE",
"206 187 OFFCURVE",
"207 193 OFFCURVE",
"207 198 CURVE SMOOTH",
"205 260 LINE SMOOTH",
"204 284 OFFCURVE",
"205 319 OFFCURVE",
"207 366 CURVE SMOOTH",
"208 408 OFFCURVE",
"210 442 OFFCURVE",
"213 467 CURVE SMOOTH",
"215 479 OFFCURVE",
"225 487 OFFCURVE",
"245 490 CURVE",
"254 490 LINE SMOOTH",
"266 490 OFFCURVE",
"286 491 OFFCURVE",
"316 491 CURVE SMOOTH",
"359 491 OFFCURVE",
"394 476 OFFCURVE",
"421 446 CURVE SMOOTH",
"446 419 OFFCURVE",
"459 385 OFFCURVE",
"459 345 CURVE SMOOTH",
"459 318 OFFCURVE",
"452 291 OFFCURVE",
"437 263 CURVE SMOOTH",
"420 233 OFFCURVE",
"392 210 OFFCURVE",
"356 196 CURVE SMOOTH",
"324 184 OFFCURVE",
"294 180 OFFCURVE",
"265 181 CURVE",
"251 154 LINE",
"261 153 OFFCURVE",
"272 153 OFFCURVE",
"282 153 CURVE SMOOTH",
"316 153 OFFCURVE",
"349 157 OFFCURVE",
"381 166 CURVE SMOOTH",
"435 182 OFFCURVE",
"475 212 OFFCURVE",
"503 256 CURVE SMOOTH",
"525 290 OFFCURVE",
"536 328 OFFCURVE",
"536 371 CURVE SMOOTH",
"536 425 OFFCURVE",
"518 466 OFFCURVE",
"482 494 CURVE SMOOTH",
"450 519 OFFCURVE",
"401 532 OFFCURVE",
"335 532 CURVE SMOOTH",
"315 532 OFFCURVE",
"291 530 OFFCURVE",
"263 528 CURVE SMOOTH",
"224 525 LINE SMOOTH",
"219 525 OFFCURVE",
"215 525 OFFCURVE",
"211 524 CURVE",
"213 586 OFFCURVE",
"214 620 OFFCURVE",
"215 627 CURVE SMOOTH",
"216 637 OFFCURVE",
"217 645 OFFCURVE",
"219 655 CURVE",
"219 660 LINE SMOOTH",
"219 669 OFFCURVE",
"214 674 OFFCURVE",
"204 674 CURVE SMOOTH",
"200 674 OFFCURVE",
"190 673 OFFCURVE",
"178 670 CURVE SMOOTH",
"164 667 OFFCURVE",
"154 666 OFFCURVE",
"145 666 CURVE SMOOTH",
"92 668 OFFCURVE",
"58 670 OFFCURVE",
"44 671 CURVE",
"30 642 LINE",
"46 646 OFFCURVE",
"60 648 OFFCURVE",
"72 648 CURVE SMOOTH",
"91 648 OFFCURVE",
"105 644 OFFCURVE",
"116 634 CURVE SMOOTH",
"120 631 OFFCURVE",
"124 587 OFFCURVE",
"128 505 CURVE SMOOTH",
"133 411 OFFCURVE",
"136 321 OFFCURVE",
"136 235 CURVE SMOOTH",
"136 89 LINE SMOOTH",
"136 -32 OFFCURVE",
"132 -100 OFFCURVE",
"126 -124 CURVE SMOOTH",
"123 -139 OFFCURVE",
"111 -152 OFFCURVE",
"91 -159 CURVE SMOOTH",
"75 -166 OFFCURVE",
"57 -169 OFFCURVE",
"36 -169 CURVE SMOOTH",
"28 -169 OFFCURVE",
"23 -169 OFFCURVE",
"19 -167 CURVE",
"8 -193 LINE",
"47 -191 OFFCURVE",
"79 -189 OFFCURVE",
"104 -187 CURVE SMOOTH",
"143 -185 OFFCURVE",
"165 -183 OFFCURVE",
"172 -183 CURVE SMOOTH",
"251 -185 OFFCURVE",
"294 -189 OFFCURVE",
"309 -194 CURVE"
);
}
);
};
layerId = "24D0D9E8-BA2F-4B13-8DB9-88CA40D3CAFC";
paths = (
{
closed = 1;
nodes = (
"314 571 OFFCURVE",
"261 567 OFFCURVE",
"224 564 CURVE",
"229 603 OFFCURVE",
"234 630 OFFCURVE",
"240 657 CURVE",
"240 666 OFFCURVE",
"235 671 OFFCURVE",
"225 671 CURVE SMOOTH",
"221 671 OFFCURVE",
"212 670 OFFCURVE",
"200 667 CURVE SMOOTH",
"174 661 OFFCURVE",
"83 663 OFFCURVE",
"54 668 CURVE",
"39 639 LINE",
"54 643 OFFCURVE",
"68 645 OFFCURVE",
"80 645 CURVE SMOOTH",
"134 645 OFFCURVE",
"135 619 OFFCURVE",
"138 572 CURVE SMOOTH",
"146 488 OFFCURVE",
"123 124 OFFCURVE",
"101 64 CURVE SMOOTH",
"90 35 OFFCURVE",
"57 22 OFFCURVE",
"-2 23 CURVE",
"-16 -6 LINE",
"18 -4 OFFCURVE",
"111 4 OFFCURVE",
"153 4 CURVE SMOOTH",
"234 4 OFFCURVE",
"241 0 OFFCURVE",
"309 -5 CURVE",
"325 24 LINE",
"302 20 OFFCURVE",
"212 31 OFFCURVE",
"203 48 CURVE",
"190 92 OFFCURVE",
"208 408 OFFCURVE",
"222 495 CURVE SMOOTH",
"225 516 OFFCURVE",
"235 524 OFFCURVE",
"252 528 CURVE SMOOTH",
"348 551 OFFCURVE",
"457 503 OFFCURVE",
"455 398 CURVE SMOOTH",
"453 287 OFFCURVE",
"357 216 OFFCURVE",
"246 220 CURVE",
"230 195 LINE",
"378 172 OFFCURVE",
"532 268 OFFCURVE",
"535 423 CURVE SMOOTH",
"537 534 OFFCURVE",
"463 571 OFFCURVE",
"347 571 CURVE SMOOTH"
);
}
);
width = 586;
}
);
leftKerningGroup = H;
note = Thorn;
unicode = 00DE;
},
{
color = 9;
glyphname = Q;
lastChange = "2021-11-16 04:41:34 +0000";
layers = (
{
background = {
paths = (
{
closed = 1;
nodes = (
"803 -216 OFFCURVE",
"854 -206 OFFCURVE",
"919 -185 CURVE",
"933 -158 LINE",
"911 -164 OFFCURVE",
"891 -166 OFFCURVE",
"871 -166 CURVE SMOOTH",
"803 -166 OFFCURVE",
"724 -131 OFFCURVE",
"634 -62 CURVE SMOOTH",
"605 -39 OFFCURVE",
"571 -18 OFFCURVE",
"533 3 CURVE",
"673 50 OFFCURVE",
"749 165 OFFCURVE",
"761 346 CURVE SMOOTH",
"762 359 OFFCURVE",
"762 371 OFFCURVE",
"762 384 CURVE SMOOTH",
"762 478 OFFCURVE",
"735 551 OFFCURVE",
"680 601 CURVE SMOOTH",
"622 655 OFFCURVE",
"535 683 OFFCURVE",
"421 683 CURVE SMOOTH",
"305 683 OFFCURVE",
"216 655 OFFCURVE",
"150 600 CURVE SMOOTH",
"82 544 OFFCURVE",
"44 460 OFFCURVE",
"36 346 CURVE SMOOTH",
"35 330 OFFCURVE",
"34 315 OFFCURVE",
"34 300 CURVE SMOOTH",
"34 86 OFFCURVE",
"148 -21 OFFCURVE",
"374 -21 CURVE SMOOTH",
"407 -21 OFFCURVE",
"439 -18 OFFCURVE",
"468 -13 CURVE",
"495 -33 OFFCURVE",
"515 -49 OFFCURVE",
"527 -61 CURVE SMOOTH",
"644 -169 LINE SMOOTH",
"678 -201 OFFCURVE",
"719 -216 OFFCURVE",
"766 -216 CURVE SMOOTH"
);
},
{
closed = 1;
nodes = (
"299 18 OFFCURVE",
"235 54 OFFCURVE",
"187 124 CURVE SMOOTH",
"148 183 OFFCURVE",
"130 248 OFFCURVE",
"130 323 CURVE SMOOTH",
"130 333 OFFCURVE",
"130 344 OFFCURVE",
"131 355 CURVE SMOOTH",
"136 430 OFFCURVE",
"159 492 OFFCURVE",
"199 543 CURVE SMOOTH",
"243 599 OFFCURVE",
"303 632 OFFCURVE",
"379 642 CURVE SMOOTH",
"392 643 OFFCURVE",
"404 644 OFFCURVE",
"417 644 CURVE SMOOTH",
"501 644 OFFCURVE",
"566 610 OFFCURVE",
"612 543 CURVE SMOOTH",
"649 489 OFFCURVE",
"666 425 OFFCURVE",
"666 353 CURVE SMOOTH",
"666 342 OFFCURVE",
"666 331 OFFCURVE",
"665 320 CURVE SMOOTH",
"660 244 OFFCURVE",
"637 178 OFFCURVE",
"595 123 CURVE SMOOTH",
"548 63 OFFCURVE",
"489 29 OFFCURVE",
"415 20 CURVE SMOOTH",
"404 18 OFFCURVE",
"393 18 OFFCURVE",
"381 18 CURVE SMOOTH"
);
}
);
};
layerId = "24D0D9E8-BA2F-4B13-8DB9-88CA40D3CAFC";
paths = (
{
closed = 1;
nodes = (
"796 -155 OFFCURVE",
"718 -121 OFFCURVE",
"630 -53 CURVE SMOOTH",
"603 -32 OFFCURVE",
"571 -12 OFFCURVE",
"535 9 CURVE",
"683 59 OFFCURVE",
"757 189 OFFCURVE",
"757 381 CURVE SMOOTH",
"757 580 OFFCURVE",
"629 674 OFFCURVE",
"422 674 CURVE SMOOTH",
"175 674 OFFCURVE",
"43 545 OFFCURVE",
"43 299 CURVE SMOOTH",
"43 101 OFFCURVE",
"169 -16 OFFCURVE",
"375 -16 CURVE SMOOTH",
"409 -16 OFFCURVE",
"442 -13 OFFCURVE",
"471 -8 CURVE",
"496 -27 OFFCURVE",
"514 -41 OFFCURVE",
"525 -52 CURVE SMOOTH",
"640 -158 LINE SMOOTH",
"673 -189 OFFCURVE",
"713 -204 OFFCURVE",
"759 -204 CURVE SMOOTH",
"796 -204 OFFCURVE",
"846 -194 OFFCURVE",
"909 -174 CURVE",
"923 -147 LINE",
"902 -153 OFFCURVE",
"882 -155 OFFCURVE",
"862 -155 CURVE SMOOTH"
);
},
{
closed = 1;
nodes = (
"137 501 OFFCURVE",
"244 636 OFFCURVE",
"418 636 CURVE SMOOTH",
"572 636 OFFCURVE",
"662 509 OFFCURVE",
"662 351 CURVE SMOOTH",
"662 170 OFFCURVE",
"557 22 OFFCURVE",
"384 22 CURVE SMOOTH",
"231 22 OFFCURVE",
"137 150 OFFCURVE",
"137 322 CURVE SMOOTH"
);
}
);
width = 802;
}
);
leftKerningGroup = O;
leftMetricsKey = O;
note = Q;
unicode = 0051;
},
{
color = 9;
glyphname = R;
lastChange = "2021-11-16 05:16:06 +0000";
layers = (
{
background = {
paths = (
{
closed = 1;
nodes = (
"689 -13 OFFCURVE",
"715 -11 OFFCURVE",
"744 -8 CURVE",
"760 18 LINE",
"638 12 OFFCURVE",
"504 194 OFFCURVE",
"434 339 CURVE",
"508 360 OFFCURVE",
"574 446 OFFCURVE",
"574 531 CURVE SMOOTH",
"574 636 OFFCURVE",
"502 670 OFFCURVE",
"389 670 CURVE SMOOTH",
"370 670 OFFCURVE",
"266 662 OFFCURVE",
"227 662 CURVE SMOOTH",
"174 662 OFFCURVE",
"111 668 OFFCURVE",
"92 671 CURVE",
"74 641 LINE",
"164 660 OFFCURVE",
"171 641 OFFCURVE",
"171 549 CURVE SMOOTH",
"171 448 OFFCURVE",
"154 140 OFFCURVE",
"133 66 CURVE SMOOTH",
"123 33 OFFCURVE",
"47 14 OFFCURVE",
"19 22 CURVE",
"5 -7 LINE",
"98 0 OFFCURVE",
"163 3 OFFCURVE",
"198 3 CURVE SMOOTH",
"246 3 OFFCURVE",
"290 0 OFFCURVE",
"329 -7 CURVE",
"347 23 LINE",
"252 23 OFFCURVE",
"230 26 OFFCURVE",
"230 108 CURVE SMOOTH",
"230 201 OFFCURVE",
"252 504 OFFCURVE",
"268 603 CURVE SMOOTH",
"275 629 OFFCURVE",
"307 629 OFFCURVE",
"360 629 CURVE SMOOTH",
"436 629 OFFCURVE",
"493 580 OFFCURVE",
"489 496 CURVE SMOOTH",
"481 390 OFFCURVE",
"404 333 OFFCURVE",
"295 333 CURVE",
"279 306 LINE",
"297 306 OFFCURVE",
"317 307 OFFCURVE",
"338 310 CURVE",
"365 285 OFFCURVE",
"373 268 OFFCURVE",
"488 80 CURVE SMOOTH",
"525 18 OFFCURVE",
"586 -13 OFFCURVE",
"668 -13 CURVE SMOOTH"
);
}
);
};
layerId = "24D0D9E8-BA2F-4B13-8DB9-88CA40D3CAFC";
paths = (
{
closed = 1;
nodes = (
"695 -11 OFFCURVE",
"719 -5 OFFCURVE",
"748 -2 CURVE",
"760 20 LINE",
"638 14 OFFCURVE",
"504 194 OFFCURVE",
"434 339 CURVE",
"508 360 OFFCURVE",
"574 446 OFFCURVE",
"574 531 CURVE SMOOTH",
"574 636 OFFCURVE",
"502 670 OFFCURVE",
"389 670 CURVE SMOOTH",
"370 670 OFFCURVE",
"266 662 OFFCURVE",
"227 662 CURVE SMOOTH",
"174 662 OFFCURVE",
"111 668 OFFCURVE",
"92 671 CURVE",
"74 641 LINE",
"164 660 OFFCURVE",
"171 641 OFFCURVE",
"171 549 CURVE SMOOTH",
"171 448 OFFCURVE",
"154 140 OFFCURVE",
"133 66 CURVE SMOOTH",
"123 33 OFFCURVE",
"47 14 OFFCURVE",
"19 22 CURVE",
"5 -7 LINE",
"98 0 OFFCURVE",
"163 3 OFFCURVE",
"198 3 CURVE SMOOTH",
"246 3 OFFCURVE",
"290 0 OFFCURVE",
"329 -7 CURVE",
"347 23 LINE",
"252 23 OFFCURVE",
"230 26 OFFCURVE",
"230 108 CURVE SMOOTH",
"230 201 OFFCURVE",
"252 504 OFFCURVE",
"268 603 CURVE SMOOTH",
"275 629 OFFCURVE",
"307 629 OFFCURVE",
"360 629 CURVE SMOOTH",
"436 629 OFFCURVE",
"493 580 OFFCURVE",
"489 496 CURVE SMOOTH",
"481 390 OFFCURVE",
"404 333 OFFCURVE",
"295 333 CURVE",
"279 306 LINE",
"297 306 OFFCURVE",
"317 307 OFFCURVE",
"338 310 CURVE",
"365 285 OFFCURVE",
"373 268 OFFCURVE",
"488 80 CURVE SMOOTH",
"525 18 OFFCURVE",
"586 -11 OFFCURVE",
"668 -11 CURVE SMOOTH"
);
}
);
width = 720;
}
);
leftKerningGroup = H;
leftMetricsKey = H;
note = R;
rightKerningGroup = R;
rightMetricsKey = "=K-20";
unicode = 0052;
},
{
color = 9;
glyphname = S;
lastChange = "2021-11-16 04:05:34 +0000";
layers = (
{
background = {
paths = (
{
closed = 1;
nodes = (
"214 -23 OFFCURVE",
"264 -13 OFFCURVE",
"305 7 CURVE SMOOTH",
"337 22 OFFCURVE",
"364 45 OFFCURVE",
"385 77 CURVE SMOOTH",
"407 110 OFFCURVE",
"418 146 OFFCURVE",
"418 188 CURVE SMOOTH",
"418 216 OFFCURVE",
"411 243 OFFCURVE",
"397 269 CURVE SMOOTH",
"383 296 OFFCURVE",
"352 323 OFFCURVE",
"307 351 CURVE SMOOTH",
"248 388 OFFCURVE",
"213 411 OFFCURVE",
"202 422 CURVE SMOOTH",
"172 448 OFFCURVE",
"157 479 OFFCURVE",
"157 512 CURVE SMOOTH",
"157 556 OFFCURVE",
"171 589 OFFCURVE",
"199 612 CURVE SMOOTH",
"222 631 OFFCURVE",
"248 640 OFFCURVE",
"281 640 CURVE SMOOTH",
"313 640 OFFCURVE",
"339 631 OFFCURVE",
"362 613 CURVE SMOOTH",
"374 604 OFFCURVE",
"379 589 OFFCURVE",
"379 569 CURVE SMOOTH",
"379 544 OFFCURVE",
"375 526 OFFCURVE",
"369 516 CURVE",
"398 503 LINE",
"401 549 OFFCURVE",
"411 590 OFFCURVE",
"428 628 CURVE",
"428 629 LINE",
"428 633 LINE SMOOTH",
"429 642 OFFCURVE",
"421 650 OFFCURVE",
"405 659 CURVE",
"380 670 OFFCURVE",
"348 676 OFFCURVE",
"310 676 CURVE SMOOTH",
"309 676 LINE SMOOTH",
"247 676 OFFCURVE",
"194 657 OFFCURVE",
"152 620 CURVE SMOOTH",
"102 579 OFFCURVE",
"78 527 OFFCURVE",
"78 467 CURVE SMOOTH",
"78 427 OFFCURVE",
"94 393 OFFCURVE",
"125 366 CURVE",
"127 363 OFFCURVE",
"146 352 OFFCURVE",
"230 300 CURVE SMOOTH",
"273 273 OFFCURVE",
"302 243 OFFCURVE",
"314 209 CURVE SMOOTH",
"321 191 OFFCURVE",
"325 172 OFFCURVE",
"325 151 CURVE SMOOTH",
"325 90 OFFCURVE",
"303 51 OFFCURVE",
"263 30 CURVE SMOOTH",
"244 20 OFFCURVE",
"221 14 OFFCURVE",
"196 14 CURVE SMOOTH",
"168 14 OFFCURVE",
"141 20 OFFCURVE",
"115 34 CURVE SMOOTH",
"92 46 OFFCURVE",
"77 62 OFFCURVE",
"74 79 CURVE SMOOTH",
"73 87 OFFCURVE",
"74 116 OFFCURVE",
"77 163 CURVE",
"47 152 LINE",
"45 116 OFFCURVE",
"41 71 OFFCURVE",
"34 14 CURVE",
"34 7 OFFCURVE",
"36 1 OFFCURVE",
"42 -2 CURVE SMOOTH",
"68 -16 OFFCURVE",
"107 -23 OFFCURVE",
"157 -23 CURVE SMOOTH"
);
}
);
};
layerId = "24D0D9E8-BA2F-4B13-8DB9-88CA40D3CAFC";
paths = (
{
closed = 1;
nodes = (
"305 -13 OFFCURVE",
"414 60 OFFCURVE",
"414 194 CURVE SMOOTH",
"414 269 OFFCURVE",
"373 311 OFFCURVE",
"267 377 CURVE SMOOTH",
"219 407 OFFCURVE",
"158 441 OFFCURVE",
"158 511 CURVE SMOOTH",
"158 587 OFFCURVE",
"207 637 OFFCURVE",
"280 637 CURVE SMOOTH",
"328 637 OFFCURVE",
"376 618 OFFCURVE",
"376 567 CURVE SMOOTH",
"376 543 OFFCURVE",
"372 525 OFFCURVE",
"366 515 CURVE",
"395 503 LINE",
"398 546 OFFCURVE",
"407 588 OFFCURVE",
"426 630 CURVE",
"426 657 OFFCURVE",
"357 672 OFFCURVE",
"308 672 CURVE SMOOTH",
"307 672 LINE SMOOTH",
"184 672 OFFCURVE",
"81 584 OFFCURVE",
"81 480 CURVE SMOOTH",
"81 386 OFFCURVE",
"138 361 OFFCURVE",
"230 304 CURVE SMOOTH",
"285 269 OFFCURVE",
"328 225 OFFCURVE",
"328 157 CURVE SMOOTH",
"328 73 OFFCURVE",
"275 23 OFFCURVE",
"197 23 CURVE SMOOTH",
"148 23 OFFCURVE",
"84 49 OFFCURVE",
"77 87 CURVE SMOOTH",
"76 95 OFFCURVE",
"77 123 OFFCURVE",
"80 169 CURVE",
"51 158 LINE",
"49 123 OFFCURVE",
"45 79 OFFCURVE",
"38 23 CURVE",
"38 16 OFFCURVE",
"40 10 OFFCURVE",
"46 7 CURVE SMOOTH",
"71 -6 OFFCURVE",
"109 -13 OFFCURVE",
"158 -13 CURVE SMOOTH"
);
}
);
width = 470;
}
);
leftKerningGroup = S;
note = S;
rightKerningGroup = S;
unicode = 0053;
},
{
color = 3;
glyphname = Germandbls;
lastChange = "2021-11-03 23:13:38 +0000";
layers = (
{
background = {
hints = (
{
horizontal = 1;
place = "{-10, 94}";
type = Stem;
},
{
horizontal = 1;
place = "{1456, 82}";
type = Stem;
},
{
horizontal = 1;
place = "{2532, 127}";
type = Stem;
},
{
place = "{572, 288}";
type = Stem;
},
{
place = "{1800, 251}";
type = Stem;
},
{
place = "{2096, 304}";
type = Stem;
},
{
horizontal = 1;
place = "{2666, -20}";
target = down;
type = TopGhost;
}
);
paths = (
{
closed = 1;
nodes = (
"2400 1025 OFFCURVE",
"2360 1171 OFFCURVE",
"2280 1272 CURVE SMOOTH",
"2155 1431 OFFCURVE",
"1938 1519 OFFCURVE",
"1631 1538 CURVE",
"1760 1593 OFFCURVE",
"1862 1672 OFFCURVE",
"1936 1774 CURVE SMOOTH",
"2013 1880 OFFCURVE",
"2051 2001 OFFCURVE",
"2051 2136 CURVE SMOOTH",
"2051 2307 OFFCURVE",
"1989 2436 OFFCURVE",
"1864 2521 CURVE SMOOTH",
"1729 2613 OFFCURVE",
"1528 2659 OFFCURVE",
"1261 2659 CURVE SMOOTH",
"1195 2659 OFFCURVE",
"1125 2656 OFFCURVE",
"1050 2650 CURVE SMOOTH",
"761 2629 OFFCURVE",
"473 2634 OFFCURVE",
"185 2666 CURVE",
"148 2587 LINE",
"297 2620 OFFCURVE",
"409 2605 OFFCURVE",
"486 2540 CURVE",
"543 2475 OFFCURVE",
"572 2005 OFFCURVE",
"572 1130 CURVE SMOOTH",
"572 652 OFFCURVE",
"556 359 OFFCURVE",
"524 251 CURVE SMOOTH",
"487 129 OFFCURVE",
"357 70 OFFCURVE",
"132 73 CURVE",
"92 -10 LINE",
"338 7 OFFCURVE",
"517 17 OFFCURVE",
"630 18 CURVE SMOOTH",
"849 19 OFFCURVE",
"970 19 OFFCURVE",
"991 18 CURVE SMOOTH",
"1186 4 OFFCURVE",
"1335 -2 OFFCURVE",
"1440 1 CURVE SMOOTH",
"1719 9 OFFCURVE",
"1942 78 OFFCURVE",
"2111 207 CURVE SMOOTH",
"2304 354 OFFCURVE",
"2400 563 OFFCURVE",
"2400 836 CURVE SMOOTH"
);
},
{
closed = 1;
nodes = (
"2102 602 OFFCURVE",
"2035 417 OFFCURVE",
"1894 280 CURVE SMOOTH",
"1761 149 OFFCURVE",
"1585 84 OFFCURVE",
"1368 84 CURVE SMOOTH",
"1200 84 OFFCURVE",
"1096 88 OFFCURVE",
"1055 97 CURVE SMOOTH",
"956 118 OFFCURVE",
"902 171 OFFCURVE",
"892 256 CURVE SMOOTH",
"871 440 OFFCURVE",
"860 700 OFFCURVE",
"860 1036 CURVE SMOOTH",
"860 1612 LINE SMOOTH",
"860 1969 OFFCURVE",
"869 2235 OFFCURVE",
"888 2411 CURVE SMOOTH",
"894 2468 OFFCURVE",
"936 2505 OFFCURVE",
"1014 2521 CURVE SMOOTH",
"1053 2528 OFFCURVE",
"1136 2532 OFFCURVE",
"1263 2532 CURVE SMOOTH",
"1426 2532 OFFCURVE",
"1557 2484 OFFCURVE",
"1658 2387 CURVE SMOOTH",
"1753 2296 OFFCURVE",
"1800 2186 OFFCURVE",
"1800 2055 CURVE SMOOTH",
"1800 1960 OFFCURVE",
"1773 1870 OFFCURVE",
"1719 1785 CURVE SMOOTH",
"1680 1722 OFFCURVE",
"1615 1667 OFFCURVE",
"1524 1619 CURVE SMOOTH",
"1429 1569 OFFCURVE",
"1335 1544 OFFCURVE",
"1244 1544 CURVE SMOOTH",
"1172 1544 LINE",
"1116 1456 LINE",
"1448 1456 LINE SMOOTH",
"1638 1456 OFFCURVE",
"1791 1402 OFFCURVE",
"1908 1293 CURVE SMOOTH",
"2029 1182 OFFCURVE",
"2091 1029 OFFCURVE",
"2096 835 CURVE SMOOTH"
);
}
);
};
layerId = "24D0D9E8-BA2F-4B13-8DB9-88CA40D3CAFC";
paths = (
{
closed = 1;
nodes = (
"327 -18 LINE SMOOTH",
"355 -18 OFFCURVE",
"379 -11 OFFCURVE",
"399 2 CURVE SMOOTH",
"404 5 OFFCURVE",
"418 16 OFFCURVE",
"441 36 CURVE SMOOTH",
"514 96 LINE SMOOTH",
"541 118 OFFCURVE",
"555 148 OFFCURVE",
"555 189 CURVE SMOOTH",
"555 273 OFFCURVE",
"486 334 OFFCURVE",
"342 378 CURVE",
"328 384 OFFCURVE",
"321 389 OFFCURVE",
"321 395 CURVE SMOOTH",
"321 396 LINE SMOOTH",
"321 400 OFFCURVE",
"334 412 OFFCURVE",
"380 447 CURVE SMOOTH",
"439 493 OFFCURVE",
"521 557 OFFCURVE",
"524 600 CURVE SMOOTH",
"528 653 OFFCURVE",
"457 679 OFFCURVE",
"331 679 CURVE SMOOTH",
"314 679 OFFCURVE",
"300 678 OFFCURVE",
"284 677 CURVE SMOOTH",
"218 673 OFFCURVE",
"174 656 OFFCURVE",
"153 624 CURVE SMOOTH",
"132 593 OFFCURVE",
"132 585 OFFCURVE",
"129 511 CURVE SMOOTH",
"128 473 OFFCURVE",
"125 419 OFFCURVE",
"120 336 CURVE SMOOTH",
"102 81 OFFCURVE",
"79 22 OFFCURVE",
"3 22 CURVE SMOOTH",
"-3 22 OFFCURVE",
"-6 18 OFFCURVE",
"-9 9 CURVE SMOOTH",
"-10 5 OFFCURVE",
"-12 -1 OFFCURVE",
"-16 -8 CURVE",
"0 -5 OFFCURVE",
"30 -5 OFFCURVE",
"58 -5 CURVE SMOOTH",
"70 -4 OFFCURVE",
"82 -4 OFFCURVE",
"92 -4 CURVE SMOOTH",
"110 -4 LINE SMOOTH",
"130 -3 OFFCURVE",
"151 -3 OFFCURVE",
"160 4 CURVE SMOOTH",
"173 15 OFFCURVE",
"174 36 OFFCURVE",
"174 55 CURVE",
"175 60 OFFCURVE",
"175 65 OFFCURVE",
"175 70 CURVE SMOOTH",
"190 236 LINE SMOOTH",
"200 365 OFFCURVE",
"211 481 OFFCURVE",
"223 565 CURVE SMOOTH",
"226 594 OFFCURVE",
"238 616 OFFCURVE",
"257 631 CURVE SMOOTH",
"274 645 OFFCURVE",
"294 652 OFFCURVE",
"317 652 CURVE SMOOTH",
"347 652 OFFCURVE",
"373 644 OFFCURVE",
"395 629 CURVE SMOOTH",
"417 611 OFFCURVE",
"427 589 OFFCURVE",
"425 560 CURVE SMOOTH",
"423 524 OFFCURVE",
"359 474 OFFCURVE",
"311 435 CURVE SMOOTH",
"299 425 OFFCURVE",
"288 417 OFFCURVE",
"279 409 CURVE SMOOTH",
"264 396 OFFCURVE",
"257 384 OFFCURVE",
"257 369 CURVE SMOOTH",
"257 355 OFFCURVE",
"266 342 OFFCURVE",
"281 332 CURVE",
"303 321 OFFCURVE",
"325 311 OFFCURVE",
"345 302 CURVE SMOOTH",
"389 281 OFFCURVE",
"426 264 OFFCURVE",
"444 240 CURVE SMOOTH",
"458 218 OFFCURVE",
"465 192 OFFCURVE",
"465 160 CURVE SMOOTH",
"465 109 OFFCURVE",
"445 71 OFFCURVE",
"404 44 CURVE SMOOTH",
"388 34 OFFCURVE",
"370 28 OFFCURVE",
"351 28 CURVE SMOOTH",
"309 28 OFFCURVE",
"269 50 OFFCURVE",
"231 94 CURVE SMOOTH",
"229 96 OFFCURVE",
"226 98 OFFCURVE",
"224 98 CURVE SMOOTH",
"214 98 OFFCURVE",
"211 84 OFFCURVE",
"211 63 CURVE SMOOTH",
"211 38 OFFCURVE",
"217 21 OFFCURVE",
"229 11 CURVE SMOOTH",
"249 -5 OFFCURVE",
"277 -15 OFFCURVE",
"312 -18 CURVE SMOOTH"
);
}
);
width = 592;
}
);
unicode = 1E9E;
},
{
glyphname = Schwa;
lastChange = "2021-11-09 07:01:49 +0000";
layers = (
{
layerId = "24D0D9E8-BA2F-4B13-8DB9-88CA40D3CAFC";
paths = (
{
closed = 1;
nodes = (
"407 -4 OFFCURVE",
"506 42 OFFCURVE",
"560 134 CURVE SMOOTH",
"592 192 OFFCURVE",
"611 266 OFFCURVE",
"617 354 CURVE SMOOTH",
"625 465 OFFCURVE",
"612 545 OFFCURVE",
"580 595 CURVE SMOOTH",
"544 653 OFFCURVE",
"475 682 OFFCURVE",
"374 682 CURVE SMOOTH",
"228 682 OFFCURVE",
"132 663 OFFCURVE",
"89 624 CURVE SMOOTH",
"73 610 OFFCURVE",
"64 592 OFFCURVE",
"67 581 CURVE",
"66 559 OFFCURVE",
"66 540 OFFCURVE",
"67 525 CURVE",
"57 445 LINE SMOOTH",
"56 437 OFFCURVE",
"55 430 OFFCURVE",
"55 424 CURVE",
"93 443 LINE",
"94 448 OFFCURVE",
"95 454 OFFCURVE",
"97 462 CURVE SMOOTH",
"127 579 OFFCURVE",
"206 640 OFFCURVE",
"329 640 CURVE SMOOTH",
"425 640 OFFCURVE",
"492 601 OFFCURVE",
"516 534 CURVE SMOOTH",
"529 495 OFFCURVE",
"528 435 OFFCURVE",
"522 353 CURVE SMOOTH",
"519 314 LINE",
"471 310 OFFCURVE",
"411 308 OFFCURVE",
"325 307 CURVE",
"318 308 OFFCURVE",
"300 307 OFFCURVE",
"271 306 CURVE SMOOTH",
"257 305 OFFCURVE",
"241 305 OFFCURVE",
"222 304 CURVE SMOOTH",
"188 303 OFFCURVE",
"158 304 OFFCURVE",
"130 308 CURVE",
"121 308 OFFCURVE",
"105 291 OFFCURVE",
"80 260 CURVE SMOOTH",
"59 235 OFFCURVE",
"44 217 OFFCURVE",
"37 207 CURVE",
"31 142 OFFCURVE",
"48 91 OFFCURVE",
"84 55 CURVE SMOOTH",
"123 16 OFFCURVE",
"183 -4 OFFCURVE",
"266 -4 CURVE SMOOTH"
);
},
{
closed = 1;
nodes = (
"206 36 OFFCURVE",
"150 81 OFFCURVE",
"132 158 CURVE SMOOTH",
"128 174 OFFCURVE",
"128 189 OFFCURVE",
"128 202 CURVE SMOOTH",
"130 228 OFFCURVE",
"145 248 OFFCURVE",
"161 251 CURVE SMOOTH",
"196 256 OFFCURVE",
"252 260 OFFCURVE",
"330 262 CURVE SMOOTH",
"355 263 OFFCURVE",
"377 263 OFFCURVE",
"396 263 CURVE SMOOTH",
"453 263 OFFCURVE",
"490 261 OFFCURVE",
"511 257 CURVE",
"509 237 OFFCURVE",
"507 218 OFFCURVE",
"505 213 CURVE SMOOTH",
"481 102 OFFCURVE",
"399 36 OFFCURVE",
"287 36 CURVE SMOOTH"
);
}
);
width = 649;
}
);
unicode = 018F;
},
{
color = 9;
glyphname = T;
lastChange = "2021-11-16 05:15:43 +0000";
layers = (
{
background = {
paths = (
{
closed = 1;
nodes = (
"192 0 OFFCURVE",
"249 3 OFFCURVE",
"277 3 CURVE SMOOTH",
"358 4 OFFCURVE",
"407 1 OFFCURVE",
"431 -8 CURVE",
"449 25 LINE",
"440 23 OFFCURVE",
"431 23 OFFCURVE",
"421 23 CURVE SMOOTH",
"407 23 OFFCURVE",
"392 25 OFFCURVE",
"376 29 CURVE SMOOTH",
"349 37 OFFCURVE",
"336 48 OFFCURVE",
"335 65 CURVE SMOOTH",
"334 77 OFFCURVE",
"334 92 OFFCURVE",
"334 109 CURVE SMOOTH",
"334 150 OFFCURVE",
"336 205 OFFCURVE",
"341 274 CURVE SMOOTH",
"350 407 LINE SMOOTH",
"359 528 OFFCURVE",
"367 597 OFFCURVE",
"374 613 CURVE SMOOTH",
"378 623 OFFCURVE",
"386 628 OFFCURVE",
"403 628 CURVE SMOOTH",
"503 628 OFFCURVE",
"558 619 OFFCURVE",
"565 602 CURVE SMOOTH",
"568 596 OFFCURVE",
"569 588 OFFCURVE",
"569 578 CURVE SMOOTH",
"569 561 OFFCURVE",
"565 539 OFFCURVE",
"556 510 CURVE",
"583 499 LINE",
"580 501 OFFCURVE",
"585 527 OFFCURVE",
"598 576 CURVE SMOOTH",
"610 616 OFFCURVE",
"620 647 OFFCURVE",
"629 669 CURVE",
"625 674 LINE",
"536 668 OFFCURVE",
"435 665 OFFCURVE",
"325 665 CURVE SMOOTH",
"238 665 OFFCURVE",
"150 668 OFFCURVE",
"62 674 CURVE",
"58 670 LINE",
"49 624 OFFCURVE",
"41 583 OFFCURVE",
"33 547 CURVE SMOOTH",
"30 534 OFFCURVE",
"28 523 OFFCURVE",
"25 512 CURVE",
"51 500 LINE",
"58 543 OFFCURVE",
"71 577 OFFCURVE",
"89 603 CURVE SMOOTH",
"100 619 OFFCURVE",
"151 628 OFFCURVE",
"242 628 CURVE SMOOTH",
"260 628 OFFCURVE",
"269 623 OFFCURVE",
"270 615 CURVE",
"271 612 OFFCURVE",
"271 605 OFFCURVE",
"271 594 CURVE SMOOTH",
"271 579 OFFCURVE",
"271 556 OFFCURVE",
"270 525 CURVE SMOOTH",
"269 472 OFFCURVE",
"267 433 OFFCURVE",
"265 407 CURVE SMOOTH",
"256 267 LINE SMOOTH",
"250 181 OFFCURVE",
"242 113 OFFCURVE",
"234 66 CURVE",
"224 35 OFFCURVE",
"194 20 OFFCURVE",
"140 20 CURVE SMOOTH",
"133 20 OFFCURVE",
"126 21 OFFCURVE",
"122 23 CURVE",
"105 -8 LINE"
);
}
);
};
layerId = "24D0D9E8-BA2F-4B13-8DB9-88CA40D3CAFC";
paths = (
{
closed = 1;
nodes = (
"189 0 OFFCURVE",
"246 3 OFFCURVE",
"274 3 CURVE SMOOTH",
"316 3 OFFCURVE",
"404 1 OFFCURVE",
"428 -8 CURVE",
"446 25 LINE",
"411 17 OFFCURVE",
"334 27 OFFCURVE",
"332 65 CURVE SMOOTH",
"327 122 OFFCURVE",
"340 309 OFFCURVE",
"354 521 CURVE SMOOTH",
"359 591 OFFCURVE",
"366 628 OFFCURVE",
"416 628 CURVE SMOOTH",
"500 628 OFFCURVE",
"555 619 OFFCURVE",
"562 602 CURVE SMOOTH",
"572 583 OFFCURVE",
"563 541 OFFCURVE",
"553 510 CURVE",
"580 499 LINE",
"572 505 OFFCURVE",
"612 635 OFFCURVE",
"626 669 CURVE",
"622 674 LINE",
"533 668 OFFCURVE",
"432 665 OFFCURVE",
"322 665 CURVE SMOOTH",
"235 665 OFFCURVE",
"147 668 OFFCURVE",
"59 674 CURVE",
"55 670 LINE",
"46 623 OFFCURVE",
"26 525 OFFCURVE",
"22 512 CURVE",
"48 500 LINE",
"55 543 OFFCURVE",
"68 577 OFFCURVE",
"86 603 CURVE SMOOTH",
"97 619 OFFCURVE",
"148 628 OFFCURVE",
"225 628 CURVE SMOOTH",
"276 628 OFFCURVE",
"270 609 OFFCURVE",
"267 525 CURVE SMOOTH",
"265 415 OFFCURVE",
"250 169 OFFCURVE",
"231 66 CURVE SMOOTH",
"224 28 OFFCURVE",
"174 16 OFFCURVE",
"119 23 CURVE",
"102 -8 LINE"
);
}
);
width = 613;
}
);
leftKerningGroup = T;
note = T;
rightKerningGroup = T;
unicode = 0054;
},
{
color = 9;
glyphname = U;
lastChange = "2021-11-16 04:43:51 +0000";
layers = (
{
background = {
paths = (
{
closed = 1;
nodes = (
"456 -24 OFFCURVE",
"522 -4 OFFCURVE",
"576 36 CURVE SMOOTH",
"644 85 OFFCURVE",
"683 163 OFFCURVE",
"690 269 CURVE SMOOTH",
"704 476 LINE SMOOTH",
"709 556 OFFCURVE",
"718 606 OFFCURVE",
"730 627 CURVE",
"743 642 OFFCURVE",
"763 649 OFFCURVE",
"789 649 CURVE SMOOTH",
"795 649 OFFCURVE",
"801 649 OFFCURVE",
"807 648 CURVE",
"830 675 LINE",
"784 671 OFFCURVE",
"733 666 OFFCURVE",
"677 664 CURVE",
"613 667 OFFCURVE",
"570 670 OFFCURVE",
"547 673 CURVE",
"530 643 LINE",
"541 646 OFFCURVE",
"553 648 OFFCURVE",
"566 648 CURVE SMOOTH",
"603 648 OFFCURVE",
"622 641 OFFCURVE",
"628 634 CURVE SMOOTH",
"641 619 OFFCURVE",
"648 580 OFFCURVE",
"648 515 CURVE SMOOTH",
"648 487 OFFCURVE",
"647 453 OFFCURVE",
"644 414 CURVE SMOOTH",
"633 253 LINE SMOOTH",
"628 180 OFFCURVE",
"604 121 OFFCURVE",
"563 80 CURVE SMOOTH",
"518 37 OFFCURVE",
"456 16 OFFCURVE",
"378 16 CURVE SMOOTH",
"245 16 OFFCURVE",
"180 82 OFFCURVE",
"180 217 CURVE SMOOTH",
"180 227 OFFCURVE",
"180 237 OFFCURVE",
"181 247 CURVE SMOOTH",
"188 348 OFFCURVE",
"193 414 OFFCURVE",
"192 395 CURVE SMOOTH",
"201 529 OFFCURVE",
"211 603 OFFCURVE",
"224 627 CURVE",
"239 642 OFFCURVE",
"258 649 OFFCURVE",
"283 649 CURVE SMOOTH",
"289 649 OFFCURVE",
"295 649 OFFCURVE",
"301 648 CURVE",
"324 675 LINE",
"278 671 OFFCURVE",
"227 666 OFFCURVE",
"171 664 CURVE",
"101 667 OFFCURVE",
"56 670 OFFCURVE",
"36 673 CURVE",
"20 643 LINE",
"35 647 OFFCURVE",
"49 649 OFFCURVE",
"61 649 CURVE SMOOTH",
"81 649 OFFCURVE",
"96 644 OFFCURVE",
"108 634 CURVE",
"115 626 OFFCURVE",
"118 599 OFFCURVE",
"118 551 CURVE SMOOTH",
"118 511 OFFCURVE",
"116 457 OFFCURVE",
"111 389 CURVE SMOOTH",
"100 222 LINE SMOOTH",
"94 134 OFFCURVE",
"115 70 OFFCURVE",
"165 30 CURVE SMOOTH",
"209 -6 OFFCURVE",
"280 -24 OFFCURVE",
"376 -24 CURVE SMOOTH"
);
}
);
};
layerId = "24D0D9E8-BA2F-4B13-8DB9-88CA40D3CAFC";
paths = (
{
closed = 1;
nodes = (
"557 -24 OFFCURVE",
"677 81 OFFCURVE",
"690 269 CURVE SMOOTH",
"707 522 LINE SMOOTH",
"713 606 OFFCURVE",
"725 660 OFFCURVE",
"807 648 CURVE",
"830 675 LINE",
"784 671 OFFCURVE",
"725 664 OFFCURVE",
"677 664 CURVE SMOOTH",
"613 664 OFFCURVE",
"570 670 OFFCURVE",
"547 673 CURVE",
"530 643 LINE",
"619 660 OFFCURVE",
"648 636 OFFCURVE",
"648 552 CURVE SMOOTH",
"648 474 OFFCURVE",
"647 452 OFFCURVE",
"633 253 CURVE SMOOTH",
"623 102 OFFCURVE",
"535 16 OFFCURVE",
"378 16 CURVE SMOOTH",
"232 16 OFFCURVE",
"167 102 OFFCURVE",
"181 247 CURVE SMOOTH",
"185 306 OFFCURVE",
"194 482 OFFCURVE",
"203 546 CURVE SMOOTH",
"212 616 OFFCURVE",
"233 656 OFFCURVE",
"301 648 CURVE",
"324 675 LINE",
"278 671 OFFCURVE",
"221 664 OFFCURVE",
"171 664 CURVE SMOOTH",
"101 664 OFFCURVE",
"56 670 OFFCURVE",
"36 673 CURVE",
"20 643 LINE",
"108 660 OFFCURVE",
"118 641 OFFCURVE",
"118 551 CURVE SMOOTH",
"118 507 OFFCURVE",
"114 437 OFFCURVE",
"100 222 CURVE SMOOTH",
"88 46 OFFCURVE",
"184 -24 OFFCURVE",
"376 -24 CURVE SMOOTH"
);
}
);
width = 790;
}
);
leftKerningGroup = U;
leftMetricsKey = "=H+15";
note = U;
rightKerningGroup = U;
rightMetricsKey = "=H-45";
unicode = 0055;
},
{
color = 9;
glyphname = V;
lastChange = "2021-11-16 05:15:25 +0000";
layers = (
{
background = {
paths = (
{
closed = 1;
nodes = (
"372 -31 LINE",
"390 36 OFFCURVE",
"440 153 OFFCURVE",
"522 322 CURVE SMOOTH",
"611 504 OFFCURVE",
"675 607 OFFCURVE",
"709 628 CURVE SMOOTH",
"731 640 OFFCURVE",
"753 646 OFFCURVE",
"775 646 CURVE",
"794 674 LINE",
"751 669 OFFCURVE",
"720 667 OFFCURVE",
"699 667 CURVE SMOOTH",
"644 666 OFFCURVE",
"602 662 OFFCURVE",
"602 659 CURVE SMOOTH",
"602 658 OFFCURVE",
"615 657 OFFCURVE",
"648 657 CURVE SMOOTH",
"652 657 OFFCURVE",
"636 666 OFFCURVE",
"599 668 CURVE SMOOTH",
"555 669 OFFCURVE",
"531 671 OFFCURVE",
"525 674 CURVE",
"502 642 LINE",
"513 643 OFFCURVE",
"523 645 OFFCURVE",
"536 645 CURVE SMOOTH",
"574 645 OFFCURVE",
"592 635 OFFCURVE",
"592 614 CURVE SMOOTH",
"592 589 OFFCURVE",
"557 498 OFFCURVE",
"498 363 CURVE SMOOTH",
"442 235 OFFCURVE",
"402 150 OFFCURVE",
"378 106 CURVE",
"373 99 OFFCURVE",
"372 99 OFFCURVE",
"372 99 CURVE",
"373 99 OFFCURVE",
"370 103 OFFCURVE",
"368 107 CURVE",
"319 266 LINE SMOOTH",
"265 442 OFFCURVE",
"238 556 OFFCURVE",
"238 607 CURVE SMOOTH",
"238 620 OFFCURVE",
"242 631 OFFCURVE",
"263 638 CURVE SMOOTH",
"276 642 OFFCURVE",
"290 645 OFFCURVE",
"304 645 CURVE SMOOTH",
"306 645 OFFCURVE",
"307 645 OFFCURVE",
"309 644 CURVE",
"316 644 LINE",
"338 675 LINE",
"279 668 OFFCURVE",
"228 665 OFFCURVE",
"187 665 CURVE",
"186 657 LINE",
"187 657 OFFCURVE",
"178 665 OFFCURVE",
"160 666 CURVE SMOOTH",
"152 667 OFFCURVE",
"143 667 OFFCURVE",
"132 668 CURVE SMOOTH",
"87 670 OFFCURVE",
"61 671 OFFCURVE",
"51 674 CURVE",
"35 644 LINE",
"43 645 OFFCURVE",
"52 647 OFFCURVE",
"64 647 CURVE SMOOTH",
"91 647 OFFCURVE",
"112 642 OFFCURVE",
"125 631 CURVE SMOOTH",
"131 625 OFFCURVE",
"152 564 OFFCURVE",
"183 462 CURVE SMOOTH",
"239 265 LINE SMOOTH",
"242 252 OFFCURVE",
"246 239 OFFCURVE",
"250 227 CURVE SMOOTH",
"262 185 OFFCURVE",
"272 148 OFFCURVE",
"280 119 CURVE SMOOTH",
"291 73 LINE SMOOTH",
"293 65 OFFCURVE",
"295 57 OFFCURVE",
"297 51 CURVE SMOOTH",
"301 38 OFFCURVE",
"311 22 OFFCURVE",
"325 5 CURVE SMOOTH",
"343 -16 OFFCURVE",
"356 -34 OFFCURVE",
"356 -38 CURVE"
);
}
);
};
layerId = "24D0D9E8-BA2F-4B13-8DB9-88CA40D3CAFC";
paths = (
{
closed = 1;
nodes = (
"372 -31 LINE",
"390 36 OFFCURVE",
"440 153 OFFCURVE",
"522 322 CURVE SMOOTH",
"611 504 OFFCURVE",
"675 607 OFFCURVE",
"709 628 CURVE SMOOTH",
"731 640 OFFCURVE",
"753 646 OFFCURVE",
"775 646 CURVE",
"794 674 LINE",
"751 669 OFFCURVE",
"699 668 OFFCURVE",
"655 668 CURVE SMOOTH",
"619 668 OFFCURVE",
"539 668 OFFCURVE",
"525 674 CURVE",
"502 642 LINE",
"543 646 OFFCURVE",
"592 650 OFFCURVE",
"592 614 CURVE SMOOTH",
"592 589 OFFCURVE",
"557 498 OFFCURVE",
"498 363 CURVE SMOOTH",
"458 272 OFFCURVE",
"391 141 OFFCURVE",
"372 118 CURVE",
"321 266 OFFCURVE",
"255 480 OFFCURVE",
"240 594 CURVE SMOOTH",
"234 638 OFFCURVE",
"280 646 OFFCURVE",
"316 644 CURVE",
"338 675 LINE",
"279 668 OFFCURVE",
"230 665 OFFCURVE",
"187 665 CURVE SMOOTH",
"160 665 OFFCURVE",
"64 670 OFFCURVE",
"51 674 CURVE",
"35 644 LINE",
"43 645 OFFCURVE",
"52 647 OFFCURVE",
"64 647 CURVE SMOOTH",
"147 647 OFFCURVE",
"146 593 OFFCURVE",
"183 462 CURVE SMOOTH",
"193 426 OFFCURVE",
"305 28 OFFCURVE",
"297 51 CURVE SMOOTH",
"301 38 OFFCURVE",
"311 22 OFFCURVE",
"325 5 CURVE SMOOTH",
"343 -16 OFFCURVE",
"350 -26 OFFCURVE",
"356 -38 CURVE"
);
}
);
width = 751;
}
);
leftKerningGroup = V;
note = V;
rightKerningGroup = V;
unicode = 0056;
},
{
color = 9;
glyphname = W;
lastChange = "2021-11-16 05:19:39 +0000";
layers = (
{
background = {
paths = (
{
closed = 1;
nodes = (
"372 -31 LINE",
"386 22 OFFCURVE",
"432 133 OFFCURVE",
"510 301 CURVE",
"520 265 LINE SMOOTH",
"538 206 OFFCURVE",
"551 157 OFFCURVE",
"562 119 CURVE SMOOTH",
"565 105 OFFCURVE",
"568 93 OFFCURVE",
"570 82 CURVE SMOOTH",
"574 69 OFFCURVE",
"576 59 OFFCURVE",
"578 51 CURVE SMOOTH",
"581 40 OFFCURVE",
"590 25 OFFCURVE",
"606 5 CURVE SMOOTH",
"624 -16 OFFCURVE",
"637 -34 OFFCURVE",
"637 -38 CURVE",
"653 -31 LINE",
"671 36 OFFCURVE",
"721 153 OFFCURVE",
"804 322 CURVE SMOOTH",
"891 503 OFFCURVE",
"955 607 OFFCURVE",
"990 628 CURVE SMOOTH",
"1012 640 OFFCURVE",
"1035 646 OFFCURVE",
"1057 646 CURVE",
"1076 674 LINE",
"1032 669 OFFCURVE",
"1001 667 OFFCURVE",
"980 667 CURVE SMOOTH",
"915 665 OFFCURVE",
"869 662 OFFCURVE",
"869 659 CURVE SMOOTH",
"869 658 OFFCURVE",
"887 657 OFFCURVE",
"930 657 CURVE SMOOTH",
"934 657 OFFCURVE",
"918 666 OFFCURVE",
"880 668 CURVE SMOOTH",
"836 669 OFFCURVE",
"812 671 OFFCURVE",
"806 674 CURVE",
"784 642 LINE",
"795 644 OFFCURVE",
"807 645 OFFCURVE",
"817 645 CURVE SMOOTH",
"856 645 OFFCURVE",
"874 635 OFFCURVE",
"874 614 CURVE SMOOTH",
"874 591 OFFCURVE",
"841 506 OFFCURVE",
"780 363 CURVE SMOOTH",
"723 235 OFFCURVE",
"683 150 OFFCURVE",
"659 106 CURVE SMOOTH",
"657 102 OFFCURVE",
"654 99 OFFCURVE",
"654 99 CURVE",
"653 99 OFFCURVE",
"651 102 OFFCURVE",
"649 107 CURVE SMOOTH",
"627 178 OFFCURVE",
"611 231 OFFCURVE",
"601 266 CURVE SMOOTH",
"592 296 OFFCURVE",
"579 344 OFFCURVE",
"563 412 CURVE",
"629 545 OFFCURVE",
"671 618 OFFCURVE",
"687 628 CURVE SMOOTH",
"702 636 OFFCURVE",
"715 641 OFFCURVE",
"720 640 CURVE",
"738 668 LINE",
"717 665 OFFCURVE",
"694 665 OFFCURVE",
"672 666 CURVE SMOOTH",
"660 667 OFFCURVE",
"650 668 OFFCURVE",
"641 668 CURVE SMOOTH",
"626 668 OFFCURVE",
"616 666 OFFCURVE",
"615 658 CURVE SMOOTH",
"614 637 OFFCURVE",
"588 568 OFFCURVE",
"543 463 CURVE",
"550 463 LINE",
"527 561 OFFCURVE",
"515 626 OFFCURVE",
"513 654 CURVE SMOOTH",
"513 664 OFFCURVE",
"496 667 OFFCURVE",
"468 668 CURVE SMOOTH",
"413 668 LINE SMOOTH",
"398 668 OFFCURVE",
"387 668 OFFCURVE",
"381 667 CURVE SMOOTH",
"375 667 LINE",
"371 665 LINE",
"356 637 LINE",
"364 639 OFFCURVE",
"372 641 OFFCURVE",
"379 641 CURVE SMOOTH",
"389 641 OFFCURVE",
"398 638 OFFCURVE",
"406 631 CURVE SMOOTH",
"415 623 OFFCURVE",
"446 528 OFFCURVE",
"496 354 CURVE",
"438 227 OFFCURVE",
"398 144 OFFCURVE",
"378 106 CURVE",
"373 99 OFFCURVE",
"372 99 OFFCURVE",
"372 99 CURVE",
"373 99 OFFCURVE",
"370 103 OFFCURVE",
"368 107 CURVE",
"319 266 LINE SMOOTH",
"265 442 OFFCURVE",
"238 556 OFFCURVE",
"238 607 CURVE SMOOTH",
"238 620 OFFCURVE",
"242 631 OFFCURVE",
"263 638 CURVE SMOOTH",
"276 642 OFFCURVE",
"290 645 OFFCURVE",
"304 645 CURVE SMOOTH",
"306 645 OFFCURVE",
"307 645 OFFCURVE",
"309 644 CURVE",
"316 644 LINE",
"338 675 LINE",
"279 668 OFFCURVE",
"228 665 OFFCURVE",
"187 665 CURVE",
"186 657 LINE",
"187 657 OFFCURVE",
"178 665 OFFCURVE",
"160 666 CURVE SMOOTH",
"152 667 OFFCURVE",
"143 667 OFFCURVE",
"132 668 CURVE SMOOTH",
"87 670 OFFCURVE",
"61 671 OFFCURVE",
"51 674 CURVE",
"35 644 LINE",
"43 645 OFFCURVE",
"52 647 OFFCURVE",
"64 647 CURVE SMOOTH",
"91 647 OFFCURVE",
"112 642 OFFCURVE",
"125 631 CURVE SMOOTH",
"131 625 OFFCURVE",
"152 564 OFFCURVE",
"183 462 CURVE SMOOTH",
"239 265 LINE SMOOTH",
"242 252 OFFCURVE",
"246 239 OFFCURVE",
"250 227 CURVE SMOOTH",
"262 185 OFFCURVE",
"272 148 OFFCURVE",
"280 119 CURVE SMOOTH",
"291 73 LINE SMOOTH",
"293 65 OFFCURVE",
"295 57 OFFCURVE",
"297 51 CURVE SMOOTH",
"301 38 OFFCURVE",
"311 22 OFFCURVE",
"325 5 CURVE SMOOTH",
"343 -16 OFFCURVE",
"356 -34 OFFCURVE",
"356 -38 CURVE"
);
}
);
};
layerId = "24D0D9E8-BA2F-4B13-8DB9-88CA40D3CAFC";
paths = (
{
closed = 1;
nodes = (
"997 668 OFFCURVE",
"934 665 CURVE",
"914 666 OFFCURVE",
"816 669 OFFCURVE",
"806 674 CURVE",
"784 642 LINE",
"820 649 OFFCURVE",
"874 648 OFFCURVE",
"874 614 CURVE SMOOTH",
"874 591 OFFCURVE",
"841 506 OFFCURVE",
"780 363 CURVE SMOOTH",
"714 215 OFFCURVE",
"683 150 OFFCURVE",
"654 99 CURVE",
"638 131 OFFCURVE",
"579 342 OFFCURVE",
"563 412 CURVE",
"598 483 OFFCURVE",
"626 536 OFFCURVE",
"648 573 CURVE SMOOTH",
"664 601 OFFCURVE",
"692 646 OFFCURVE",
"726 640 CURVE",
"744 668 LINE",
"723 665 OFFCURVE",
"694 665 OFFCURVE",
"672 666 CURVE SMOOTH",
"660 667 OFFCURVE",
"650 668 OFFCURVE",
"641 668 CURVE SMOOTH",
"626 668 OFFCURVE",
"616 666 OFFCURVE",
"615 658 CURVE SMOOTH",
"614 648 OFFCURVE",
"608 625 OFFCURVE",
"595 592 CURVE SMOOTH",
"584 561 OFFCURVE",
"568 521 OFFCURVE",
"548 474 CURVE",
"526 566 OFFCURVE",
"515 627 OFFCURVE",
"513 658 CURVE SMOOTH",
"513 665 OFFCURVE",
"507 666 OFFCURVE",
"494 666 CURVE SMOOTH",
"483 666 OFFCURVE",
"467 665 OFFCURVE",
"445 665 CURVE SMOOTH",
"401 665 OFFCURVE",
"383 667 OFFCURVE",
"372 667 CURVE",
"356 637 LINE",
"394 646 OFFCURVE",
"405 640 OFFCURVE",
"417 608 CURVE SMOOTH",
"432 569 OFFCURVE",
"459 484 OFFCURVE",
"496 354 CURVE",
"451 254 OFFCURVE",
"384 114 OFFCURVE",
"370 99 CURVE",
"339 150 OFFCURVE",
"238 537 OFFCURVE",
"238 607 CURVE SMOOTH",
"238 636 OFFCURVE",
"281 649 OFFCURVE",
"316 644 CURVE",
"338 675 LINE",
"279 668 OFFCURVE",
"232 665 OFFCURVE",
"187 665 CURVE SMOOTH",
"155 665 OFFCURVE",
"60 671 OFFCURVE",
"51 674 CURVE",
"35 644 LINE",
"77 651 OFFCURVE",
"118 652 OFFCURVE",
"134 613 CURVE SMOOTH",
"180 501 OFFCURVE",
"292 65 OFFCURVE",
"297 51 CURVE SMOOTH",
"301 38 OFFCURVE",
"311 22 OFFCURVE",
"325 5 CURVE SMOOTH",
"343 -16 OFFCURVE",
"356 -34 OFFCURVE",
"356 -38 CURVE",
"372 -31 LINE",
"386 22 OFFCURVE",
"432 133 OFFCURVE",
"510 301 CURVE",
"517 272 OFFCURVE",
"562 119 OFFCURVE",
"578 51 CURVE SMOOTH",
"581 40 OFFCURVE",
"590 25 OFFCURVE",
"606 5 CURVE SMOOTH",
"624 -16 OFFCURVE",
"637 -34 OFFCURVE",
"637 -38 CURVE",
"653 -31 LINE",
"671 36 OFFCURVE",
"721 153 OFFCURVE",
"804 322 CURVE SMOOTH",
"891 503 OFFCURVE",
"955 607 OFFCURVE",
"990 628 CURVE SMOOTH",
"1012 640 OFFCURVE",
"1035 646 OFFCURVE",
"1057 646 CURVE",
"1076 674 LINE",
"1051 671 OFFCURVE"
);
}
);
width = 1033;
}
);
leftKerningGroup = V;
leftMetricsKey = V;
note = W;
rightKerningGroup = V;
rightMetricsKey = V;
unicode = 0057;
},
{
color = 9;
glyphname = X;
lastChange = "2021-11-16 04:07:09 +0000";
layers = (
{
background = {
paths = (
{
closed = 1;
nodes = (
"28 -2 OFFCURVE",
"71 1 OFFCURVE",
"107 1 CURVE SMOOTH",
"179 1 OFFCURVE",
"233 -1 OFFCURVE",
"270 -6 CURVE",
"285 19 LINE",
"281 25 LINE",
"279 24 OFFCURVE",
"274 24 OFFCURVE",
"259 24 CURVE SMOOTH",
"223 24 OFFCURVE",
"205 33 OFFCURVE",
"206 49 CURVE",
"207 50 OFFCURVE",
"207 50 OFFCURVE",
"207 51 CURVE SMOOTH",
"207 52 OFFCURVE",
"208 53 OFFCURVE",
"208 54 CURVE",
"218 84 OFFCURVE",
"267 160 OFFCURVE",
"362 293 CURVE",
"426 183 OFFCURVE",
"468 108 OFFCURVE",
"486 67 CURVE SMOOTH",
"489 61 OFFCURVE",
"490 56 OFFCURVE",
"490 52 CURVE SMOOTH",
"490 49 LINE SMOOTH",
"489 31 OFFCURVE",
"468 23 OFFCURVE",
"426 23 CURVE",
"411 -7 LINE",
"444 -2 OFFCURVE",
"501 2 OFFCURVE",
"583 2 CURVE SMOOTH",
"622 2 OFFCURVE",
"667 -1 OFFCURVE",
"715 -8 CURVE",
"732 23 LINE",
"661 25 OFFCURVE",
"616 38 OFFCURVE",
"600 58 CURVE SMOOTH",
"557 113 OFFCURVE",
"494 212 OFFCURVE",
"409 358 CURVE",
"500 481 OFFCURVE",
"565 565 OFFCURVE",
"605 611 CURVE SMOOTH",
"616 624 OFFCURVE",
"637 633 OFFCURVE",
"665 639 CURVE",
"725 646 LINE",
"744 673 LINE",
"590 667 LINE SMOOTH",
"579 667 OFFCURVE",
"555 668 OFFCURVE",
"516 670 CURVE SMOOTH",
"451 673 LINE",
"447 671 LINE",
"431 646 LINE",
"501 647 OFFCURVE",
"536 636 OFFCURVE",
"536 617 CURVE",
"519 585 OFFCURVE",
"470 510 OFFCURVE",
"388 394 CURVE",
"322 510 OFFCURVE",
"284 585 OFFCURVE",
"278 615 CURVE",
"278 618 LINE",
"277 619 OFFCURVE",
"277 619 OFFCURVE",
"277 620 CURVE SMOOTH",
"279 636 OFFCURVE",
"298 645 OFFCURVE",
"335 645 CURVE SMOOTH",
"337 645 OFFCURVE",
"339 645 OFFCURVE",
"341 644 CURVE",
"349 644 LINE",
"362 675 LINE",
"304 668 OFFCURVE",
"254 665 OFFCURVE",
"210 665 CURVE SMOOTH",
"149 668 LINE SMOOTH",
"142 668 OFFCURVE",
"136 669 OFFCURVE",
"130 669 CURVE SMOOTH",
"95 671 OFFCURVE",
"73 672 OFFCURVE",
"66 674 CURVE",
"60 652 LINE",
"46 644 OFFCURVE",
"67 644 OFFCURVE",
"87 644 CURVE SMOOTH",
"119 644 OFFCURVE",
"138 639 OFFCURVE",
"149 631 CURVE SMOOTH",
"163 621 OFFCURVE",
"228 520 OFFCURVE",
"341 328 CURVE",
"255 207 OFFCURVE",
"191 122 OFFCURVE",
"151 73 CURVE SMOOTH",
"123 38 OFFCURVE",
"71 21 OFFCURVE",
"-7 21 CURVE",
"-21 -8 LINE"
);
}
);
};
layerId = "24D0D9E8-BA2F-4B13-8DB9-88CA40D3CAFC";
paths = (
{
closed = 1;
nodes = (
"28 -2 OFFCURVE",
"71 1 OFFCURVE",
"107 1 CURVE SMOOTH",
"179 1 OFFCURVE",
"233 -1 OFFCURVE",
"270 -6 CURVE",
"287 25 LINE",
"250 19 OFFCURVE",
"192 21 OFFCURVE",
"213 65 CURVE SMOOTH",
"240 121 OFFCURVE",
"303 210 OFFCURVE",
"362 293 CURVE",
"426 183 OFFCURVE",
"467 108 OFFCURVE",
"480 83 CURVE SMOOTH",
"504 36 OFFCURVE",
"475 23 OFFCURVE",
"426 23 CURVE",
"411 -7 LINE",
"444 -2 OFFCURVE",
"501 2 OFFCURVE",
"583 2 CURVE SMOOTH",
"622 2 OFFCURVE",
"667 -1 OFFCURVE",
"715 -8 CURVE",
"732 23 LINE",
"661 25 OFFCURVE",
"616 38 OFFCURVE",
"600 58 CURVE SMOOTH",
"557 113 OFFCURVE",
"494 212 OFFCURVE",
"409 358 CURVE",
"500 481 OFFCURVE",
"565 565 OFFCURVE",
"605 611 CURVE SMOOTH",
"625 635 OFFCURVE",
"685 644 OFFCURVE",
"725 646 CURVE",
"744 673 LINE",
"725 671 OFFCURVE",
"639 667 OFFCURVE",
"590 667 CURVE SMOOTH",
"556 667 OFFCURVE",
"469 672 OFFCURVE",
"449 673 CURVE",
"431 646 LINE",
"459 646 OFFCURVE",
"481 645 OFFCURVE",
"497 642 CURVE SMOOTH",
"529 636 OFFCURVE",
"542 627 OFFCURVE",
"523 595 CURVE SMOOTH",
"500 556 OFFCURVE",
"455 489 OFFCURVE",
"388 394 CURVE",
"358 446 OFFCURVE",
"305 543 OFFCURVE",
"285 593 CURVE SMOOTH",
"267 638 OFFCURVE",
"288 646 OFFCURVE",
"349 644 CURVE",
"367 673 LINE",
"330 669 OFFCURVE",
"264 666 OFFCURVE",
"203 666 CURVE SMOOTH",
"154 666 OFFCURVE",
"105 668 OFFCURVE",
"66 674 CURVE",
"49 645 LINE",
"59 645 OFFCURVE",
"81 645 OFFCURVE",
"101 643 CURVE SMOOTH",
"150 638 OFFCURVE",
"151 633 OFFCURVE",
"177 595 CURVE SMOOTH",
"209 548 OFFCURVE",
"264 460 OFFCURVE",
"341 328 CURVE",
"255 207 OFFCURVE",
"191 122 OFFCURVE",
"151 73 CURVE SMOOTH",
"123 38 OFFCURVE",
"71 21 OFFCURVE",
"-7 21 CURVE",
"-21 -8 LINE"
);
}
);
width = 765;
}
);
leftKerningGroup = Y;
note = X;
rightKerningGroup = Y;
unicode = 0058;
},
{
color = 9;
glyphname = Y;
lastChange = "2021-11-16 05:11:51 +0000";
layers = (
{
background = {
paths = (
{
closed = 1;
nodes = (
"222 0 OFFCURVE",
"279 3 OFFCURVE",
"307 3 CURVE SMOOTH",
"388 4 OFFCURVE",
"439 1 OFFCURVE",
"461 -8 CURVE",
"479 25 LINE",
"470 23 OFFCURVE",
"461 23 OFFCURVE",
"451 23 CURVE SMOOTH",
"436 23 OFFCURVE",
"421 25 OFFCURVE",
"404 29 CURVE SMOOTH",
"376 36 OFFCURVE",
"363 48 OFFCURVE",
"363 64 CURVE SMOOTH",
"362 81 OFFCURVE",
"361 98 OFFCURVE",
"361 114 CURVE SMOOTH",
"361 134 OFFCURVE",
"362 153 OFFCURVE",
"363 173 CURVE SMOOTH",
"369 254 OFFCURVE",
"386 318 OFFCURVE",
"415 365 CURVE SMOOTH",
"485 478 OFFCURVE",
"543 560 OFFCURVE",
"590 608 CURVE SMOOTH",
"611 630 OFFCURVE",
"641 641 OFFCURVE",
"680 641 CURVE SMOOTH",
"686 641 OFFCURVE",
"693 641 OFFCURVE",
"700 640 CURVE",
"718 670 LINE",
"575 664 LINE SMOOTH",
"560 664 OFFCURVE",
"550 663 OFFCURVE",
"547 658 CURVE",
"532 642 OFFCURVE",
"503 600 OFFCURVE",
"459 530 CURVE SMOOTH",
"417 462 OFFCURVE",
"381 400 OFFCURVE",
"353 346 CURVE",
"335 403 OFFCURVE",
"309 468 OFFCURVE",
"277 543 CURVE SMOOTH",
"242 626 OFFCURVE",
"222 666 OFFCURVE",
"212 666 CURVE SMOOTH",
"180 666 OFFCURVE",
"150 666 OFFCURVE",
"124 668 CURVE SMOOTH",
"72 670 OFFCURVE",
"44 672 OFFCURVE",
"39 673 CURVE",
"34 670 LINE",
"30 652 LINE",
"17 644 OFFCURVE",
"37 644 OFFCURVE",
"56 644 CURVE SMOOTH",
"93 644 OFFCURVE",
"114 639 OFFCURVE",
"124 631 CURVE SMOOTH",
"133 624 OFFCURVE",
"150 601 OFFCURVE",
"178 553 CURVE SMOOTH",
"215 491 OFFCURVE",
"243 431 OFFCURVE",
"263 371 CURVE SMOOTH",
"278 328 OFFCURVE",
"286 278 OFFCURVE",
"286 223 CURVE SMOOTH",
"286 207 OFFCURVE",
"285 191 OFFCURVE",
"284 175 CURVE SMOOTH",
"282 136 OFFCURVE",
"275 100 OFFCURVE",
"266 65 CURVE SMOOTH",
"257 35 OFFCURVE",
"227 20 OFFCURVE",
"172 20 CURVE SMOOTH",
"165 20 OFFCURVE",
"159 21 OFFCURVE",
"151 23 CURVE",
"135 -8 LINE"
);
}
);
};
layerId = "24D0D9E8-BA2F-4B13-8DB9-88CA40D3CAFC";
paths = (
{
closed = 1;
nodes = (
"177 -7 OFFCURVE",
"252 -1 OFFCURVE",
"312 0 CURVE SMOOTH",
"385 1 OFFCURVE",
"438 -1 OFFCURVE",
"463 -9 CURVE",
"480 22 LINE",
"446 14 OFFCURVE",
"363 23 OFFCURVE",
"363 61 CURVE SMOOTH",
"357 165 OFFCURVE",
"366 286 OFFCURVE",
"415 365 CURVE SMOOTH",
"486 479 OFFCURVE",
"545 562 OFFCURVE",
"592 611 CURVE SMOOTH",
"615 634 OFFCURVE",
"650 644 OFFCURVE",
"683 644 CURVE SMOOTH",
"690 644 OFFCURVE",
"697 644 OFFCURVE",
"703 643 CURVE",
"721 673 LINE",
"577 667 LINE SMOOTH",
"562 667 OFFCURVE",
"552 666 OFFCURVE",
"549 661 CURVE",
"508 617 OFFCURVE",
"392 422 OFFCURVE",
"353 346 CURVE",
"331 417 OFFCURVE",
"232 670 OFFCURVE",
"210 669 CURVE SMOOTH",
"196 669 OFFCURVE",
"181 669 OFFCURVE",
"165 669 CURVE SMOOTH",
"121 669 OFFCURVE",
"75 670 OFFCURVE",
"36 676 CURVE",
"20 647 LINE",
"29 648 OFFCURVE",
"39 648 OFFCURVE",
"48 648 CURVE SMOOTH",
"77 648 OFFCURVE",
"108 645 OFFCURVE",
"122 634 CURVE SMOOTH",
"158 606 OFFCURVE",
"239 441 OFFCURVE",
"262 371 CURVE SMOOTH",
"294 281 OFFCURVE",
"290 162 OFFCURVE",
"265 62 CURVE SMOOTH",
"253 22 OFFCURVE",
"207 16 OFFCURVE",
"149 20 CURVE",
"133 -11 LINE"
);
}
);
width = 681;
}
);
leftKerningGroup = Y;
note = Y;
rightKerningGroup = Y;
unicode = 0059;
},
{
color = 9;
glyphname = Z;
lastChange = "2021-11-16 13:22:18 +0000";
layers = (
{
anchors = (
{
name = bottom;
position = "{297, 0}";
},
{
name = center;
position = "{297, 333}";
},
{
name = top;
position = "{314, 660}";
}
);
background = {
paths = (
{
closed = 1;
nodes = (
"36 -13 LINE",
"67 -4 OFFCURVE",
"102 0 OFFCURVE",
"142 -1 CURVE SMOOTH",
"308 -4 OFFCURVE",
"411 -7 OFFCURVE",
"453 -10 CURVE SMOOTH",
"460 -11 OFFCURVE",
"466 -11 OFFCURVE",
"471 -11 CURVE SMOOTH",
"488 -11 OFFCURVE",
"500 -7 OFFCURVE",
"507 -1 CURVE SMOOTH",
"514 6 OFFCURVE",
"519 18 OFFCURVE",
"524 36 CURVE SMOOTH",
"540 86 OFFCURVE",
"553 125 OFFCURVE",
"564 149 CURVE",
"542 157 LINE",
"539 144 OFFCURVE",
"531 125 OFFCURVE",
"515 100 CURVE SMOOTH",
"500 76 OFFCURVE",
"487 61 OFFCURVE",
"477 54 CURVE SMOOTH",
"458 41 OFFCURVE",
"406 34 OFFCURVE",
"321 34 CURVE SMOOTH",
"247 34 LINE SMOOTH",
"186 34 OFFCURVE",
"132 34 OFFCURVE",
"132 30 CURVE SMOOTH",
"132 29 OFFCURVE",
"139 27 OFFCURVE",
"153 25 CURVE",
"155 33 LINE",
"151 34 OFFCURVE",
"150 34 OFFCURVE",
"153 40 CURVE SMOOTH",
"228 167 LINE SMOOTH",
"241 190 OFFCURVE",
"253 210 OFFCURVE",
"263 227 CURVE SMOOTH",
"403 446 LINE SMOOTH",
"466 539 OFFCURVE",
"512 606 OFFCURVE",
"542 645 CURVE",
"536 666 LINE",
"443 662 OFFCURVE",
"391 660 OFFCURVE",
"380 660 CURVE SMOOTH",
"312 660 LINE SMOOTH",
"252 660 OFFCURVE",
"178 662 OFFCURVE",
"94 666 CURVE",
"79 648 LINE",
"79 577 OFFCURVE",
"75 527 OFFCURVE",
"70 495 CURVE",
"100 512 LINE",
"102 515 LINE",
"102 521 OFFCURVE",
"104 538 OFFCURVE",
"106 570 CURVE SMOOTH",
"107 591 OFFCURVE",
"118 606 OFFCURVE",
"139 613 CURVE SMOOTH",
"157 619 OFFCURVE",
"190 623 OFFCURVE",
"237 625 CURVE SMOOTH",
"279 626 OFFCURVE",
"321 627 OFFCURVE",
"363 627 CURVE SMOOTH",
"409 627 LINE SMOOTH",
"415 627 OFFCURVE",
"416 626 OFFCURVE",
"414 622 CURVE SMOOTH",
"381 558 OFFCURVE",
"338 484 OFFCURVE",
"286 402 CURVE SMOOTH",
"193 257 LINE",
"162 214 OFFCURVE",
"131 172 OFFCURVE",
"100 128 CURVE SMOOTH",
"48 55 OFFCURVE",
"22 12 OFFCURVE",
"23 -3 CURVE",
"31 -13 LINE"
);
}
);
};
layerId = "24D0D9E8-BA2F-4B13-8DB9-88CA40D3CAFC";
paths = (
{
closed = 1;
nodes = (
"539 144 OFFCURVE",
"531 125 OFFCURVE",
"515 100 CURVE SMOOTH",
"472 31 OFFCURVE",
"436 34 OFFCURVE",
"321 34 CURVE SMOOTH",
"295 34 OFFCURVE",
"222 34 OFFCURVE",
"173 34 CURVE SMOOTH",
"161 34 OFFCURVE",
"152 37 OFFCURVE",
"158 48 CURVE SMOOTH",
"239 191 OFFCURVE",
"299 281 OFFCURVE",
"403 446 CURVE SMOOTH",
"463 541 OFFCURVE",
"512 606 OFFCURVE",
"542 645 CURVE",
"536 666 LINE",
"424 661 OFFCURVE",
"386 660 OFFCURVE",
"312 660 CURVE SMOOTH",
"252 660 OFFCURVE",
"178 662 OFFCURVE",
"94 666 CURVE",
"82 652 LINE",
"82 581 OFFCURVE",
"75 527 OFFCURVE",
"70 495 CURVE",
"102 514 LINE",
"102 520 OFFCURVE",
"103 538 OFFCURVE",
"105 562 CURVE SMOOTH",
"108 591 OFFCURVE",
"118 608 OFFCURVE",
"148 616 CURVE SMOOTH",
"182 625 OFFCURVE",
"307 627 OFFCURVE",
"403 627 CURVE SMOOTH",
"411 627 OFFCURVE",
"414 627 OFFCURVE",
"414 624 CURVE SMOOTH",
"414 622 OFFCURVE",
"413 620 OFFCURVE",
"412 617 CURVE",
"381 558 OFFCURVE",
"338 484 OFFCURVE",
"286 402 CURVE SMOOTH",
"178 234 OFFCURVE",
"21 25 OFFCURVE",
"23 -3 CURVE",
"36 -13 LINE",
"108 1 OFFCURVE",
"148 -2 OFFCURVE",
"298 -2 CURVE SMOOTH",
"372 -2 OFFCURVE",
"432 -7 OFFCURVE",
"471 -11 CURVE SMOOTH",
"505 -14 OFFCURVE",
"515 4 OFFCURVE",
"528 47 CURVE SMOOTH",
"540 86 OFFCURVE",
"553 125 OFFCURVE",
"564 149 CURVE",
"542 157 LINE"
);
}
);
width = 593;
}
);
leftKerningGroup = Z;
note = Z;
rightKerningGroup = Z;
unicode = 005A;
},
{
glyphname = a;
lastChange = "2021-11-16 13:05:37 +0000";
layers = (
{
anchors = (
{
name = bottom;
position = "{252, 0}";
},
{
name = ogonek;
position = "{453, 10}";
},
{
name = top;
position = "{273, 480}";
}
);
background = {
paths = (
{
closed = 1;
nodes = (
"347 -11 OFFCURVE",
"368 -10 OFFCURVE",
"395 -8 CURVE SMOOTH",
"422 -7 OFFCURVE",
"442 -6 OFFCURVE",
"456 -7 CURVE",
"472 20 LINE",
"467 26 LINE",
"463 24 OFFCURVE",
"457 23 OFFCURVE",
"448 23 CURVE SMOOTH",
"442 23 OFFCURVE",
"434 23 OFFCURVE",
"425 24 CURVE SMOOTH",
"395 27 OFFCURVE",
"380 38 OFFCURVE",
"378 57 CURVE SMOOTH",
"376 70 OFFCURVE",
"375 87 OFFCURVE",
"375 110 CURVE SMOOTH",
"375 138 OFFCURVE",
"376 174 OFFCURVE",
"379 219 CURVE SMOOTH",
"384 263 LINE",
"384 270 OFFCURVE",
"385 278 OFFCURVE",
"386 286 CURVE SMOOTH",
"387 294 OFFCURVE",
"388 301 OFFCURVE",
"388 308 CURVE SMOOTH",
"393 354 LINE SMOOTH",
"399 438 OFFCURVE",
"357 480 OFFCURVE",
"268 480 CURVE SMOOTH",
"228 480 OFFCURVE",
"190 476 OFFCURVE",
"155 467 CURVE SMOOTH",
"107 454 OFFCURVE",
"75 437 OFFCURVE",
"55 413 CURVE SMOOTH",
"47 404 OFFCURVE",
"44 397 OFFCURVE",
"43 390 CURVE SMOOTH",
"43 388 OFFCURVE",
"45 378 OFFCURVE",
"49 356 CURVE SMOOTH",
"56 323 OFFCURVE",
"59 299 OFFCURVE",
"57 282 CURVE SMOOTH",
"56 269 LINE",
"83 288 LINE",
"80 288 OFFCURVE",
"81 294 OFFCURVE",
"81 302 CURVE SMOOTH",
"84 346 OFFCURVE",
"100 380 OFFCURVE",
"130 406 CURVE SMOOTH",
"159 430 OFFCURVE",
"196 442 OFFCURVE",
"240 442 CURVE SMOOTH",
"276 442 OFFCURVE",
"297 426 OFFCURVE",
"306 393 CURVE SMOOTH",
"309 379 OFFCURVE",
"311 359 OFFCURVE",
"311 334 CURVE SMOOTH",
"311 322 OFFCURVE",
"311 309 OFFCURVE",
"310 295 CURVE SMOOTH",
"309 286 LINE",
"263 285 OFFCURVE",
"180 280 OFFCURVE",
"151 269 CURVE SMOOTH",
"129 259 OFFCURVE",
"109 243 OFFCURVE",
"72 215 CURVE SMOOTH",
"58 206 LINE SMOOTH",
"33 190 OFFCURVE",
"5 171 OFFCURVE",
"5 121 CURVE SMOOTH",
"5 47 OFFCURVE",
"47 -7 OFFCURVE",
"110 -7 CURVE SMOOTH",
"158 -7 OFFCURVE",
"212 15 OFFCURVE",
"271 58 CURVE SMOOTH",
"278 63 OFFCURVE",
"285 69 OFFCURVE",
"292 73 CURVE",
"292 67 LINE SMOOTH",
"288 15 OFFCURVE",
"303 -11 OFFCURVE",
"336 -11 CURVE SMOOTH"
);
},
{
closed = 1;
nodes = (
"108 58 OFFCURVE",
"80 95 OFFCURVE",
"80 135 CURVE SMOOTH",
"80 169 OFFCURVE",
"101 205 OFFCURVE",
"145 221 CURVE SMOOTH",
"175 232 OFFCURVE",
"225 239 OFFCURVE",
"305 242 CURVE",
"301 202 OFFCURVE",
"298 168 OFFCURVE",
"295 147 CURVE SMOOTH",
"290 122 OFFCURVE",
"274 101 OFFCURVE",
"250 85 CURVE SMOOTH",
"226 71 OFFCURVE",
"189 58 OFFCURVE",
"160 58 CURVE SMOOTH"
);
}
);
};
layerId = "24D0D9E8-BA2F-4B13-8DB9-88CA40D3CAFC";
paths = (
{
closed = 1;
nodes = (
"385 -11 OFFCURVE",
"471 -5 OFFCURVE",
"493 -7 CURVE",
"509 20 LINE",
"504 26 LINE",
"451 21 OFFCURVE",
"415 25 OFFCURVE",
"415 70 CURVE SMOOTH",
"415 133 OFFCURVE",
"430 286 OFFCURVE",
"430 378 CURVE SMOOTH",
"430 438 OFFCURVE",
"394 480 OFFCURVE",
"305 480 CURVE SMOOTH",
"244 480 OFFCURVE",
"168 469 OFFCURVE",
"119 437 CURVE SMOOTH",
"106 428 OFFCURVE",
"80 406 OFFCURVE",
"80 390 CURVE SMOOTH",
"80 386 OFFCURVE",
"82 378 OFFCURVE",
"86 356 CURVE SMOOTH",
"93 321 OFFCURVE",
"95 298 OFFCURVE",
"93 269 CURVE",
"120 288 LINE",
"119 317 LINE",
"119 361 OFFCURVE",
"137 380 OFFCURVE",
"167 406 CURVE SMOOTH",
"196 430 OFFCURVE",
"233 442 OFFCURVE",
"277 442 CURVE SMOOTH",
"343 442 OFFCURVE",
"357 383 OFFCURVE",
"346 286 CURVE",
"300 285 OFFCURVE",
"217 280 OFFCURVE",
"188 269 CURVE SMOOTH",
"164 258 OFFCURVE",
"114 220 OFFCURVE",
"95 206 CURVE SMOOTH",
"71 189 OFFCURVE",
"42 171 OFFCURVE",
"42 121 CURVE SMOOTH",
"42 47 OFFCURVE",
"84 -7 OFFCURVE",
"147 -7 CURVE SMOOTH",
"225 -7 OFFCURVE",
"285 43 OFFCURVE",
"329 73 CURVE",
"329 14 OFFCURVE",
"335 -11 OFFCURVE",
"373 -11 CURVE SMOOTH"
);
},
{
closed = 1;
nodes = (
"145 58 OFFCURVE",
"117 95 OFFCURVE",
"117 135 CURVE SMOOTH",
"117 169 OFFCURVE",
"138 205 OFFCURVE",
"182 221 CURVE SMOOTH",
"212 232 OFFCURVE",
"262 239 OFFCURVE",
"342 242 CURVE",
"333 154 OFFCURVE",
"339 120 OFFCURVE",
"287 85 CURVE SMOOTH",
"263 71 OFFCURVE",
"226 58 OFFCURVE",
"197 58 CURVE SMOOTH"
);
}
);
width = 503;
}
);
leftKerningGroup = a;
note = a;
rightKerningGroup = a;
rightMetricsKey = "=n-5";
unicode = 0061;
},
{
glyphname = ae;
lastChange = "2021-11-16 13:04:36 +0000";
layers = (
{
anchors = (
{
name = bottom;
position = "{405, 0}";
},
{
name = top;
position = "{501, 480}";
}
);
background = {
paths = (
{
closed = 1;
nodes = (
"182 -7 OFFCURVE",
"233 18 OFFCURVE",
"297 67 CURVE",
"302 72 OFFCURVE",
"311 78 OFFCURVE",
"323 86 CURVE SMOOTH",
"331 91 OFFCURVE",
"337 95 OFFCURVE",
"342 97 CURVE",
"364 30 OFFCURVE",
"420 -4 OFFCURVE",
"508 -4 CURVE SMOOTH",
"613 -4 OFFCURVE",
"679 9 OFFCURVE",
"708 37 CURVE SMOOTH",
"715 45 OFFCURVE",
"720 52 OFFCURVE",
"721 59 CURVE SMOOTH",
"722 63 OFFCURVE",
"722 71 OFFCURVE",
"721 84 CURVE SMOOTH",
"719 96 OFFCURVE",
"718 107 OFFCURVE",
"718 109 CURVE SMOOTH",
"718 121 OFFCURVE",
"719 145 OFFCURVE",
"721 182 CURVE",
"690 167 LINE",
"693 164 OFFCURVE",
"693 164 OFFCURVE",
"692 155 CURVE",
"691 155 OFFCURVE",
"691 154 OFFCURVE",
"691 153 CURVE SMOOTH",
"676 74 OFFCURVE",
"626 34 OFFCURVE",
"539 34 CURVE SMOOTH",
"476 34 OFFCURVE",
"436 57 OFFCURVE",
"415 105 CURVE SMOOTH",
"404 130 OFFCURVE",
"398 173 OFFCURVE",
"396 237 CURVE SMOOTH",
"396 238 LINE SMOOTH",
"396 241 OFFCURVE",
"397 248 OFFCURVE",
"397 257 CURVE",
"433 260 OFFCURVE",
"475 262 OFFCURVE",
"521 262 CURVE SMOOTH",
"524 262 OFFCURVE",
"532 262 OFFCURVE",
"543 263 CURVE SMOOTH",
"559 263 OFFCURVE",
"582 264 OFFCURVE",
"612 264 CURVE SMOOTH",
"628 264 OFFCURVE",
"644 263 OFFCURVE",
"659 262 CURVE",
"666 260 OFFCURVE",
"678 274 OFFCURVE",
"693 296 CURVE SMOOTH",
"699 303 OFFCURVE",
"703 309 OFFCURVE",
"707 315 CURVE SMOOTH",
"712 322 OFFCURVE",
"713 328 OFFCURVE",
"713 332 CURVE SMOOTH",
"713 335 LINE",
"721 335 LINE",
"721 381 OFFCURVE",
"706 417 OFFCURVE",
"678 443 CURVE SMOOTH",
"647 471 OFFCURVE",
"604 485 OFFCURVE",
"544 485 CURVE SMOOTH",
"473 485 OFFCURVE",
"418 468 OFFCURVE",
"380 433 CURVE",
"358 465 OFFCURVE",
"320 480 OFFCURVE",
"266 480 CURVE SMOOTH",
"226 480 OFFCURVE",
"189 476 OFFCURVE",
"154 467 CURVE SMOOTH",
"107 454 OFFCURVE",
"76 437 OFFCURVE",
"58 413 CURVE SMOOTH",
"51 404 OFFCURVE",
"48 397 OFFCURVE",
"48 390 CURVE SMOOTH",
"48 388 OFFCURVE",
"51 378 OFFCURVE",
"56 356 CURVE SMOOTH",
"65 323 OFFCURVE",
"70 299 OFFCURVE",
"69 282 CURVE SMOOTH",
"69 269 LINE",
"95 288 LINE",
"92 288 OFFCURVE",
"92 294 OFFCURVE",
"92 302 CURVE SMOOTH",
"92 346 OFFCURVE",
"105 380 OFFCURVE",
"134 406 CURVE SMOOTH",
"161 430 OFFCURVE",
"197 442 OFFCURVE",
"241 442 CURVE SMOOTH",
"277 442 OFFCURVE",
"299 426 OFFCURVE",
"310 393 CURVE SMOOTH",
"317 372 OFFCURVE",
"321 339 OFFCURVE",
"321 295 CURVE SMOOTH",
"321 291 LINE",
"309 289 OFFCURVE",
"298 288 OFFCURVE",
"289 287 CURVE SMOOTH",
"269 284 LINE SMOOTH",
"225 279 OFFCURVE",
"192 272 OFFCURVE",
"171 264 CURVE SMOOTH",
"148 254 OFFCURVE",
"119 235 OFFCURVE",
"86 208 CURVE SMOOTH",
"66 192 OFFCURVE",
"51 181 OFFCURVE",
"39 173 CURVE",
"30 165 OFFCURVE",
"25 150 OFFCURVE",
"25 129 CURVE SMOOTH",
"25 95 OFFCURVE",
"35 64 OFFCURVE",
"57 37 CURVE SMOOTH",
"80 7 OFFCURVE",
"108 -7 OFFCURVE",
"142 -7 CURVE SMOOTH"
);
},
{
closed = 1;
nodes = (
"154 63 OFFCURVE",
"123 81 OFFCURVE",
"105 117 CURVE SMOOTH",
"96 133 OFFCURVE",
"93 146 OFFCURVE",
"93 156 CURVE SMOOTH",
"93 179 OFFCURVE",
"114 199 OFFCURVE",
"158 216 CURVE SMOOTH",
"190 228 OFFCURVE",
"245 236 OFFCURVE",
"320 239 CURVE",
"319 199 OFFCURVE",
"318 168 OFFCURVE",
"317 147 CURVE",
"313 122 OFFCURVE",
"299 101 OFFCURVE",
"276 85 CURVE SMOOTH",
"253 71 OFFCURVE",
"227 63 OFFCURVE",
"199 63 CURVE SMOOTH"
);
},
{
closed = 1;
nodes = (
"439 301 OFFCURVE",
"415 303 OFFCURVE",
"399 305 CURVE",
"400 328 LINE",
"400 331 LINE SMOOTH",
"410 409 OFFCURVE",
"454 448 OFFCURVE",
"532 448 CURVE SMOOTH",
"591 448 OFFCURVE",
"628 422 OFFCURVE",
"644 369 CURVE SMOOTH",
"648 356 OFFCURVE",
"650 346 OFFCURVE",
"650 337 CURVE SMOOTH",
"650 319 OFFCURVE",
"645 312 OFFCURVE",
"634 310 CURVE SMOOTH",
"610 306 OFFCURVE",
"570 303 OFFCURVE",
"516 302 CURVE SMOOTH",
"500 301 OFFCURVE",
"486 301 OFFCURVE",
"473 301 CURVE SMOOTH"
);
}
);
};
layerId = "24D0D9E8-BA2F-4B13-8DB9-88CA40D3CAFC";
paths = (
{
closed = 1;
nodes = (
"595 261 OFFCURVE",
"618 262 OFFCURVE",
"649 262 CURVE SMOOTH",
"666 262 OFFCURVE",
"683 261 OFFCURVE",
"698 260 CURVE",
"705 258 OFFCURVE",
"717 272 OFFCURVE",
"735 295 CURVE SMOOTH",
"751 313 OFFCURVE",
"761 326 OFFCURVE",
"767 334 CURVE",
"771 381 OFFCURVE",
"759 418 OFFCURVE",
"732 445 CURVE SMOOTH",
"703 474 OFFCURVE",
"659 488 OFFCURVE",
"599 488 CURVE SMOOTH",
"521 488 OFFCURVE",
"460 468 OFFCURVE",
"419 428 CURVE",
"402 460 OFFCURVE",
"366 480 OFFCURVE",
"305 480 CURVE SMOOTH",
"244 480 OFFCURVE",
"168 469 OFFCURVE",
"119 437 CURVE SMOOTH",
"106 428 OFFCURVE",
"80 406 OFFCURVE",
"80 390 CURVE SMOOTH",
"80 386 OFFCURVE",
"82 378 OFFCURVE",
"86 356 CURVE SMOOTH",
"93 321 OFFCURVE",
"95 298 OFFCURVE",
"93 269 CURVE",
"120 288 LINE",
"119 317 LINE SMOOTH",
"117 361 OFFCURVE",
"137 380 OFFCURVE",
"167 406 CURVE SMOOTH",
"196 430 OFFCURVE",
"233 442 OFFCURVE",
"277 442 CURVE SMOOTH",
"343 442 OFFCURVE",
"357 383 OFFCURVE",
"346 286 CURVE",
"300 285 OFFCURVE",
"217 280 OFFCURVE",
"188 269 CURVE SMOOTH",
"164 258 OFFCURVE",
"114 220 OFFCURVE",
"95 206 CURVE SMOOTH",
"71 189 OFFCURVE",
"42 171 OFFCURVE",
"42 121 CURVE SMOOTH",
"42 47 OFFCURVE",
"84 -7 OFFCURVE",
"147 -7 CURVE SMOOTH",
"225 -7 OFFCURVE",
"285 43 OFFCURVE",
"329 73 CURVE",
"360 72 LINE",
"385 16 OFFCURVE",
"435 -12 OFFCURVE",
"526 -12 CURVE SMOOTH",
"627 -12 OFFCURVE",
"697 2 OFFCURVE",
"728 31 CURVE SMOOTH",
"738 39 OFFCURVE",
"742 46 OFFCURVE",
"744 54 CURVE",
"745 74 OFFCURVE",
"745 90 OFFCURVE",
"745 103 CURVE",
"749 143 OFFCURVE",
"752 166 OFFCURVE",
"754 178 CURVE",
"724 164 LINE",
"723 161 OFFCURVE",
"723 155 OFFCURVE",
"722 149 CURVE SMOOTH",
"700 68 OFFCURVE",
"646 28 OFFCURVE",
"557 28 CURVE SMOOTH",
"456 28 OFFCURVE",
"426 80 OFFCURVE",
"426 183 CURVE SMOOTH",
"426 204 OFFCURVE",
"427 228 OFFCURVE",
"429 255 CURVE",
"449 257 OFFCURVE",
"526 261 OFFCURVE",
"568 261 CURVE SMOOTH"
);
},
{
closed = 1;
nodes = (
"467 418 OFFCURVE",
"512 450 OFFCURVE",
"583 450 CURVE SMOOTH",
"655 450 OFFCURVE",
"695 409 OFFCURVE",
"695 337 CURVE",
"693 318 OFFCURVE",
"687 310 OFFCURVE",
"676 308 CURVE SMOOTH",
"650 305 OFFCURVE",
"610 302 OFFCURVE",
"554 301 CURVE SMOOTH",
"534 300 OFFCURVE",
"516 300 OFFCURVE",
"501 300 CURVE SMOOTH",
"470 300 OFFCURVE",
"448 301 OFFCURVE",
"435 304 CURVE",
"438 322 OFFCURVE",
"440 335 OFFCURVE",
"446 354 CURVE SMOOTH"
);
},
{
closed = 1;
nodes = (
"263 71 OFFCURVE",
"226 58 OFFCURVE",
"197 58 CURVE SMOOTH",
"145 58 OFFCURVE",
"117 95 OFFCURVE",
"117 135 CURVE SMOOTH",
"117 169 OFFCURVE",
"138 205 OFFCURVE",
"182 221 CURVE SMOOTH",
"212 232 OFFCURVE",
"262 239 OFFCURVE",
"342 242 CURVE",
"333 154 OFFCURVE",
"339 120 OFFCURVE",
"287 85 CURVE SMOOTH"
);
}
);
width = 810;
}
);
leftKerningGroup = a;
note = ae;
rightKerningGroup = e;
rightMetricsKey = e;
unicode = 00E6;
},
{
glyphname = b;
lastChange = "2021-11-16 13:04:36 +0000";
layers = (
{
background = {
components = (
{
name = l;
transform = "{1, 0, 0, 1, 24, 0}";
}
);
};
layerId = "24D0D9E8-BA2F-4B13-8DB9-88CA40D3CAFC";
paths = (
{
closed = 1;
nodes = (
"110 16 OFFCURVE",
"133 37 OFFCURVE",
"158 47 CURVE",
"184 8 OFFCURVE",
"227 -12 OFFCURVE",
"288 -12 CURVE SMOOTH",
"428 -12 OFFCURVE",
"504 78 OFFCURVE",
"513 256 CURVE SMOOTH",
"520 386 OFFCURVE",
"491 475 OFFCURVE",
"368 475 CURVE SMOOTH",
"287 475 OFFCURVE",
"210 450 OFFCURVE",
"172 379 CURVE",
"180 377 LINE",
"192 517 OFFCURVE",
"205 622 OFFCURVE",
"211 657 CURVE SMOOTH",
"213 666 OFFCURVE",
"207 670 OFFCURVE",
"197 670 CURVE SMOOTH",
"193 670 OFFCURVE",
"183 669 OFFCURVE",
"171 666 CURVE SMOOTH",
"158 664 OFFCURVE",
"147 663 OFFCURVE",
"138 663 CURVE SMOOTH",
"85 664 OFFCURVE",
"51 666 OFFCURVE",
"37 668 CURVE",
"21 639 LINE",
"37 643 OFFCURVE",
"51 645 OFFCURVE",
"63 645 CURVE SMOOTH",
"82 645 OFFCURVE",
"96 640 OFFCURVE",
"108 630 CURVE SMOOTH",
"120 616 OFFCURVE",
"121 495 OFFCURVE",
"112 333 CURVE SMOOTH",
"108 248 OFFCURVE",
"103 201 OFFCURVE",
"94 134 CURVE SMOOTH",
"84 57 OFFCURVE",
"75 13 OFFCURVE",
"70 -1 CURVE",
"88 -15 LINE"
);
},
{
closed = 1;
nodes = (
"188 25 OFFCURVE",
"164 122 OFFCURVE",
"170 236 CURVE SMOOTH",
"173 292 OFFCURVE",
"183 332 OFFCURVE",
"201 360 CURVE SMOOTH",
"230 407 OFFCURVE",
"270 430 OFFCURVE",
"321 430 CURVE SMOOTH",
"416 430 OFFCURVE",
"439 332 OFFCURVE",
"433 219 CURVE SMOOTH",
"427 107 OFFCURVE",
"381 25 OFFCURVE",
"282 25 CURVE SMOOTH"
);
}
);
width = 549;
}
);
leftKerningGroup = b;
note = b;
rightKerningGroup = b;
unicode = 0062;
},
{
glyphname = c;
lastChange = "2021-11-16 13:04:36 +0000";
layers = (
{
anchors = (
{
name = bottom;
position = "{242, 0}";
},
{
name = top;
position = "{287, 480}";
}
);
background = {
paths = (
{
closed = 1;
nodes = (
"306 -14 OFFCURVE",
"364 -3 OFFCURVE",
"386 21 CURVE",
"405 97 LINE",
"351 50 OFFCURVE",
"296 27 OFFCURVE",
"241 27 CURVE SMOOTH",
"174 27 OFFCURVE",
"134 51 OFFCURVE",
"116 100 CURVE SMOOTH",
"106 126 OFFCURVE",
"102 159 OFFCURVE",
"102 200 CURVE SMOOTH",
"102 214 OFFCURVE",
"102 228 OFFCURVE",
"103 243 CURVE SMOOTH",
"105 265 OFFCURVE",
"107 286 OFFCURVE",
"111 306 CURVE SMOOTH",
"118 347 OFFCURVE",
"135 382 OFFCURVE",
"162 408 CURVE SMOOTH",
"193 438 OFFCURVE",
"234 454 OFFCURVE",
"280 454 CURVE SMOOTH",
"312 454 OFFCURVE",
"337 447 OFFCURVE",
"354 434 CURVE SMOOTH",
"373 419 OFFCURVE",
"383 398 OFFCURVE",
"383 373 CURVE SMOOTH",
"383 345 OFFCURVE",
"382 329 OFFCURVE",
"380 324 CURVE",
"385 319 LINE",
"412 332 LINE",
"411 344 OFFCURVE",
"411 355 OFFCURVE",
"411 366 CURVE SMOOTH",
"411 396 OFFCURVE",
"413 419 OFFCURVE",
"417 435 CURVE SMOOTH",
"418 438 OFFCURVE",
"419 440 OFFCURVE",
"419 443 CURVE SMOOTH",
"419 452 OFFCURVE",
"411 460 OFFCURVE",
"399 467 CURVE SMOOTH",
"369 481 OFFCURVE",
"330 489 OFFCURVE",
"284 489 CURVE SMOOTH",
"271 489 OFFCURVE",
"258 488 OFFCURVE",
"245 487 CURVE SMOOTH",
"158 480 OFFCURVE",
"97 447 OFFCURVE",
"64 387 CURVE SMOOTH",
"41 348 OFFCURVE",
"28 293 OFFCURVE",
"22 220 CURVE SMOOTH",
"21 204 OFFCURVE",
"20 188 OFFCURVE",
"20 174 CURVE SMOOTH",
"20 97 OFFCURVE",
"36 46 OFFCURVE",
"68 20 CURVE SMOOTH",
"96 -3 OFFCURVE",
"144 -14 OFFCURVE",
"214 -14 CURVE SMOOTH"
);
}
);
};
layerId = "24D0D9E8-BA2F-4B13-8DB9-88CA40D3CAFC";
paths = (
{
closed = 1;
nodes = (
"338 -14 OFFCURVE",
"396 -3 OFFCURVE",
"418 21 CURVE",
"437 97 LINE",
"383 50 OFFCURVE",
"328 27 OFFCURVE",
"273 27 CURVE SMOOTH",
"166 27 OFFCURVE",
"134 86 OFFCURVE",
"134 200 CURVE SMOOTH",
"134 284 OFFCURVE",
"144 360 OFFCURVE",
"194 408 CURVE SMOOTH",
"225 438 OFFCURVE",
"266 454 OFFCURVE",
"312 454 CURVE SMOOTH",
"371 454 OFFCURVE",
"415 427 OFFCURVE",
"415 373 CURVE SMOOTH",
"415 345 OFFCURVE",
"414 329 OFFCURVE",
"412 324 CURVE",
"417 319 LINE",
"444 332 LINE",
"443 344 OFFCURVE",
"443 355 OFFCURVE",
"443 381 CURVE SMOOTH",
"443 421 OFFCURVE",
"451 436 OFFCURVE",
"451 443 CURVE SMOOTH",
"451 452 OFFCURVE",
"443 460 OFFCURVE",
"431 467 CURVE SMOOTH",
"401 481 OFFCURVE",
"362 489 OFFCURVE",
"316 489 CURVE SMOOTH",
"224 489 OFFCURVE",
"138 464 OFFCURVE",
"96 387 CURVE SMOOTH",
"66 336 OFFCURVE",
"52 245 OFFCURVE",
"52 174 CURVE SMOOTH",
"52 28 OFFCURVE",
"101 -14 OFFCURVE",
"246 -14 CURVE SMOOTH"
);
}
);
width = 483;
}
);
leftKerningGroup = c;
note = c;
rightKerningGroup = c;
unicode = 0063;
},
{
glyphname = d;
lastChange = "2021-11-16 13:04:36 +0000";
layers = (
{
anchors = (
{
name = bottom;
position = "{299, 0}";
},
{
name = center;
position = "{417, 548}";
},
{
name = top;
position = "{299, 660}";
},
{
name = topright;
position = "{574, 691}";
}
);
background = {
paths = (
{
closed = 1;
nodes = (
"401 -12 OFFCURVE",
"407 -11 OFFCURVE",
"413 -9 CURVE SMOOTH",
"417 -7 OFFCURVE",
"423 -6 OFFCURVE",
"425 -6 CURVE SMOOTH",
"451 -3 OFFCURVE",
"477 -2 OFFCURVE",
"501 -2 CURVE SMOOTH",
"522 -2 OFFCURVE",
"543 -3 OFFCURVE",
"562 -5 CURVE",
"579 20 LINE",
"575 26 LINE",
"569 25 OFFCURVE",
"559 25 OFFCURVE",
"549 25 CURVE SMOOTH",
"496 25 OFFCURVE",
"469 37 OFFCURVE",
"465 62 CURVE SMOOTH",
"463 75 OFFCURVE",
"462 95 OFFCURVE",
"462 122 CURVE SMOOTH",
"462 160 OFFCURVE",
"464 210 OFFCURVE",
"468 274 CURVE SMOOTH",
"473 342 LINE SMOOTH",
"482 489 OFFCURVE",
"494 592 OFFCURVE",
"508 650 CURVE",
"509 652 OFFCURVE",
"510 655 OFFCURVE",
"510 659 CURVE SMOOTH",
"510 666 OFFCURVE",
"504 670 OFFCURVE",
"496 670 CURVE SMOOTH",
"491 670 OFFCURVE",
"481 668 OFFCURVE",
"469 666 CURVE SMOOTH",
"456 664 OFFCURVE",
"445 663 OFFCURVE",
"436 663 CURVE SMOOTH",
"383 664 OFFCURVE",
"350 666 OFFCURVE",
"335 668 CURVE",
"320 639 LINE",
"335 643 OFFCURVE",
"348 645 OFFCURVE",
"360 645 CURVE SMOOTH",
"379 645 OFFCURVE",
"394 640 OFFCURVE",
"405 630 CURVE SMOOTH",
"411 623 OFFCURVE",
"414 594 OFFCURVE",
"414 544 CURVE SMOOTH",
"414 515 OFFCURVE",
"413 477 OFFCURVE",
"411 432 CURVE",
"399 445 OFFCURVE",
"383 456 OFFCURVE",
"362 466 CURVE SMOOTH",
"338 477 OFFCURVE",
"311 482 OFFCURVE",
"283 482 CURVE SMOOTH",
"202 482 OFFCURVE",
"142 456 OFFCURVE",
"106 402 CURVE SMOOTH",
"76 360 OFFCURVE",
"59 297 OFFCURVE",
"53 214 CURVE SMOOTH",
"52 203 OFFCURVE",
"52 192 OFFCURVE",
"52 182 CURVE SMOOTH",
"52 130 OFFCURVE",
"62 89 OFFCURVE",
"82 58 CURVE SMOOTH",
"107 16 OFFCURVE",
"147 -5 OFFCURVE",
"204 -5 CURVE SMOOTH",
"212 -5 OFFCURVE",
"221 -4 OFFCURVE",
"231 -3 CURVE SMOOTH",
"303 5 OFFCURVE",
"355 34 OFFCURVE",
"386 81 CURVE",
"379 83 LINE",
"379 63 OFFCURVE",
"378 46 OFFCURVE",
"378 34 CURVE SMOOTH",
"378 21 OFFCURVE",
"379 13 OFFCURVE",
"379 8 CURVE SMOOTH",
"380 -5 OFFCURVE",
"386 -12 OFFCURVE",
"397 -12 CURVE SMOOTH"
);
},
{
closed = 1;
nodes = (
"192 37 OFFCURVE",
"160 61 OFFCURVE",
"143 109 CURVE SMOOTH",
"135 134 OFFCURVE",
"130 167 OFFCURVE",
"130 206 CURVE SMOOTH",
"130 219 OFFCURVE",
"131 233 OFFCURVE",
"132 248 CURVE SMOOTH",
"136 302 OFFCURVE",
"147 343 OFFCURVE",
"165 372 CURVE SMOOTH",
"195 419 OFFCURVE",
"236 442 OFFCURVE",
"286 442 CURVE SMOOTH",
"334 442 OFFCURVE",
"366 419 OFFCURVE",
"383 370 CURVE SMOOTH",
"391 343 OFFCURVE",
"396 311 OFFCURVE",
"396 273 CURVE SMOOTH",
"396 260 OFFCURVE",
"395 246 OFFCURVE",
"394 231 CURVE SMOOTH",
"390 175 OFFCURVE",
"379 135 OFFCURVE",
"361 107 CURVE SMOOTH",
"331 60 OFFCURVE",
"291 37 OFFCURVE",
"240 37 CURVE SMOOTH"
);
}
);
};
layerId = "24D0D9E8-BA2F-4B13-8DB9-88CA40D3CAFC";
paths = (
{
closed = 1;
nodes = (
"404 -12 OFFCURVE",
"414 -9 OFFCURVE",
"425 -7 CURVE SMOOTH",
"441 -4 OFFCURVE",
"462 -2 OFFCURVE",
"489 -2 CURVE SMOOTH",
"522 -2 OFFCURVE",
"543 -3 OFFCURVE",
"562 -5 CURVE",
"579 20 LINE",
"575 26 LINE",
"569 25 OFFCURVE",
"559 25 OFFCURVE",
"549 25 CURVE SMOOTH",
"496 25 OFFCURVE",
"469 37 OFFCURVE",
"465 62 CURVE SMOOTH",
"463 75 OFFCURVE",
"462 95 OFFCURVE",
"462 122 CURVE SMOOTH",
"462 160 OFFCURVE",
"463 210 OFFCURVE",
"468 274 CURVE SMOOTH",
"481 456 OFFCURVE",
"490 552 OFFCURVE",
"500 613 CURVE SMOOTH",
"502 621 OFFCURVE",
"509 652 OFFCURVE",
"510 659 CURVE SMOOTH",
"511 666 OFFCURVE",
"504 670 OFFCURVE",
"496 670 CURVE SMOOTH",
"488 670 OFFCURVE",
"451 663 OFFCURVE",
"436 663 CURVE SMOOTH",
"383 664 OFFCURVE",
"350 666 OFFCURVE",
"335 668 CURVE",
"320 639 LINE",
"335 643 OFFCURVE",
"348 645 OFFCURVE",
"360 645 CURVE SMOOTH",
"379 645 OFFCURVE",
"394 640 OFFCURVE",
"405 630 CURVE SMOOTH",
"411 623 OFFCURVE",
"414 594 OFFCURVE",
"414 544 CURVE SMOOTH",
"414 515 OFFCURVE",
"413 477 OFFCURVE",
"411 432 CURVE",
"380 465 OFFCURVE",
"331 482 OFFCURVE",
"283 482 CURVE SMOOTH",
"202 482 OFFCURVE",
"142 456 OFFCURVE",
"106 402 CURVE SMOOTH",
"69 350 OFFCURVE",
"52 257 OFFCURVE",
"52 182 CURVE SMOOTH",
"52 76 OFFCURVE",
"97 -5 OFFCURVE",
"204 -5 CURVE SMOOTH",
"295 -5 OFFCURVE",
"358 34 OFFCURVE",
"394 93 CURVE",
"379 91 LINE",
"379 71 OFFCURVE",
"378 46 OFFCURVE",
"378 34 CURVE SMOOTH",
"378 21 OFFCURVE",
"379 13 OFFCURVE",
"379 8 CURVE SMOOTH",
"380 -5 OFFCURVE",
"386 -12 OFFCURVE",
"397 -12 CURVE SMOOTH"
);
},
{
closed = 1;
nodes = (
"180 37 OFFCURVE",
"130 73 OFFCURVE",
"130 206 CURVE SMOOTH",
"130 259 OFFCURVE",
"139 329 OFFCURVE",
"165 372 CURVE SMOOTH",
"195 419 OFFCURVE",
"236 442 OFFCURVE",
"286 442 CURVE SMOOTH",
"364 442 OFFCURVE",
"404 383 OFFCURVE",
"394 228 CURVE SMOOTH",
"385 98 OFFCURVE",
"321 37 OFFCURVE",
"240 37 CURVE SMOOTH"
);
}
);
width = 597;
}
);
leftKerningGroup = c;
leftMetricsKey = c;
note = d;
rightKerningGroup = d;
unicode = 0064;
},
{
glyphname = eth;
lastChange = "2021-11-16 13:04:36 +0000";
layers = (
{
background = {
paths = (
{
closed = 1;
nodes = (
"356 616 OFFCURVE",
"372 625 OFFCURVE",
"386 630 CURVE SMOOTH",
"390 631 OFFCURVE",
"391 640 OFFCURVE",
"388 657 CURVE SMOOTH",
"385 672 OFFCURVE",
"382 683 OFFCURVE",
"378 688 CURVE",
"378 689 OFFCURVE",
"377 690 OFFCURVE",
"376 689 CURVE SMOOTH",
"373 687 OFFCURVE",
"357 673 OFFCURVE",
"327 648 CURVE SMOOTH",
"302 626 LINE",
"279 640 OFFCURVE",
"255 652 OFFCURVE",
"232 662 CURVE SMOOTH",
"215 669 OFFCURVE",
"189 680 OFFCURVE",
"186 680 CURVE SMOOTH",
"178 680 OFFCURVE",
"158 659 OFFCURVE",
"110 608 CURVE SMOOTH",
"87 584 LINE",
"107 560 LINE",
"117 575 OFFCURVE",
"142 604 OFFCURVE",
"168 604 CURVE SMOOTH",
"175 604 OFFCURVE",
"214 593 OFFCURVE",
"234 581 CURVE",
"235 580 OFFCURVE",
"237 579 OFFCURVE",
"238 579 CURVE",
"208 558 OFFCURVE",
"183 544 OFFCURVE",
"165 538 CURVE SMOOTH",
"160 536 OFFCURVE",
"159 527 OFFCURVE",
"162 510 CURVE SMOOTH",
"166 494 OFFCURVE",
"169 484 OFFCURVE",
"173 479 CURVE SMOOTH",
"174 478 OFFCURVE",
"174 478 OFFCURVE",
"175 478 CURVE",
"210 510 OFFCURVE",
"242 538 OFFCURVE",
"270 558 CURVE",
"322 523 OFFCURVE",
"371 474 OFFCURVE",
"397 415 CURVE",
"353 467 OFFCURVE",
"229 519 OFFCURVE",
"117 423 CURVE SMOOTH",
"40 356 OFFCURVE",
"30 287 OFFCURVE",
"30 196 CURVE SMOOTH",
"30 78 OFFCURVE",
"95 -15 OFFCURVE",
"216 -15 CURVE SMOOTH",
"264 -15 OFFCURVE",
"299 -4 OFFCURVE",
"324 17 CURVE SMOOTH",
"357 44 OFFCURVE",
"382 65 OFFCURVE",
"399 78 CURVE",
"444 121 OFFCURVE",
"468 186 OFFCURVE",
"468 274 CURVE SMOOTH",
"468 457 OFFCURVE",
"409 548 OFFCURVE",
"336 604 CURVE"
);
},
{
closed = 1;
nodes = (
"156 38 OFFCURVE",
"106 132 OFFCURVE",
"106 233 CURVE SMOOTH",
"106 335 OFFCURVE",
"163 436 OFFCURVE",
"252 436 CURVE SMOOTH",
"342 436 OFFCURVE",
"397 338 OFFCURVE",
"397 231 CURVE SMOOTH",
"397 136 OFFCURVE",
"345 38 OFFCURVE",
"250 38 CURVE SMOOTH"
);
}
);
};
layerId = "24D0D9E8-BA2F-4B13-8DB9-88CA40D3CAFC";
paths = (
{
closed = 1;
nodes = (
"352 612 OFFCURVE",
"371 622 OFFCURVE",
"387 627 CURVE SMOOTH",
"391 628 OFFCURVE",
"392 637 OFFCURVE",
"390 654 CURVE SMOOTH",
"387 669 OFFCURVE",
"385 681 OFFCURVE",
"381 686 CURVE",
"381 686 OFFCURVE",
"380 687 OFFCURVE",
"379 687 CURVE",
"376 684 OFFCURVE",
"360 671 OFFCURVE",
"329 647 CURVE SMOOTH",
"317 637 OFFCURVE",
"306 629 OFFCURVE",
"297 621 CURVE",
"266 640 OFFCURVE",
"232 650 OFFCURVE",
"195 650 CURVE SMOOTH",
"160 650 OFFCURVE",
"140 642 OFFCURVE",
"100 617 CURVE",
"111 600 LINE",
"124 606 OFFCURVE",
"138 609 OFFCURVE",
"152 609 CURVE SMOOTH",
"181 609 OFFCURVE",
"212 597 OFFCURVE",
"237 581 CURVE",
"206 562 OFFCURVE",
"181 549 OFFCURVE",
"163 543 CURVE SMOOTH",
"158 541 OFFCURVE",
"157 532 OFFCURVE",
"159 515 CURVE SMOOTH",
"162 499 OFFCURVE",
"165 489 OFFCURVE",
"168 484 CURVE",
"170 483 LINE",
"206 513 OFFCURVE",
"238 538 OFFCURVE",
"266 558 CURVE",
"332 498 OFFCURVE",
"370 386 OFFCURVE",
"370 285 CURVE SMOOTH",
"370 148 OFFCURVE",
"320 19 OFFCURVE",
"225 19 CURVE SMOOTH",
"62 19 OFFCURVE",
"108 435 OFFCURVE",
"274 435 CURVE SMOOTH",
"287 435 OFFCURVE",
"300 431 OFFCURVE",
"307 421 CURVE",
"329 438 LINE",
"321 453 OFFCURVE",
"296 466 OFFCURVE",
"264 466 CURVE SMOOTH",
"116 466 OFFCURVE",
"47 301 OFFCURVE",
"47 185 CURVE SMOOTH",
"47 38 OFFCURVE",
"100 -10 OFFCURVE",
"220 -10 CURVE SMOOTH",
"375 -10 OFFCURVE",
"444 115 OFFCURVE",
"444 311 CURVE SMOOTH",
"444 424 OFFCURVE",
"401 536 OFFCURVE",
"328 598 CURVE"
);
}
);
width = 498;
}
);
leftKerningGroup = c;
note = eth;
rightKerningGroup = d;
unicode = 00F0;
},
{
glyphname = e;
lastChange = "2021-11-16 13:04:36 +0000";
layers = (
{
anchors = (
{
name = bottom;
position = "{260, 0}";
},
{
name = ogonek;
position = "{437, 25}";
},
{
name = top;
position = "{275, 480}";
}
);
background = {
paths = (
{
closed = 1;
nodes = (
"337 -12 OFFCURVE",
"407 2 OFFCURVE",
"438 31 CURVE SMOOTH",
"448 39 OFFCURVE",
"452 46 OFFCURVE",
"454 54 CURVE",
"455 74 OFFCURVE",
"455 90 OFFCURVE",
"455 103 CURVE",
"459 143 OFFCURVE",
"462 166 OFFCURVE",
"464 178 CURVE",
"434 164 LINE",
"433 161 OFFCURVE",
"433 155 OFFCURVE",
"432 149 CURVE SMOOTH",
"410 68 OFFCURVE",
"356 28 OFFCURVE",
"267 28 CURVE SMOOTH",
"203 28 OFFCURVE",
"163 51 OFFCURVE",
"146 100 CURVE SMOOTH",
"139 119 OFFCURVE",
"136 147 OFFCURVE",
"136 183 CURVE SMOOTH",
"136 204 OFFCURVE",
"137 228 OFFCURVE",
"139 255 CURVE",
"179 258 OFFCURVE",
"221 260 OFFCURVE",
"267 260 CURVE SMOOTH",
"271 260 OFFCURVE",
"278 260 OFFCURVE",
"289 261 CURVE SMOOTH",
"305 261 OFFCURVE",
"328 262 OFFCURVE",
"359 262 CURVE SMOOTH",
"376 262 OFFCURVE",
"393 261 OFFCURVE",
"408 260 CURVE",
"415 258 OFFCURVE",
"427 272 OFFCURVE",
"445 295 CURVE SMOOTH",
"461 313 OFFCURVE",
"471 326 OFFCURVE",
"477 334 CURVE",
"481 381 OFFCURVE",
"469 418 OFFCURVE",
"442 445 CURVE SMOOTH",
"413 474 OFFCURVE",
"369 488 OFFCURVE",
"309 488 CURVE SMOOTH",
"207 488 OFFCURVE",
"135 454 OFFCURVE",
"97 387 CURVE SMOOTH",
"71 343 OFFCURVE",
"57 286 OFFCURVE",
"53 220 CURVE SMOOTH",
"52 208 OFFCURVE",
"52 197 OFFCURVE",
"52 186 CURVE SMOOTH",
"52 127 OFFCURVE",
"61 82 OFFCURVE",
"80 52 CURVE SMOOTH",
"109 9 OFFCURVE",
"159 -12 OFFCURVE",
"231 -12 CURVE SMOOTH"
);
},
{
closed = 1;
nodes = (
"180 300 OFFCURVE",
"158 301 OFFCURVE",
"145 304 CURVE",
"146 310 OFFCURVE",
"147 316 OFFCURVE",
"147 320 CURVE SMOOTH",
"148 325 OFFCURVE",
"148 327 OFFCURVE",
"149 329 CURVE",
"166 410 OFFCURVE",
"214 450 OFFCURVE",
"293 450 CURVE SMOOTH",
"354 450 OFFCURVE",
"389 423 OFFCURVE",
"402 369 CURVE SMOOTH",
"405 357 OFFCURVE",
"405 347 OFFCURVE",
"405 337 CURVE SMOOTH",
"403 318 OFFCURVE",
"397 310 OFFCURVE",
"386 308 CURVE SMOOTH",
"360 305 OFFCURVE",
"320 302 OFFCURVE",
"264 301 CURVE SMOOTH",
"244 300 OFFCURVE",
"226 300 OFFCURVE",
"211 300 CURVE SMOOTH"
);
}
);
};
layerId = "24D0D9E8-BA2F-4B13-8DB9-88CA40D3CAFC";
paths = (
{
closed = 1;
nodes = (
"337 -12 OFFCURVE",
"407 2 OFFCURVE",
"438 31 CURVE SMOOTH",
"448 39 OFFCURVE",
"452 46 OFFCURVE",
"454 54 CURVE",
"455 74 OFFCURVE",
"455 90 OFFCURVE",
"455 103 CURVE",
"459 143 OFFCURVE",
"462 166 OFFCURVE",
"464 178 CURVE",
"434 164 LINE",
"433 161 OFFCURVE",
"433 155 OFFCURVE",
"432 149 CURVE SMOOTH",
"410 68 OFFCURVE",
"356 28 OFFCURVE",
"267 28 CURVE SMOOTH",
"166 28 OFFCURVE",
"136 80 OFFCURVE",
"136 183 CURVE SMOOTH",
"136 204 OFFCURVE",
"137 228 OFFCURVE",
"139 255 CURVE",
"159 257 OFFCURVE",
"236 261 OFFCURVE",
"278 261 CURVE SMOOTH",
"305 261 OFFCURVE",
"328 262 OFFCURVE",
"359 262 CURVE SMOOTH",
"376 262 OFFCURVE",
"393 261 OFFCURVE",
"408 260 CURVE",
"415 258 OFFCURVE",
"427 272 OFFCURVE",
"445 295 CURVE SMOOTH",
"461 313 OFFCURVE",
"471 326 OFFCURVE",
"477 334 CURVE",
"481 381 OFFCURVE",
"469 418 OFFCURVE",
"442 445 CURVE SMOOTH",
"413 474 OFFCURVE",
"369 488 OFFCURVE",
"309 488 CURVE SMOOTH",
"207 488 OFFCURVE",
"135 454 OFFCURVE",
"97 387 CURVE SMOOTH",
"65 334 OFFCURVE",
"52 257 OFFCURVE",
"52 186 CURVE SMOOTH",
"52 55 OFFCURVE",
"96 -12 OFFCURVE",
"236 -12 CURVE SMOOTH"
);
},
{
closed = 1;
nodes = (
"180 300 OFFCURVE",
"158 301 OFFCURVE",
"145 304 CURVE",
"148 322 OFFCURVE",
"150 335 OFFCURVE",
"156 354 CURVE SMOOTH",
"177 418 OFFCURVE",
"222 450 OFFCURVE",
"293 450 CURVE SMOOTH",
"365 450 OFFCURVE",
"405 409 OFFCURVE",
"405 337 CURVE SMOOTH",
"403 318 OFFCURVE",
"397 310 OFFCURVE",
"386 308 CURVE SMOOTH",
"360 305 OFFCURVE",
"320 302 OFFCURVE",
"264 301 CURVE SMOOTH",
"244 300 OFFCURVE",
"226 300 OFFCURVE",
"211 300 CURVE SMOOTH"
);
}
);
width = 520;
}
);
leftKerningGroup = c;
leftMetricsKey = c;
note = e;
rightKerningGroup = e;
unicode = 0065;
},
{
glyphname = f;
lastChange = "2021-11-16 13:04:36 +0000";
layers = (
{
background = {
paths = (
{
closed = 1;
nodes = (
"74 0 OFFCURVE",
"129 4 OFFCURVE",
"140 4 CURVE SMOOTH",
"225 2 OFFCURVE",
"265 -2 OFFCURVE",
"278 -8 CURVE",
"297 24 LINE",
"289 23 OFFCURVE",
"281 22 OFFCURVE",
"273 22 CURVE SMOOTH",
"258 22 OFFCURVE",
"242 25 OFFCURVE",
"226 30 CURVE SMOOTH",
"200 37 OFFCURVE",
"187 49 OFFCURVE",
"186 64 CURVE SMOOTH",
"186 147 OFFCURVE",
"188 217 OFFCURVE",
"191 275 CURVE SMOOTH",
"194 310 OFFCURVE",
"197 363 OFFCURVE",
"203 431 CURVE",
"249 429 OFFCURVE",
"280 427 OFFCURVE",
"296 424 CURVE SMOOTH",
"304 422 OFFCURVE",
"313 426 OFFCURVE",
"327 436 CURVE SMOOTH",
"339 446 OFFCURVE",
"345 452 OFFCURVE",
"345 458 CURVE",
"341 458 LINE",
"341 459 OFFCURVE",
"341 459 OFFCURVE",
"339 459 CURVE",
"339 463 LINE",
"206 463 LINE",
"210 505 OFFCURVE",
"218 538 OFFCURVE",
"227 563 CURVE SMOOTH",
"247 610 OFFCURVE",
"279 633 OFFCURVE",
"324 633 CURVE SMOOTH",
"352 633 OFFCURVE",
"373 627 OFFCURVE",
"384 614 CURVE SMOOTH",
"400 596 OFFCURVE",
"405 570 OFFCURVE",
"405 535 CURVE SMOOTH",
"405 520 OFFCURVE",
"405 506 OFFCURVE",
"404 495 CURVE",
"432 510 LINE",
"432 567 OFFCURVE",
"433 603 OFFCURVE",
"436 616 CURVE SMOOTH",
"440 635 OFFCURVE",
"424 649 OFFCURVE",
"391 660 CURVE SMOOTH",
"364 667 OFFCURVE",
"334 671 OFFCURVE",
"304 671 CURVE SMOOTH",
"248 671 OFFCURVE",
"206 653 OFFCURVE",
"179 614 CURVE SMOOTH",
"156 581 OFFCURVE",
"142 530 OFFCURVE",
"136 464 CURVE",
"72 464 LINE",
"69 462 LINE",
"45 434 LINE",
"71 434 OFFCURVE",
"102 434 OFFCURVE",
"137 433 CURVE",
"142 437 LINE",
"142 440 OFFCURVE",
"132 412 OFFCURVE",
"128 353 CURVE SMOOTH",
"126 310 OFFCURVE",
"124 284 OFFCURVE",
"123 276 CURVE SMOOTH",
"115 158 OFFCURVE",
"107 90 OFFCURVE",
"99 65 CURVE SMOOTH",
"90 36 OFFCURVE",
"54 21 OFFCURVE",
"-9 21 CURVE",
"-25 -8 LINE"
);
}
);
};
layerId = "24D0D9E8-BA2F-4B13-8DB9-88CA40D3CAFC";
paths = (
{
closed = 1;
nodes = (
"100 0 OFFCURVE",
"133 4 OFFCURVE",
"166 4 CURVE SMOOTH",
"251 4 OFFCURVE",
"291 -2 OFFCURVE",
"304 -8 CURVE",
"322 24 LINE",
"314 23 OFFCURVE",
"306 22 OFFCURVE",
"298 22 CURVE SMOOTH",
"283 22 OFFCURVE",
"267 25 OFFCURVE",
"251 30 CURVE SMOOTH",
"225 37 OFFCURVE",
"212 49 OFFCURVE",
"211 64 CURVE SMOOTH",
"209 147 OFFCURVE",
"210 217 OFFCURVE",
"212 275 CURVE SMOOTH",
"214 310 OFFCURVE",
"216 363 OFFCURVE",
"221 431 CURVE",
"267 429 OFFCURVE",
"298 427 OFFCURVE",
"314 424 CURVE SMOOTH",
"322 422 OFFCURVE",
"331 426 OFFCURVE",
"345 436 CURVE SMOOTH",
"357 446 OFFCURVE",
"363 452 OFFCURVE",
"363 458 CURVE SMOOTH",
"363 462 OFFCURVE",
"360 463 OFFCURVE",
"352 463 CURVE SMOOTH",
"224 463 LINE",
"231 560 OFFCURVE",
"258 633 OFFCURVE",
"339 633 CURVE SMOOTH",
"367 633 OFFCURVE",
"388 627 OFFCURVE",
"399 614 CURVE SMOOTH",
"415 596 OFFCURVE",
"421 570 OFFCURVE",
"421 535 CURVE SMOOTH",
"422 520 OFFCURVE",
"422 506 OFFCURVE",
"421 495 CURVE",
"449 510 LINE",
"448 567 OFFCURVE",
"448 603 OFFCURVE",
"451 616 CURVE SMOOTH",
"455 635 OFFCURVE",
"438 649 OFFCURVE",
"405 660 CURVE SMOOTH",
"378 667 OFFCURVE",
"348 671 OFFCURVE",
"318 671 CURVE SMOOTH",
"200 671 OFFCURVE",
"164 594 OFFCURVE",
"155 464 CURVE",
"90 464 LINE",
"63 434 LINE",
"89 434 OFFCURVE",
"120 434 OFFCURVE",
"155 433 CURVE",
"153 402 OFFCURVE",
"148 347 OFFCURVE",
"144 276 CURVE SMOOTH",
"138 158 OFFCURVE",
"131 90 OFFCURVE",
"124 65 CURVE SMOOTH",
"115 36 OFFCURVE",
"79 21 OFFCURVE",
"16 21 CURVE",
"1 -8 LINE"
);
}
);
width = 401;
}
);
note = f;
unicode = 0066;
},
{
glyphname = g;
lastChange = "2021-11-16 13:04:36 +0000";
layers = (
{
anchors = (
{
name = bottom;
position = "{219, -170}";
},
{
name = top;
position = "{268, 480}";
}
);
background = {
paths = (
{
closed = 1;
nodes = (
"175 -171 OFFCURVE",
"212 -165 OFFCURVE",
"251 -154 CURVE SMOOTH",
"298 -142 OFFCURVE",
"338 -125 OFFCURVE",
"372 -101 CURVE SMOOTH",
"429 -63 OFFCURVE",
"459 -18 OFFCURVE",
"459 33 CURVE SMOOTH",
"459 84 OFFCURVE",
"422 110 OFFCURVE",
"350 110 CURVE SMOOTH",
"331 110 OFFCURVE",
"314 109 OFFCURVE",
"295 109 CURVE SMOOTH",
"235 109 OFFCURVE",
"175 112 OFFCURVE",
"115 117 CURVE SMOOTH",
"91 119 OFFCURVE",
"82 126 OFFCURVE",
"82 140 CURVE SMOOTH",
"82 151 OFFCURVE",
"87 161 OFFCURVE",
"100 176 CURVE SMOOTH",
"111 188 OFFCURVE",
"123 197 OFFCURVE",
"136 203 CURVE",
"162 189 OFFCURVE",
"191 183 OFFCURVE",
"222 183 CURVE SMOOTH",
"337 183 OFFCURVE",
"403 236 OFFCURVE",
"410 336 CURVE SMOOTH",
"412 375 OFFCURVE",
"404 406 OFFCURVE",
"386 431 CURVE",
"434 428 OFFCURVE",
"462 425 OFFCURVE",
"469 424 CURVE SMOOTH",
"477 423 OFFCURVE",
"487 427 OFFCURVE",
"500 437 CURVE SMOOTH",
"511 445 OFFCURVE",
"518 452 OFFCURVE",
"518 458 CURVE",
"514 458 LINE",
"514 460 OFFCURVE",
"514 459 OFFCURVE",
"510 464 CURVE",
"349 464 LINE",
"324 478 OFFCURVE",
"293 485 OFFCURVE",
"259 485 CURVE SMOOTH",
"138 485 OFFCURVE",
"71 427 OFFCURVE",
"71 320 CURVE SMOOTH",
"71 274 OFFCURVE",
"85 241 OFFCURVE",
"112 217 CURVE",
"95 200 OFFCURVE",
"67 183 OFFCURVE",
"28 169 CURVE SMOOTH",
"17 164 OFFCURVE",
"11 152 OFFCURVE",
"11 133 CURVE SMOOTH",
"11 118 OFFCURVE",
"14 102 OFFCURVE",
"20 86 CURVE SMOOTH",
"31 61 OFFCURVE",
"42 49 OFFCURVE",
"56 51 CURVE",
"70 51 OFFCURVE",
"81 50 OFFCURVE",
"92 51 CURVE",
"90 59 LINE",
"12 22 OFFCURVE",
"-29 -26 OFFCURVE",
"-29 -86 CURVE SMOOTH",
"-29 -107 OFFCURVE",
"-22 -125 OFFCURVE",
"-8 -139 CURVE SMOOTH",
"12 -161 OFFCURVE",
"62 -171 OFFCURVE",
"140 -171 CURVE SMOOTH"
);
},
{
closed = 1;
nodes = (
"101 -138 OFFCURVE",
"65 -125 OFFCURVE",
"44 -97 CURVE SMOOTH",
"36 -86 OFFCURVE",
"32 -71 OFFCURVE",
"33 -54 CURVE SMOOTH",
"37 -4 OFFCURVE",
"66 30 OFFCURVE",
"121 49 CURVE",
"149 48 OFFCURVE",
"180 47 OFFCURVE",
"216 47 CURVE SMOOTH",
"277 46 OFFCURVE",
"324 43 OFFCURVE",
"356 38 CURVE SMOOTH",
"380 34 OFFCURVE",
"391 20 OFFCURVE",
"391 -5 CURVE SMOOTH",
"391 -26 OFFCURVE",
"377 -48 OFFCURVE",
"353 -71 CURVE SMOOTH",
"329 -93 OFFCURVE",
"296 -110 OFFCURVE",
"255 -122 CURVE SMOOTH",
"220 -133 OFFCURVE",
"186 -138 OFFCURVE",
"152 -138 CURVE SMOOTH"
);
},
{
closed = 1;
nodes = (
"213 210 OFFCURVE",
"191 222 OFFCURVE",
"174 247 CURVE SMOOTH",
"156 272 OFFCURVE",
"146 302 OFFCURVE",
"146 337 CURVE SMOOTH",
"146 405 OFFCURVE",
"172 445 OFFCURVE",
"222 456 CURVE SMOOTH",
"229 458 OFFCURVE",
"236 458 OFFCURVE",
"242 458 CURVE SMOOTH",
"268 458 OFFCURVE",
"290 446 OFFCURVE",
"308 421 CURVE SMOOTH",
"326 395 OFFCURVE",
"336 364 OFFCURVE",
"336 330 CURVE SMOOTH",
"336 261 OFFCURVE",
"310 223 OFFCURVE",
"259 212 CURVE SMOOTH",
"252 210 OFFCURVE",
"245 210 OFFCURVE",
"239 210 CURVE SMOOTH"
);
}
);
};
layerId = "24D0D9E8-BA2F-4B13-8DB9-88CA40D3CAFC";
paths = (
{
closed = 1;
nodes = (
"300 -171 OFFCURVE",
"489 -91 OFFCURVE",
"489 33 CURVE SMOOTH",
"489 84 OFFCURVE",
"452 110 OFFCURVE",
"380 110 CURVE SMOOTH",
"361 110 OFFCURVE",
"344 109 OFFCURVE",
"325 109 CURVE SMOOTH",
"265 109 OFFCURVE",
"205 112 OFFCURVE",
"145 117 CURVE SMOOTH",
"121 119 OFFCURVE",
"112 126 OFFCURVE",
"112 140 CURVE SMOOTH",
"112 151 OFFCURVE",
"117 161 OFFCURVE",
"130 176 CURVE SMOOTH",
"141 188 OFFCURVE",
"153 197 OFFCURVE",
"166 203 CURVE",
"192 189 OFFCURVE",
"221 183 OFFCURVE",
"252 183 CURVE SMOOTH",
"367 183 OFFCURVE",
"433 236 OFFCURVE",
"440 336 CURVE SMOOTH",
"442 375 OFFCURVE",
"434 406 OFFCURVE",
"416 431 CURVE",
"464 428 OFFCURVE",
"494 424 OFFCURVE",
"501 424 CURVE SMOOTH",
"509 424 OFFCURVE",
"517 427 OFFCURVE",
"530 437 CURVE SMOOTH",
"541 445 OFFCURVE",
"548 452 OFFCURVE",
"548 458 CURVE SMOOTH",
"548 462 OFFCURVE",
"545 464 OFFCURVE",
"540 464 CURVE SMOOTH",
"379 464 LINE",
"354 478 OFFCURVE",
"323 485 OFFCURVE",
"289 485 CURVE SMOOTH",
"168 485 OFFCURVE",
"101 427 OFFCURVE",
"101 320 CURVE SMOOTH",
"101 274 OFFCURVE",
"115 241 OFFCURVE",
"142 217 CURVE",
"125 200 OFFCURVE",
"97 183 OFFCURVE",
"58 169 CURVE SMOOTH",
"47 164 OFFCURVE",
"41 152 OFFCURVE",
"41 133 CURVE SMOOTH",
"41 118 OFFCURVE",
"44 102 OFFCURVE",
"50 86 CURVE SMOOTH",
"61 61 OFFCURVE",
"72 51 OFFCURVE",
"92 51 CURVE SMOOTH",
"100 51 OFFCURVE",
"111 50 OFFCURVE",
"122 51 CURVE",
"120 59 LINE",
"42 22 OFFCURVE",
"1 -26 OFFCURVE",
"1 -86 CURVE SMOOTH",
"1 -144 OFFCURVE",
"44 -171 OFFCURVE",
"170 -171 CURVE SMOOTH"
);
},
{
closed = 1;
nodes = (
"115 -138 OFFCURVE",
"60 -112 OFFCURVE",
"63 -54 CURVE SMOOTH",
"67 -4 OFFCURVE",
"96 30 OFFCURVE",
"151 49 CURVE",
"179 48 OFFCURVE",
"210 47 OFFCURVE",
"246 47 CURVE SMOOTH",
"307 46 OFFCURVE",
"354 43 OFFCURVE",
"386 38 CURVE SMOOTH",
"410 34 OFFCURVE",
"421 20 OFFCURVE",
"421 -5 CURVE SMOOTH",
"421 -44 OFFCURVE",
"374 -86 OFFCURVE",
"322 -109 CURVE SMOOTH",
"278 -128 OFFCURVE",
"226 -138 OFFCURVE",
"182 -138 CURVE SMOOTH"
);
},
{
closed = 1;
nodes = (
"225 210 OFFCURVE",
"176 252 OFFCURVE",
"176 337 CURVE SMOOTH",
"176 408 OFFCURVE",
"207 458 OFFCURVE",
"272 458 CURVE SMOOTH",
"330 458 OFFCURVE",
"366 391 OFFCURVE",
"366 330 CURVE SMOOTH",
"366 258 OFFCURVE",
"333 210 OFFCURVE",
"269 210 CURVE SMOOTH"
);
}
);
width = 535;
}
);
leftKerningGroup = g;
note = g;
rightKerningGroup = g;
unicode = 0067;
},
{
glyphname = h;
lastChange = "2021-11-16 13:04:36 +0000";
layers = (
{
anchors = (
{
name = bottom;
position = "{317, 0}";
},
{
name = center;
position = "{219, 512}";
},
{
name = top;
position = "{209, 663}";
}
);
background = {
paths = (
{
closed = 1;
nodes = (
"390 -2 OFFCURVE",
"440 1 OFFCURVE",
"490 1 CURVE SMOOTH",
"535 1 OFFCURVE",
"579 -2 OFFCURVE",
"622 -6 CURVE",
"634 17 LINE",
"630 23 LINE",
"625 22 OFFCURVE",
"619 22 OFFCURVE",
"610 22 CURVE SMOOTH",
"552 22 OFFCURVE",
"522 36 OFFCURVE",
"516 64 CURVE",
"516 84 OFFCURVE",
"515 101 OFFCURVE",
"515 117 CURVE SMOOTH",
"515 133 OFFCURVE",
"516 147 OFFCURVE",
"516 158 CURVE SMOOTH",
"517 202 OFFCURVE",
"519 241 OFFCURVE",
"521 276 CURVE SMOOTH",
"521 285 OFFCURVE",
"522 302 OFFCURVE",
"524 325 CURVE SMOOTH",
"525 359 OFFCURVE",
"529 389 OFFCURVE",
"529 412 CURVE SMOOTH",
"529 455 OFFCURVE",
"500 482 OFFCURVE",
"446 490 CURVE SMOOTH",
"436 492 OFFCURVE",
"424 493 OFFCURVE",
"413 493 CURVE SMOOTH",
"369 493 OFFCURVE",
"331 481 OFFCURVE",
"296 456 CURVE SMOOTH",
"278 444 OFFCURVE",
"258 432 OFFCURVE",
"233 419 CURVE",
"242 530 OFFCURVE",
"252 606 OFFCURVE",
"264 652 CURVE",
"264 657 LINE SMOOTH",
"265 666 OFFCURVE",
"260 671 OFFCURVE",
"250 671 CURVE SMOOTH",
"246 671 OFFCURVE",
"236 670 OFFCURVE",
"224 667 CURVE SMOOTH",
"210 664 OFFCURVE",
"199 663 OFFCURVE",
"190 663 CURVE SMOOTH",
"182 663 OFFCURVE",
"174 664 OFFCURVE",
"167 664 CURVE SMOOTH",
"127 665 OFFCURVE",
"101 666 OFFCURVE",
"89 668 CURVE",
"74 639 LINE",
"90 643 OFFCURVE",
"104 645 OFFCURVE",
"116 645 CURVE SMOOTH",
"134 645 OFFCURVE",
"149 641 OFFCURVE",
"159 631 CURVE SMOOTH",
"166 623 OFFCURVE",
"170 594 OFFCURVE",
"170 546 CURVE SMOOTH",
"170 513 OFFCURVE",
"168 472 OFFCURVE",
"165 422 CURVE SMOOTH",
"154 276 LINE SMOOTH",
"144 144 OFFCURVE",
"138 83 OFFCURVE",
"132 65 CURVE SMOOTH",
"127 50 OFFCURVE",
"114 38 OFFCURVE",
"94 30 CURVE SMOOTH",
"78 23 OFFCURVE",
"60 20 OFFCURVE",
"38 20 CURVE SMOOTH",
"31 20 OFFCURVE",
"25 20 OFFCURVE",
"21 22 CURVE",
"6 -7 LINE",
"105 0 OFFCURVE",
"160 4 OFFCURVE",
"171 4 CURVE SMOOTH",
"227 3 OFFCURVE",
"261 -1 OFFCURVE",
"278 -7 CURVE",
"293 23 LINE",
"243 22 OFFCURVE",
"219 35 OFFCURVE",
"216 63 CURVE SMOOTH",
"215 72 OFFCURVE",
"215 85 OFFCURVE",
"215 102 CURVE SMOOTH",
"215 140 OFFCURVE",
"217 198 OFFCURVE",
"222 275 CURVE SMOOTH",
"229 374 LINE",
"242 390 OFFCURVE",
"263 406 OFFCURVE",
"291 420 CURVE SMOOTH",
"319 434 OFFCURVE",
"340 441 OFFCURVE",
"357 443 CURVE SMOOTH",
"363 444 OFFCURVE",
"370 444 OFFCURVE",
"376 444 CURVE SMOOTH",
"425 444 OFFCURVE",
"450 407 OFFCURVE",
"450 332 CURVE SMOOTH",
"450 321 OFFCURVE",
"450 310 OFFCURVE",
"449 298 CURVE SMOOTH",
"439 154 LINE",
"438 143 LINE SMOOTH",
"435 102 OFFCURVE",
"430 74 OFFCURVE",
"422 58 CURVE SMOOTH",
"418 48 OFFCURVE",
"409 39 OFFCURVE",
"395 31 CURVE SMOOTH",
"382 25 OFFCURVE",
"368 22 OFFCURVE",
"356 23 CURVE",
"339 -8 LINE"
);
}
);
};
layerId = "24D0D9E8-BA2F-4B13-8DB9-88CA40D3CAFC";
paths = (
{
closed = 1;
nodes = (
"390 -2 OFFCURVE",
"440 1 OFFCURVE",
"490 1 CURVE SMOOTH",
"535 1 OFFCURVE",
"579 -2 OFFCURVE",
"622 -6 CURVE",
"634 17 LINE",
"630 23 LINE",
"625 22 OFFCURVE",
"619 22 OFFCURVE",
"610 22 CURVE SMOOTH",
"552 22 OFFCURVE",
"519 35 OFFCURVE",
"516 64 CURVE SMOOTH",
"514 87 OFFCURVE",
"516 151 OFFCURVE",
"518 219 CURVE SMOOTH",
"521 290 OFFCURVE",
"529 381 OFFCURVE",
"529 412 CURVE SMOOTH",
"529 469 OFFCURVE",
"474 493 OFFCURVE",
"413 493 CURVE SMOOTH",
"369 493 OFFCURVE",
"331 481 OFFCURVE",
"296 456 CURVE SMOOTH",
"278 444 OFFCURVE",
"258 432 OFFCURVE",
"233 419 CURVE",
"241 512 OFFCURVE",
"249 580 OFFCURVE",
"258 627 CURVE SMOOTH",
"262 643 OFFCURVE",
"262 641 OFFCURVE",
"264 657 CURVE SMOOTH",
"265 666 OFFCURVE",
"260 671 OFFCURVE",
"250 671 CURVE SMOOTH",
"236 671 OFFCURVE",
"209 663 OFFCURVE",
"190 663 CURVE SMOOTH",
"177 663 OFFCURVE",
"100 666 OFFCURVE",
"89 668 CURVE",
"74 639 LINE",
"90 643 OFFCURVE",
"104 645 OFFCURVE",
"116 645 CURVE SMOOTH",
"134 645 OFFCURVE",
"149 641 OFFCURVE",
"159 631 CURVE SMOOTH",
"166 623 OFFCURVE",
"170 594 OFFCURVE",
"170 546 CURVE SMOOTH",
"170 513 OFFCURVE",
"168 472 OFFCURVE",
"157 318 CURVE SMOOTH",
"144 147 OFFCURVE",
"139 85 OFFCURVE",
"132 65 CURVE SMOOTH",
"127 50 OFFCURVE",
"114 38 OFFCURVE",
"94 30 CURVE SMOOTH",
"78 23 OFFCURVE",
"60 20 OFFCURVE",
"38 20 CURVE SMOOTH",
"31 20 OFFCURVE",
"25 20 OFFCURVE",
"21 22 CURVE",
"6 -7 LINE",
"105 0 OFFCURVE",
"160 4 OFFCURVE",
"171 4 CURVE SMOOTH",
"227 3 OFFCURVE",
"261 -1 OFFCURVE",
"278 -7 CURVE",
"293 23 LINE",
"243 22 OFFCURVE",
"219 35 OFFCURVE",
"216 63 CURVE SMOOTH",
"213 90 OFFCURVE",
"218 213 OFFCURVE",
"222 275 CURVE SMOOTH",
"229 374 LINE",
"242 390 OFFCURVE",
"263 406 OFFCURVE",
"291 420 CURVE SMOOTH",
"318 433 OFFCURVE",
"344 444 OFFCURVE",
"376 444 CURVE SMOOTH",
"423 444 OFFCURVE",
"450 411 OFFCURVE",
"450 343 CURVE SMOOTH",
"450 321 OFFCURVE",
"448 277 OFFCURVE",
"441 191 CURVE SMOOTH",
"435 110 OFFCURVE",
"434 82 OFFCURVE",
"422 58 CURVE SMOOTH",
"413 35 OFFCURVE",
"381 21 OFFCURVE",
"356 23 CURVE",
"339 -8 LINE"
);
}
);
width = 633;
}
);
leftKerningGroup = h;
leftMetricsKey = n;
note = h;
rightKerningGroup = n;
rightMetricsKey = n;
unicode = 0068;
},
{
glyphname = i;
lastChange = "2021-11-16 13:04:36 +0000";
layers = (
{
anchors = (
{
name = bottom;
position = "{172, 0}";
}
);
background = {
paths = (
{
closed = 1;
nodes = (
"88 0 OFFCURVE",
"141 3 OFFCURVE",
"163 3 CURVE SMOOTH",
"175 3 OFFCURVE",
"186 4 OFFCURVE",
"197 4 CURVE SMOOTH",
"250 4 OFFCURVE",
"287 -1 OFFCURVE",
"309 -8 CURVE",
"325 23 LINE",
"255 22 OFFCURVE",
"219 36 OFFCURVE",
"216 63 CURVE SMOOTH",
"215 75 OFFCURVE",
"214 92 OFFCURVE",
"214 113 CURVE SMOOTH",
"214 143 OFFCURVE",
"215 181 OFFCURVE",
"219 227 CURVE SMOOTH",
"223 268 LINE SMOOTH",
"229 359 OFFCURVE",
"238 425 OFFCURVE",
"251 467 CURVE",
"251 472 LINE SMOOTH",
"252 480 OFFCURVE",
"247 484 OFFCURVE",
"237 484 CURVE SMOOTH",
"233 484 OFFCURVE",
"223 483 OFFCURVE",
"211 480 CURVE",
"201 479 OFFCURVE",
"192 478 OFFCURVE",
"185 478 CURVE SMOOTH",
"178 478 LINE SMOOTH",
"124 479 OFFCURVE",
"91 480 OFFCURVE",
"76 482 CURVE",
"61 453 LINE",
"77 457 OFFCURVE",
"92 459 OFFCURVE",
"104 459 CURVE SMOOTH",
"122 459 OFFCURVE",
"136 455 OFFCURVE",
"147 447 CURVE",
"154 439 OFFCURVE",
"158 413 OFFCURVE",
"158 369 CURVE SMOOTH",
"158 344 OFFCURVE",
"157 313 OFFCURVE",
"154 276 CURVE SMOOTH",
"151 227 LINE SMOOTH",
"145 143 OFFCURVE",
"138 86 OFFCURVE",
"132 65 CURVE SMOOTH",
"123 36 OFFCURVE",
"86 21 OFFCURVE",
"21 21 CURVE",
"6 -8 LINE"
);
},
{
closed = 1;
nodes = (
"198 559 OFFCURVE",
"215 569 OFFCURVE",
"241 589 CURVE SMOOTH",
"259 602 OFFCURVE",
"270 611 OFFCURVE",
"274 615 CURVE SMOOTH",
"277 617 OFFCURVE",
"279 621 OFFCURVE",
"279 625 CURVE SMOOTH",
"279 627 LINE SMOOTH",
"279 633 OFFCURVE",
"275 636 OFFCURVE",
"269 636 CURVE SMOOTH",
"255 636 OFFCURVE",
"245 638 OFFCURVE",
"237 643 CURVE",
"232 645 OFFCURVE",
"229 647 OFFCURVE",
"224 650 CURVE",
"222 652 OFFCURVE",
"220 654 OFFCURVE",
"217 655 CURVE",
"212 660 OFFCURVE",
"209 662 OFFCURVE",
"204 662 CURVE SMOOTH",
"199 662 OFFCURVE",
"187 655 OFFCURVE",
"171 643 CURVE SMOOTH",
"149 626 OFFCURVE",
"137 614 OFFCURVE",
"136 607 CURVE SMOOTH",
"136 599 OFFCURVE",
"143 589 OFFCURVE",
"154 578 CURVE SMOOTH",
"167 566 OFFCURVE",
"179 559 OFFCURVE",
"189 559 CURVE SMOOTH"
);
}
);
};
layerId = "24D0D9E8-BA2F-4B13-8DB9-88CA40D3CAFC";
paths = (
{
closed = 1;
nodes = (
"88 0 OFFCURVE",
"141 4 OFFCURVE",
"192 4 CURVE SMOOTH",
"241 4 OFFCURVE",
"277 0 OFFCURVE",
"309 -8 CURVE",
"325 23 LINE",
"240 24 OFFCURVE",
"214 29 OFFCURVE",
"214 113 CURVE SMOOTH",
"214 182 OFFCURVE",
"231 389 OFFCURVE",
"245 444 CURVE SMOOTH",
"248 456 OFFCURVE",
"251 465 OFFCURVE",
"251 472 CURVE SMOOTH",
"251 480 OFFCURVE",
"247 484 OFFCURVE",
"237 484 CURVE SMOOTH",
"232 484 OFFCURVE",
"199 478 OFFCURVE",
"181 478 CURVE SMOOTH",
"137 478 OFFCURVE",
"98 479 OFFCURVE",
"76 482 CURVE",
"61 453 LINE",
"77 457 OFFCURVE",
"92 459 OFFCURVE",
"104 459 CURVE SMOOTH",
"156 459 OFFCURVE",
"158 438 OFFCURVE",
"158 369 CURVE SMOOTH",
"158 314 OFFCURVE",
"146 113 OFFCURVE",
"132 65 CURVE SMOOTH",
"123 36 OFFCURVE",
"86 21 OFFCURVE",
"21 21 CURVE",
"6 -8 LINE"
);
},
{
closed = 1;
nodes = (
"204 559 OFFCURVE",
"247 592 OFFCURVE",
"280 619 CURVE",
"276 634 LINE",
"238 634 OFFCURVE",
"214 662 OFFCURVE",
"204 662 CURVE SMOOTH",
"199 662 OFFCURVE",
"187 655 OFFCURVE",
"171 643 CURVE SMOOTH",
"149 626 OFFCURVE",
"137 614 OFFCURVE",
"136 607 CURVE SMOOTH",
"136 599 OFFCURVE",
"143 589 OFFCURVE",
"154 578 CURVE SMOOTH",
"167 566 OFFCURVE",
"179 559 OFFCURVE",
"189 559 CURVE SMOOTH"
);
}
);
width = 324;
}
);
leftKerningGroup = n;
leftMetricsKey = n;
note = i;
rightMetricsKey = n;
unicode = 0069;
},
{
glyphname = idotless;
lastChange = "2021-11-16 13:04:36 +0000";
layers = (
{
anchors = (
{
name = bottom;
position = "{166, 0}";
},
{
name = ogonek;
position = "{211, 10}";
},
{
name = top;
position = "{198, 480}";
}
);
layerId = "24D0D9E8-BA2F-4B13-8DB9-88CA40D3CAFC";
paths = (
{
closed = 1;
nodes = (
"87 0 OFFCURVE",
"139 3 OFFCURVE",
"162 3 CURVE SMOOTH",
"174 3 OFFCURVE",
"185 4 OFFCURVE",
"196 4 CURVE SMOOTH",
"249 4 OFFCURVE",
"286 -1 OFFCURVE",
"308 -8 CURVE",
"324 23 LINE",
"254 22 OFFCURVE",
"219 36 OFFCURVE",
"215 63 CURVE SMOOTH",
"214 75 OFFCURVE",
"213 92 OFFCURVE",
"213 113 CURVE SMOOTH",
"213 143 OFFCURVE",
"214 181 OFFCURVE",
"218 227 CURVE SMOOTH",
"222 268 LINE SMOOTH",
"231 359 OFFCURVE",
"237 425 OFFCURVE",
"250 467 CURVE",
"250 472 LINE SMOOTH",
"250 480 OFFCURVE",
"246 484 OFFCURVE",
"236 484 CURVE SMOOTH",
"232 484 OFFCURVE",
"222 483 OFFCURVE",
"210 480 CURVE",
"200 479 OFFCURVE",
"191 478 OFFCURVE",
"184 478 CURVE SMOOTH",
"176 478 LINE SMOOTH",
"124 478 OFFCURVE",
"90 480 OFFCURVE",
"76 482 CURVE",
"60 453 LINE",
"76 457 OFFCURVE",
"90 459 OFFCURVE",
"103 459 CURVE SMOOTH",
"121 459 OFFCURVE",
"135 455 OFFCURVE",
"145 447 CURVE SMOOTH",
"153 439 OFFCURVE",
"157 412 OFFCURVE",
"157 367 CURVE SMOOTH",
"157 343 OFFCURVE",
"155 312 OFFCURVE",
"153 276 CURVE SMOOTH",
"150 227 LINE SMOOTH",
"145 143 OFFCURVE",
"137 86 OFFCURVE",
"131 65 CURVE SMOOTH",
"123 36 OFFCURVE",
"86 21 OFFCURVE",
"20 21 CURVE",
"6 -8 LINE"
);
}
);
width = 331;
}
);
leftKerningGroup = n;
leftMetricsKey = n;
unicode = 0131;
},
{
glyphname = j;
lastChange = "2021-11-16 13:04:36 +0000";
layers = (
{
background = {
paths = (
{
closed = 1;
nodes = (
"-11 -174 OFFCURVE",
"0 -172 OFFCURVE",
"8 -170 CURVE SMOOTH",
"12 -169 OFFCURVE",
"16 -169 OFFCURVE",
"19 -168 CURVE SMOOTH",
"121 -149 OFFCURVE",
"175 -96 OFFCURVE",
"179 -11 CURVE SMOOTH",
"186 134 LINE",
"194 268 LINE SMOOTH",
"199 354 OFFCURVE",
"208 419 OFFCURVE",
"221 466 CURVE",
"223 468 OFFCURVE",
"223 469 OFFCURVE",
"223 473 CURVE SMOOTH",
"223 480 OFFCURVE",
"217 484 OFFCURVE",
"209 484 CURVE SMOOTH",
"204 484 OFFCURVE",
"195 483 OFFCURVE",
"182 480 CURVE SMOOTH",
"172 479 OFFCURVE",
"164 478 OFFCURVE",
"157 478 CURVE SMOOTH",
"150 478 LINE SMOOTH",
"96 479 OFFCURVE",
"63 480 OFFCURVE",
"48 482 CURVE",
"33 453 LINE",
"49 457 OFFCURVE",
"63 459 OFFCURVE",
"75 459 CURVE SMOOTH",
"93 459 OFFCURVE",
"108 455 OFFCURVE",
"119 447 CURVE",
"126 440 OFFCURVE",
"129 415 OFFCURVE",
"129 374 CURVE SMOOTH",
"129 348 OFFCURVE",
"128 315 OFFCURVE",
"125 276 CURVE SMOOTH",
"114 119 LINE SMOOTH",
"107 23 OFFCURVE",
"93 -47 OFFCURVE",
"73 -86 CURVE SMOOTH",
"62 -107 OFFCURVE",
"46 -122 OFFCURVE",
"26 -133 CURVE SMOOTH",
"8 -142 OFFCURVE",
"-8 -146 OFFCURVE",
"-22 -146 CURVE SMOOTH",
"-27 -146 OFFCURVE",
"-32 -146 OFFCURVE",
"-36 -145 CURVE",
"-24 -176 LINE"
);
},
{
closed = 1;
nodes = (
"169 559 OFFCURVE",
"186 569 OFFCURVE",
"213 589 CURVE SMOOTH",
"231 602 OFFCURVE",
"242 611 OFFCURVE",
"246 615 CURVE SMOOTH",
"249 618 OFFCURVE",
"251 622 OFFCURVE",
"251 628 CURVE SMOOTH",
"250 633 OFFCURVE",
"246 636 OFFCURVE",
"241 636 CURVE SMOOTH",
"227 636 OFFCURVE",
"217 638 OFFCURVE",
"209 643 CURVE SMOOTH",
"202 646 OFFCURVE",
"196 650 OFFCURVE",
"189 655 CURVE SMOOTH",
"185 659 OFFCURVE",
"179 662 OFFCURVE",
"176 662 CURVE SMOOTH",
"170 662 OFFCURVE",
"159 655 OFFCURVE",
"142 643 CURVE SMOOTH",
"118 624 OFFCURVE",
"108 614 OFFCURVE",
"107 607 CURVE SMOOTH",
"107 599 OFFCURVE",
"114 589 OFFCURVE",
"126 578 CURVE SMOOTH",
"139 565 OFFCURVE",
"150 559 OFFCURVE",
"160 559 CURVE SMOOTH"
);
}
);
};
layerId = "24D0D9E8-BA2F-4B13-8DB9-88CA40D3CAFC";
paths = (
{
closed = 1;
nodes = (
"-14 -174 OFFCURVE",
"8 -170 OFFCURVE",
"19 -168 CURVE SMOOTH",
"121 -149 OFFCURVE",
"175 -96 OFFCURVE",
"179 -11 CURVE SMOOTH",
"186 134 LINE",
"194 268 LINE SMOOTH",
"199 346 OFFCURVE",
"206 407 OFFCURVE",
"217 452 CURVE SMOOTH",
"219 457 OFFCURVE",
"223 468 OFFCURVE",
"223 473 CURVE SMOOTH",
"223 480 OFFCURVE",
"217 484 OFFCURVE",
"209 484 CURVE SMOOTH",
"204 484 OFFCURVE",
"195 483 OFFCURVE",
"182 480 CURVE SMOOTH",
"168 479 OFFCURVE",
"163 478 OFFCURVE",
"150 478 CURVE SMOOTH",
"96 478 OFFCURVE",
"63 480 OFFCURVE",
"48 482 CURVE",
"33 453 LINE",
"49 457 OFFCURVE",
"63 459 OFFCURVE",
"75 459 CURVE SMOOTH",
"93 459 OFFCURVE",
"108 455 OFFCURVE",
"119 447 CURVE",
"126 440 OFFCURVE",
"129 415 OFFCURVE",
"129 374 CURVE SMOOTH",
"129 338 OFFCURVE",
"126 289 OFFCURVE",
"114 119 CURVE SMOOTH",
"107 23 OFFCURVE",
"93 -47 OFFCURVE",
"73 -86 CURVE SMOOTH",
"55 -120 OFFCURVE",
"15 -146 OFFCURVE",
"-22 -146 CURVE SMOOTH",
"-27 -146 OFFCURVE",
"-32 -146 OFFCURVE",
"-36 -145 CURVE",
"-24 -176 LINE"
);
},
{
closed = 1;
nodes = (
"176 559 OFFCURVE",
"219 592 OFFCURVE",
"252 619 CURVE",
"248 634 LINE",
"210 634 OFFCURVE",
"186 662 OFFCURVE",
"176 662 CURVE SMOOTH",
"171 662 OFFCURVE",
"159 655 OFFCURVE",
"143 643 CURVE SMOOTH",
"121 626 OFFCURVE",
"109 614 OFFCURVE",
"108 607 CURVE SMOOTH",
"108 599 OFFCURVE",
"115 589 OFFCURVE",
"126 578 CURVE SMOOTH",
"139 566 OFFCURVE",
"151 559 OFFCURVE",
"161 559 CURVE SMOOTH"
);
}
);
width = 284;
}
);
leftKerningGroup = j;
note = j;
rightKerningGroup = j;
unicode = 006A;
},
{
glyphname = jdotless;
lastChange = "2021-11-16 13:04:36 +0000";
layers = (
{
anchors = (
{
name = bottom;
position = "{143, -170}";
},
{
name = top;
position = "{162, 479}";
}
);
layerId = "24D0D9E8-BA2F-4B13-8DB9-88CA40D3CAFC";
paths = (
{
closed = 1;
nodes = (
"-21 -174 OFFCURVE",
"-10 -172 OFFCURVE",
"-2 -170 CURVE SMOOTH",
"2 -169 OFFCURVE",
"6 -169 OFFCURVE",
"9 -168 CURVE SMOOTH",
"111 -149 OFFCURVE",
"165 -96 OFFCURVE",
"169 -11 CURVE SMOOTH",
"176 134 LINE",
"184 268 LINE SMOOTH",
"189 354 OFFCURVE",
"198 419 OFFCURVE",
"211 466 CURVE",
"213 468 OFFCURVE",
"213 469 OFFCURVE",
"213 473 CURVE SMOOTH",
"213 480 OFFCURVE",
"207 484 OFFCURVE",
"199 484 CURVE SMOOTH",
"194 484 OFFCURVE",
"185 483 OFFCURVE",
"172 480 CURVE SMOOTH",
"162 479 OFFCURVE",
"154 478 OFFCURVE",
"147 478 CURVE SMOOTH",
"140 478 LINE SMOOTH",
"86 478 OFFCURVE",
"53 480 OFFCURVE",
"38 482 CURVE",
"23 453 LINE",
"39 457 OFFCURVE",
"53 459 OFFCURVE",
"65 459 CURVE SMOOTH",
"83 459 OFFCURVE",
"98 455 OFFCURVE",
"109 447 CURVE",
"116 440 OFFCURVE",
"119 415 OFFCURVE",
"119 374 CURVE SMOOTH",
"119 348 OFFCURVE",
"118 315 OFFCURVE",
"115 276 CURVE SMOOTH",
"104 119 LINE SMOOTH",
"97 23 OFFCURVE",
"83 -47 OFFCURVE",
"63 -86 CURVE SMOOTH",
"52 -107 OFFCURVE",
"36 -122 OFFCURVE",
"16 -133 CURVE SMOOTH",
"-2 -142 OFFCURVE",
"-18 -146 OFFCURVE",
"-32 -146 CURVE SMOOTH",
"-37 -146 OFFCURVE",
"-42 -146 OFFCURVE",
"-46 -145 CURVE",
"-34 -176 LINE"
);
}
);
width = 285;
}
);
leftKerningGroup = j;
rightKerningGroup = j;
unicode = 0237;
},
{
glyphname = k;
lastChange = "2021-11-16 13:04:36 +0000";
layers = (
{
anchors = (
{
name = bottom;
position = "{313, 8}";
},
{
name = top;
position = "{313, 660}";
}
);
background = {
paths = (
{
closed = 1;
nodes = (
"327 24 LINE",
"319 23 OFFCURVE",
"312 22 OFFCURVE",
"304 22 CURVE SMOOTH",
"289 22 OFFCURVE",
"273 25 OFFCURVE",
"257 30 CURVE SMOOTH",
"231 37 OFFCURVE",
"218 49 OFFCURVE",
"217 65 CURVE SMOOTH",
"216 76 OFFCURVE",
"215 91 OFFCURVE",
"215 111 CURVE SMOOTH",
"215 150 OFFCURVE",
"217 204 OFFCURVE",
"222 275 CURVE SMOOTH",
"227 343 LINE SMOOTH",
"238 497 OFFCURVE",
"250 600 OFFCURVE",
"264 652 CURVE",
"264 657 LINE SMOOTH",
"265 666 OFFCURVE",
"260 671 OFFCURVE",
"250 671 CURVE SMOOTH",
"246 671 OFFCURVE",
"236 670 OFFCURVE",
"224 667 CURVE SMOOTH",
"210 664 OFFCURVE",
"199 663 OFFCURVE",
"190 663 CURVE SMOOTH",
"182 663 OFFCURVE",
"174 664 OFFCURVE",
"167 664 CURVE SMOOTH",
"127 665 OFFCURVE",
"101 666 OFFCURVE",
"89 668 CURVE",
"74 639 LINE",
"90 643 OFFCURVE",
"104 645 OFFCURVE",
"116 645 CURVE SMOOTH",
"134 645 OFFCURVE",
"149 641 OFFCURVE",
"159 631 CURVE SMOOTH",
"166 623 OFFCURVE",
"170 594 OFFCURVE",
"170 546 CURVE SMOOTH",
"170 513 OFFCURVE",
"168 472 OFFCURVE",
"165 422 CURVE SMOOTH",
"154 276 LINE SMOOTH",
"144 146 OFFCURVE",
"138 85 OFFCURVE",
"132 65 CURVE SMOOTH",
"127 50 OFFCURVE",
"114 38 OFFCURVE",
"93 30 CURVE SMOOTH",
"77 23 OFFCURVE",
"59 20 OFFCURVE",
"38 20 CURVE SMOOTH",
"29 20 OFFCURVE",
"24 20 OFFCURVE",
"20 22 CURVE",
"6 -7 LINE",
"105 0 OFFCURVE",
"160 4 OFFCURVE",
"171 4 CURVE SMOOTH",
"256 2 OFFCURVE",
"298 -2 OFFCURVE",
"311 -8 CURVE"
);
},
{
closed = 1;
nodes = (
"566 -12 OFFCURVE",
"582 -10 OFFCURVE",
"597 -7 CURVE",
"615 24 LINE",
"598 21 OFFCURVE",
"586 20 OFFCURVE",
"577 20 CURVE SMOOTH",
"545 20 OFFCURVE",
"515 33 OFFCURVE",
"488 59 CURVE SMOOTH",
"453 93 OFFCURVE",
"409 144 OFFCURVE",
"357 211 CURVE SMOOTH",
"297 287 LINE",
"347 347 OFFCURVE",
"409 397 OFFCURVE",
"487 438 CURVE SMOOTH",
"506 449 OFFCURVE",
"534 454 OFFCURVE",
"572 454 CURVE",
"587 482 LINE",
"536 477 OFFCURVE",
"491 474 OFFCURVE",
"453 473 CURVE",
"372 479 LINE SMOOTH",
"358 480 OFFCURVE",
"345 480 OFFCURVE",
"335 481 CURVE",
"316 455 LINE",
"325 456 OFFCURVE",
"334 458 OFFCURVE",
"342 458 CURVE SMOOTH",
"364 458 OFFCURVE",
"375 447 OFFCURVE",
"375 426 CURVE SMOOTH",
"375 408 OFFCURVE",
"327 361 OFFCURVE",
"237 292 CURVE SMOOTH",
"228 284 OFFCURVE",
"223 278 OFFCURVE",
"222 272 CURVE SMOOTH",
"222 267 OFFCURVE",
"225 260 OFFCURVE",
"231 253 CURVE",
"274 189 OFFCURVE",
"317 131 OFFCURVE",
"358 82 CURVE SMOOTH",
"387 47 OFFCURVE",
"415 21 OFFCURVE",
"440 8 CURVE SMOOTH",
"465 -4 OFFCURVE",
"501 -11 OFFCURVE",
"548 -12 CURVE SMOOTH"
);
}
);
};
layerId = "24D0D9E8-BA2F-4B13-8DB9-88CA40D3CAFC";
paths = (
{
closed = 1;
nodes = (
"327 24 LINE",
"269 17 OFFCURVE",
"215 30 OFFCURVE",
"215 89 CURVE SMOOTH",
"215 158 OFFCURVE",
"218 219 OFFCURVE",
"227 343 CURVE SMOOTH",
"238 497 OFFCURVE",
"250 600 OFFCURVE",
"264 658 CURVE",
"258 671 LINE",
"241 668 OFFCURVE",
"207 665 OFFCURVE",
"180 665 CURVE SMOOTH",
"148 665 OFFCURVE",
"100 666 OFFCURVE",
"89 668 CURVE",
"74 639 LINE",
"162 657 OFFCURVE",
"170 636 OFFCURVE",
"170 546 CURVE SMOOTH",
"170 494 OFFCURVE",
"167 443 OFFCURVE",
"154 276 CURVE SMOOTH",
"144 146 OFFCURVE",
"138 85 OFFCURVE",
"132 65 CURVE SMOOTH",
"121 32 OFFCURVE",
"63 15 OFFCURVE",
"20 22 CURVE",
"6 -7 LINE",
"46 -2 OFFCURVE",
"135 5 OFFCURVE",
"171 4 CURVE SMOOTH",
"256 2 OFFCURVE",
"298 -2 OFFCURVE",
"311 -8 CURVE"
);
},
{
closed = 1;
nodes = (
"489 -29 OFFCURVE",
"597 -7 CURVE",
"614 22 LINE",
"597 19 OFFCURVE",
"586 20 OFFCURVE",
"577 20 CURVE SMOOTH",
"511 20 OFFCURVE",
"477 54 OFFCURVE",
"297 287 CURVE",
"347 347 OFFCURVE",
"409 397 OFFCURVE",
"487 438 CURVE SMOOTH",
"506 449 OFFCURVE",
"534 454 OFFCURVE",
"572 454 CURVE",
"587 482 LINE",
"502 470 OFFCURVE",
"398 472 OFFCURVE",
"335 481 CURVE",
"316 455 LINE",
"343 458 OFFCURVE",
"375 459 OFFCURVE",
"375 433 CURVE SMOOTH",
"375 408 OFFCURVE",
"327 361 OFFCURVE",
"237 292 CURVE SMOOTH",
"220 279 OFFCURVE",
"222 266 OFFCURVE",
"231 253 CURVE SMOOTH",
"250 224 OFFCURVE",
"317 131 OFFCURVE",
"358 82 CURVE SMOOTH",
"424 3 OFFCURVE"
);
}
);
width = 625;
}
);
leftKerningGroup = h;
leftMetricsKey = h;
note = k;
rightKerningGroup = k;
unicode = 006B;
},
{
glyphname = kgreenlandic;
lastChange = "2021-11-16 13:04:36 +0000";
layers = (
{
layerId = "24D0D9E8-BA2F-4B13-8DB9-88CA40D3CAFC";
paths = (
{
closed = 1;
nodes = (
"546 -12 OFFCURVE",
"562 -10 OFFCURVE",
"578 -7 CURVE",
"595 24 LINE",
"578 21 OFFCURVE",
"566 20 OFFCURVE",
"558 20 CURVE SMOOTH",
"525 20 OFFCURVE",
"495 33 OFFCURVE",
"469 59 CURVE SMOOTH",
"435 93 OFFCURVE",
"392 144 OFFCURVE",
"341 211 CURVE SMOOTH",
"282 287 LINE",
"333 347 OFFCURVE",
"396 397 OFFCURVE",
"474 438 CURVE SMOOTH",
"494 449 OFFCURVE",
"522 454 OFFCURVE",
"561 454 CURVE",
"576 482 LINE",
"525 477 OFFCURVE",
"480 474 OFFCURVE",
"442 473 CURVE",
"411 475 OFFCURVE",
"383 477 OFFCURVE",
"361 479 CURVE SMOOTH",
"346 480 OFFCURVE",
"333 480 OFFCURVE",
"323 481 CURVE",
"304 455 LINE",
"313 456 OFFCURVE",
"322 458 OFFCURVE",
"330 458 CURVE SMOOTH",
"352 458 OFFCURVE",
"364 447 OFFCURVE",
"362 425 CURVE SMOOTH",
"361 406 OFFCURVE",
"312 360 OFFCURVE",
"222 292 CURVE",
"213 284 OFFCURVE",
"207 278 OFFCURVE",
"207 272 CURVE SMOOTH",
"207 267 OFFCURVE",
"210 260 OFFCURVE",
"215 253 CURVE SMOOTH",
"257 189 OFFCURVE",
"300 131 OFFCURVE",
"339 82 CURVE SMOOTH",
"368 47 OFFCURVE",
"395 21 OFFCURVE",
"420 8 CURVE SMOOTH",
"445 -4 OFFCURVE",
"481 -11 OFFCURVE",
"528 -12 CURVE SMOOTH"
);
},
{
closed = 1;
nodes = (
"308 24 LINE",
"300 23 OFFCURVE",
"293 22 OFFCURVE",
"285 22 CURVE SMOOTH",
"269 22 OFFCURVE",
"253 25 OFFCURVE",
"238 30 CURVE SMOOTH",
"212 37 OFFCURVE",
"200 49 OFFCURVE",
"198 65 CURVE SMOOTH",
"195 97 OFFCURVE",
"198 167 OFFCURVE",
"207 275 CURVE SMOOTH",
"214 350 LINE SMOOTH",
"219 415 OFFCURVE",
"226 434 OFFCURVE",
"239 472 CURVE SMOOTH",
"240 473 LINE",
"240 476 LINE SMOOTH",
"240 484 OFFCURVE",
"236 488 OFFCURVE",
"226 488 CURVE SMOOTH",
"223 488 OFFCURVE",
"216 487 OFFCURVE",
"200 485 CURVE SMOOTH",
"186 483 OFFCURVE",
"175 482 OFFCURVE",
"166 482 CURVE SMOOTH",
"113 483 OFFCURVE",
"80 484 OFFCURVE",
"66 486 CURVE",
"49 462 LINE",
"65 465 OFFCURVE",
"79 467 OFFCURVE",
"92 467 CURVE SMOOTH",
"111 467 OFFCURVE",
"126 464 OFFCURVE",
"136 457 CURVE",
"145 448 OFFCURVE",
"151 405 OFFCURVE",
"147 361 CURVE SMOOTH",
"139 276 LINE SMOOTH",
"127 146 OFFCURVE",
"120 85 OFFCURVE",
"113 65 CURVE SMOOTH",
"108 50 OFFCURVE",
"95 38 OFFCURVE",
"73 30 CURVE SMOOTH",
"57 23 OFFCURVE",
"40 20 OFFCURVE",
"19 20 CURVE SMOOTH",
"10 20 OFFCURVE",
"5 20 OFFCURVE",
"1 22 CURVE",
"-13 -7 LINE",
"85 0 OFFCURVE",
"141 4 OFFCURVE",
"152 4 CURVE SMOOTH",
"236 2 OFFCURVE",
"278 -2 OFFCURVE",
"291 -8 CURVE"
);
}
);
width = 607;
}
);
leftKerningGroup = h;
rightKerningGroup = k;
unicode = 0138;
},
{
glyphname = l;
lastChange = "2021-11-16 13:04:36 +0000";
layers = (
{
anchors = (
{
name = bottom;
position = "{171, 0}";
},
{
name = center;
position = "{295, 330}";
},
{
name = top;
position = "{221, 660}";
},
{
name = topright;
position = "{324, 679}";
}
);
background = {
paths = (
{
closed = 1;
nodes = (
"105 0 OFFCURVE",
"160 4 OFFCURVE",
"171 4 CURVE SMOOTH",
"254 2 OFFCURVE",
"295 -2 OFFCURVE",
"308 -8 CURVE",
"324 25 LINE",
"314 24 OFFCURVE",
"305 23 OFFCURVE",
"297 23 CURVE SMOOTH",
"282 23 OFFCURVE",
"268 25 OFFCURVE",
"255 29 CURVE SMOOTH",
"230 36 OFFCURVE",
"218 47 OFFCURVE",
"216 63 CURVE SMOOTH",
"215 72 OFFCURVE",
"215 85 OFFCURVE",
"215 102 CURVE SMOOTH",
"215 140 OFFCURVE",
"217 198 OFFCURVE",
"222 275 CURVE SMOOTH",
"227 343 LINE SMOOTH",
"238 497 OFFCURVE",
"250 600 OFFCURVE",
"264 652 CURVE",
"264 657 LINE SMOOTH",
"265 666 OFFCURVE",
"260 671 OFFCURVE",
"250 671 CURVE SMOOTH",
"246 671 OFFCURVE",
"236 670 OFFCURVE",
"224 667 CURVE SMOOTH",
"210 664 OFFCURVE",
"199 663 OFFCURVE",
"190 663 CURVE SMOOTH",
"182 663 OFFCURVE",
"174 664 OFFCURVE",
"167 664 CURVE SMOOTH",
"127 665 OFFCURVE",
"101 666 OFFCURVE",
"89 668 CURVE",
"74 639 LINE",
"90 643 OFFCURVE",
"104 645 OFFCURVE",
"116 645 CURVE SMOOTH",
"134 645 OFFCURVE",
"149 641 OFFCURVE",
"159 631 CURVE SMOOTH",
"166 623 OFFCURVE",
"170 594 OFFCURVE",
"170 546 CURVE SMOOTH",
"170 513 OFFCURVE",
"168 472 OFFCURVE",
"165 422 CURVE SMOOTH",
"154 276 LINE SMOOTH",
"145 151 OFFCURVE",
"137 83 OFFCURVE",
"130 63 CURVE SMOOTH",
"121 34 OFFCURVE",
"93 20 OFFCURVE",
"41 20 CURVE SMOOTH",
"32 20 OFFCURVE",
"25 20 OFFCURVE",
"23 22 CURVE",
"6 -8 LINE"
);
}
);
};
layerId = "24D0D9E8-BA2F-4B13-8DB9-88CA40D3CAFC";
paths = (
{
closed = 1;
nodes = (
"105 0 OFFCURVE",
"160 4 OFFCURVE",
"171 4 CURVE SMOOTH",
"254 2 OFFCURVE",
"295 -2 OFFCURVE",
"308 -8 CURVE",
"324 25 LINE",
"314 24 OFFCURVE",
"305 23 OFFCURVE",
"297 23 CURVE SMOOTH",
"282 23 OFFCURVE",
"268 25 OFFCURVE",
"255 29 CURVE SMOOTH",
"230 36 OFFCURVE",
"218 47 OFFCURVE",
"216 63 CURVE SMOOTH",
"215 72 OFFCURVE",
"215 85 OFFCURVE",
"215 102 CURVE SMOOTH",
"215 140 OFFCURVE",
"216 198 OFFCURVE",
"222 275 CURVE SMOOTH",
"227 343 LINE SMOOTH",
"238 497 OFFCURVE",
"250 600 OFFCURVE",
"264 652 CURVE",
"264 657 LINE SMOOTH",
"264 666 OFFCURVE",
"260 671 OFFCURVE",
"250 671 CURVE SMOOTH",
"246 671 OFFCURVE",
"236 670 OFFCURVE",
"224 667 CURVE SMOOTH",
"210 664 OFFCURVE",
"199 663 OFFCURVE",
"190 663 CURVE SMOOTH",
"182 663 OFFCURVE",
"174 664 OFFCURVE",
"167 664 CURVE SMOOTH",
"127 665 OFFCURVE",
"101 666 OFFCURVE",
"89 668 CURVE",
"74 639 LINE",
"90 643 OFFCURVE",
"104 645 OFFCURVE",
"116 645 CURVE SMOOTH",
"134 645 OFFCURVE",
"149 641 OFFCURVE",
"159 631 CURVE SMOOTH",
"166 623 OFFCURVE",
"170 594 OFFCURVE",
"170 546 CURVE SMOOTH",
"170 513 OFFCURVE",
"169 472 OFFCURVE",
"165 422 CURVE SMOOTH",
"154 276 LINE SMOOTH",
"145 151 OFFCURVE",
"137 83 OFFCURVE",
"130 63 CURVE SMOOTH",
"121 34 OFFCURVE",
"93 20 OFFCURVE",
"41 20 CURVE SMOOTH",
"32 20 OFFCURVE",
"25 20 OFFCURVE",
"23 22 CURVE",
"6 -8 LINE"
);
}
);
width = 342;
}
);
leftKerningGroup = h;
leftMetricsKey = h;
note = l;
rightKerningGroup = d;
rightMetricsKey = d;
unicode = 006C;
},
{
glyphname = m;
lastChange = "2021-11-16 13:04:36 +0000";
layers = (
{
background = {
paths = (
{
closed = 1;
nodes = (
"296 25 LINE",
"246 24 OFFCURVE",
"221 36 OFFCURVE",
"218 63 CURVE SMOOTH",
"216 94 OFFCURVE",
"217 165 OFFCURVE",
"225 275 CURVE SMOOTH",
"230 341 LINE SMOOTH",
"231 357 OFFCURVE",
"232 367 OFFCURVE",
"232 374 CURVE",
"245 390 OFFCURVE",
"263 406 OFFCURVE",
"288 421 CURVE SMOOTH",
"312 434 OFFCURVE",
"331 441 OFFCURVE",
"345 443 CURVE SMOOTH",
"351 444 OFFCURVE",
"357 444 OFFCURVE",
"362 444 CURVE SMOOTH",
"405 444 OFFCURVE",
"428 408 OFFCURVE",
"428 335 CURVE SMOOTH",
"428 323 OFFCURVE",
"427 311 OFFCURVE",
"426 298 CURVE SMOOTH",
"416 154 LINE",
"415 143 LINE SMOOTH",
"411 104 OFFCURVE",
"407 75 OFFCURVE",
"400 58 CURVE SMOOTH",
"397 48 OFFCURVE",
"390 40 OFFCURVE",
"379 33 CURVE SMOOTH",
"370 26 OFFCURVE",
"359 22 OFFCURVE",
"350 22 CURVE SMOOTH",
"346 22 OFFCURVE",
"345 22 OFFCURVE",
"342 25 CURVE",
"326 -6 LINE",
"361 -2 OFFCURVE",
"396 1 OFFCURVE",
"433 1 CURVE SMOOTH",
"469 1 OFFCURVE",
"507 -2 OFFCURVE",
"545 -6 CURVE",
"556 18 LINE",
"553 23 LINE",
"551 23 OFFCURVE",
"549 23 OFFCURVE",
"547 22 CURVE",
"544 22 LINE SMOOTH",
"532 22 OFFCURVE",
"521 25 OFFCURVE",
"511 31 CURVE SMOOTH",
"499 38 OFFCURVE",
"493 46 OFFCURVE",
"492 57 CURVE SMOOTH",
"491 81 OFFCURVE",
"491 102 OFFCURVE",
"491 121 CURVE SMOOTH",
"491 135 OFFCURVE",
"491 147 OFFCURVE",
"492 158 CURVE SMOOTH",
"493 202 OFFCURVE",
"494 241 OFFCURVE",
"497 276 CURVE SMOOTH",
"500 313 LINE SMOOTH",
"502 339 OFFCURVE",
"502 359 OFFCURVE",
"503 372 CURVE",
"518 387 OFFCURVE",
"537 403 OFFCURVE",
"563 419 CURVE SMOOTH",
"585 432 OFFCURVE",
"604 441 OFFCURVE",
"617 443 CURVE SMOOTH",
"623 444 OFFCURVE",
"629 444 OFFCURVE",
"634 444 CURVE SMOOTH",
"677 444 OFFCURVE",
"700 408 OFFCURVE",
"700 335 CURVE SMOOTH",
"700 323 OFFCURVE",
"699 311 OFFCURVE",
"698 298 CURVE SMOOTH",
"687 154 LINE SMOOTH",
"683 107 OFFCURVE",
"678 75 OFFCURVE",
"671 58 CURVE SMOOTH",
"667 48 OFFCURVE",
"659 40 OFFCURVE",
"647 32 CURVE SMOOTH",
"637 26 OFFCURVE",
"625 22 OFFCURVE",
"613 22 CURVE SMOOTH",
"603 22 LINE",
"587 -8 LINE",
"638 -2 OFFCURVE",
"688 1 OFFCURVE",
"738 1 CURVE SMOOTH",
"783 1 OFFCURVE",
"827 -2 OFFCURVE",
"870 -6 CURVE",
"882 17 LINE",
"878 23 LINE",
"874 22 OFFCURVE",
"866 21 OFFCURVE",
"855 21 CURVE SMOOTH",
"798 21 OFFCURVE",
"769 33 OFFCURVE",
"764 57 CURVE SMOOTH",
"762 67 OFFCURVE",
"761 79 OFFCURVE",
"761 94 CURVE SMOOTH",
"761 112 OFFCURVE",
"762 133 OFFCURVE",
"764 158 CURVE SMOOTH",
"768 225 OFFCURVE",
"771 266 OFFCURVE",
"772 281 CURVE SMOOTH",
"775 316 OFFCURVE",
"776 344 OFFCURVE",
"777 355 CURVE SMOOTH",
"778 371 OFFCURVE",
"778 387 OFFCURVE",
"780 401 CURVE SMOOTH",
"784 451 OFFCURVE",
"756 481 OFFCURVE",
"702 490 CURVE SMOOTH",
"693 492 OFFCURVE",
"682 493 OFFCURVE",
"672 493 CURVE SMOOTH",
"633 493 OFFCURVE",
"597 481 OFFCURVE",
"563 456 CURVE SMOOTH",
"548 444 OFFCURVE",
"528 431 OFFCURVE",
"506 418 CURVE",
"503 458 OFFCURVE",
"477 482 OFFCURVE",
"430 490 CURVE SMOOTH",
"421 492 OFFCURVE",
"410 493 OFFCURVE",
"400 493 CURVE SMOOTH",
"361 493 OFFCURVE",
"325 481 OFFCURVE",
"291 456 CURVE SMOOTH",
"272 441 OFFCURVE",
"254 429 OFFCURVE",
"236 419 CURVE",
"239 432 OFFCURVE",
"241 443 OFFCURVE",
"243 453 CURVE SMOOTH",
"244 456 OFFCURVE",
"245 458 OFFCURVE",
"245 461 CURVE",
"246 463 OFFCURVE",
"247 465 OFFCURVE",
"247 468 CURVE SMOOTH",
"247 478 OFFCURVE",
"242 483 OFFCURVE",
"231 483 CURVE SMOOTH",
"228 483 OFFCURVE",
"220 483 OFFCURVE",
"208 481 CURVE SMOOTH",
"197 479 OFFCURVE",
"188 479 OFFCURVE",
"181 479 CURVE SMOOTH",
"105 481 OFFCURVE",
"65 483 OFFCURVE",
"61 484 CURVE",
"44 454 LINE",
"53 458 OFFCURVE",
"66 459 OFFCURVE",
"83 459 CURVE SMOOTH",
"118 459 OFFCURVE",
"140 454 OFFCURVE",
"149 446 CURVE",
"156 437 OFFCURVE",
"160 413 OFFCURVE",
"160 372 CURVE SMOOTH",
"160 347 OFFCURVE",
"159 315 OFFCURVE",
"156 276 CURVE SMOOTH",
"148 158 OFFCURVE",
"140 88 OFFCURVE",
"133 65 CURVE SMOOTH",
"123 36 OFFCURVE",
"82 20 OFFCURVE",
"39 20 CURVE SMOOTH",
"32 20 OFFCURVE",
"26 20 OFFCURVE",
"23 22 CURVE",
"6 -8 LINE",
"95 0 OFFCURVE",
"147 4 OFFCURVE",
"162 4 CURVE SMOOTH",
"208 5 OFFCURVE",
"245 1 OFFCURVE",
"274 -9 CURVE"
);
}
);
};
layerId = "24D0D9E8-BA2F-4B13-8DB9-88CA40D3CAFC";
paths = (
{
closed = 1;
nodes = (
"296 25 LINE",
"246 24 OFFCURVE",
"221 36 OFFCURVE",
"218 63 CURVE SMOOTH",
"213 146 OFFCURVE",
"228 323 OFFCURVE",
"232 374 CURVE",
"260 409 OFFCURVE",
"315 444 OFFCURVE",
"362 444 CURVE SMOOTH",
"405 444 OFFCURVE",
"428 408 OFFCURVE",
"428 335 CURVE SMOOTH",
"428 275 OFFCURVE",
"415 94 OFFCURVE",
"400 58 CURVE SMOOTH",
"395 41 OFFCURVE",
"366 17 OFFCURVE",
"342 25 CURVE",
"326 -6 LINE",
"405 3 OFFCURVE",
"464 2 OFFCURVE",
"545 -6 CURVE",
"559 23 LINE",
"539 16 OFFCURVE",
"494 30 OFFCURVE",
"492 57 CURVE SMOOTH",
"489 145 OFFCURVE",
"496 242 OFFCURVE",
"503 372 CURVE",
"536 405 OFFCURVE",
"590 444 OFFCURVE",
"634 444 CURVE SMOOTH",
"677 444 OFFCURVE",
"700 408 OFFCURVE",
"700 335 CURVE SMOOTH",
"700 278 OFFCURVE",
"690 92 OFFCURVE",
"676 58 CURVE SMOOTH",
"668 38 OFFCURVE",
"646 22 OFFCURVE",
"608 22 CURVE",
"592 -8 LINE",
"687 3 OFFCURVE",
"777 3 OFFCURVE",
"875 -6 CURVE",
"890 23 LINE",
"886 22 OFFCURVE",
"871 21 OFFCURVE",
"860 21 CURVE SMOOTH",
"803 21 OFFCURVE",
"774 33 OFFCURVE",
"769 57 CURVE SMOOTH",
"762 91 OFFCURVE",
"763 147 OFFCURVE",
"780 401 CURVE SMOOTH",
"784 464 OFFCURVE",
"736 493 OFFCURVE",
"672 493 CURVE SMOOTH",
"600 493 OFFCURVE",
"555 450 OFFCURVE",
"506 418 CURVE",
"502 471 OFFCURVE",
"455 493 OFFCURVE",
"400 493 CURVE SMOOTH",
"361 493 OFFCURVE",
"325 481 OFFCURVE",
"291 456 CURVE SMOOTH",
"272 441 OFFCURVE",
"254 429 OFFCURVE",
"236 419 CURVE",
"238 438 OFFCURVE",
"247 461 OFFCURVE",
"247 468 CURVE SMOOTH",
"247 479 OFFCURVE",
"242 483 OFFCURVE",
"231 483 CURVE SMOOTH",
"224 483 OFFCURVE",
"192 479 OFFCURVE",
"156 480 CURVE SMOOTH",
"105 481 OFFCURVE",
"65 483 OFFCURVE",
"61 484 CURVE",
"44 454 LINE",
"53 458 OFFCURVE",
"66 459 OFFCURVE",
"83 459 CURVE SMOOTH",
"157 459 OFFCURVE",
"160 448 OFFCURVE",
"160 372 CURVE SMOOTH",
"160 315 OFFCURVE",
"146 109 OFFCURVE",
"133 65 CURVE SMOOTH",
"122 34 OFFCURVE",
"69 16 OFFCURVE",
"23 22 CURVE",
"6 -8 LINE",
"76 3 OFFCURVE",
"213 12 OFFCURVE",
"274 -9 CURVE"
);
}
);
width = 889;
}
);
leftKerningGroup = n;
leftMetricsKey = n;
note = m;
rightKerningGroup = n;
rightMetricsKey = n;
unicode = 006D;
},
{
glyphname = n;
lastChange = "2021-11-16 13:04:36 +0000";
layers = (
{
anchors = (
{
name = bottom;
position = "{319, 0}";
},
{
name = top;
position = "{419, 480}";
}
);
background = {
paths = (
{
closed = 1;
nodes = (
"393 -1 OFFCURVE",
"440 1 OFFCURVE",
"478 2 CURVE SMOOTH",
"523 2 OFFCURVE",
"571 -1 OFFCURVE",
"622 -6 CURVE",
"636 17 LINE",
"632 23 LINE",
"627 22 OFFCURVE",
"620 22 OFFCURVE",
"608 22 CURVE SMOOTH",
"549 22 OFFCURVE",
"520 34 OFFCURVE",
"516 57 CURVE",
"515 81 OFFCURVE",
"515 102 OFFCURVE",
"515 121 CURVE SMOOTH",
"515 135 OFFCURVE",
"515 147 OFFCURVE",
"516 158 CURVE SMOOTH",
"517 202 OFFCURVE",
"519 241 OFFCURVE",
"521 276 CURVE SMOOTH",
"521 285 OFFCURVE",
"522 302 OFFCURVE",
"524 325 CURVE SMOOTH",
"525 359 OFFCURVE",
"529 389 OFFCURVE",
"529 412 CURVE SMOOTH",
"529 455 OFFCURVE",
"500 482 OFFCURVE",
"446 490 CURVE SMOOTH",
"436 492 OFFCURVE",
"424 493 OFFCURVE",
"413 493 CURVE SMOOTH",
"369 493 OFFCURVE",
"331 481 OFFCURVE",
"296 456 CURVE SMOOTH",
"278 444 OFFCURVE",
"258 433 OFFCURVE",
"234 419 CURVE",
"237 436 OFFCURVE",
"240 450 OFFCURVE",
"243 462 CURVE",
"243 464 OFFCURVE",
"244 466 OFFCURVE",
"244 468 CURVE SMOOTH",
"244 478 OFFCURVE",
"239 483 OFFCURVE",
"229 483 CURVE SMOOTH",
"226 483 OFFCURVE",
"217 483 OFFCURVE",
"206 481 CURVE SMOOTH",
"194 479 OFFCURVE",
"186 479 OFFCURVE",
"178 479 CURVE SMOOTH",
"103 481 OFFCURVE",
"63 483 OFFCURVE",
"59 484 CURVE",
"42 454 LINE",
"52 458 OFFCURVE",
"64 459 OFFCURVE",
"80 459 CURVE SMOOTH",
"114 459 OFFCURVE",
"138 454 OFFCURVE",
"146 446 CURVE SMOOTH",
"154 437 OFFCURVE",
"158 410 OFFCURVE",
"158 366 CURVE SMOOTH",
"158 341 OFFCURVE",
"156 311 OFFCURVE",
"154 276 CURVE SMOOTH",
"145 153 OFFCURVE",
"137 85 OFFCURVE",
"130 63 CURVE SMOOTH",
"121 35 OFFCURVE",
"85 21 OFFCURVE",
"21 21 CURVE",
"6 -7 LINE",
"105 0 OFFCURVE",
"160 4 OFFCURVE",
"171 4 CURVE SMOOTH",
"227 3 OFFCURVE",
"262 -1 OFFCURVE",
"277 -7 CURVE",
"293 23 LINE",
"243 22 OFFCURVE",
"219 35 OFFCURVE",
"216 63 CURVE SMOOTH",
"215 72 OFFCURVE",
"215 85 OFFCURVE",
"215 102 CURVE SMOOTH",
"215 140 OFFCURVE",
"217 198 OFFCURVE",
"222 275 CURVE SMOOTH",
"229 374 LINE",
"242 390 OFFCURVE",
"263 406 OFFCURVE",
"291 420 CURVE SMOOTH",
"319 434 OFFCURVE",
"340 441 OFFCURVE",
"357 443 CURVE SMOOTH",
"363 444 OFFCURVE",
"370 444 OFFCURVE",
"376 444 CURVE SMOOTH",
"425 444 OFFCURVE",
"450 407 OFFCURVE",
"450 332 CURVE SMOOTH",
"450 321 OFFCURVE",
"450 310 OFFCURVE",
"449 298 CURVE SMOOTH",
"439 154 LINE",
"438 143 LINE SMOOTH",
"435 102 OFFCURVE",
"430 74 OFFCURVE",
"422 58 CURVE SMOOTH",
"418 48 OFFCURVE",
"410 40 OFFCURVE",
"399 33 CURVE SMOOTH",
"388 26 OFFCURVE",
"376 22 OFFCURVE",
"366 22 CURVE SMOOTH",
"360 22 OFFCURVE",
"360 22 OFFCURVE",
"358 25 CURVE",
"339 -8 LINE"
);
}
);
};
layerId = "24D0D9E8-BA2F-4B13-8DB9-88CA40D3CAFC";
paths = (
{
closed = 1;
nodes = (
"393 -1 OFFCURVE",
"440 1 OFFCURVE",
"478 2 CURVE SMOOTH",
"523 2 OFFCURVE",
"571 -1 OFFCURVE",
"622 -6 CURVE",
"639 24 LINE",
"634 23 OFFCURVE",
"620 22 OFFCURVE",
"608 22 CURVE SMOOTH",
"519 24 OFFCURVE",
"515 32 OFFCURVE",
"515 121 CURVE SMOOTH",
"515 141 OFFCURVE",
"522 299 OFFCURVE",
"524 325 CURVE SMOOTH",
"525 359 OFFCURVE",
"529 389 OFFCURVE",
"529 412 CURVE SMOOTH",
"529 455 OFFCURVE",
"500 482 OFFCURVE",
"446 490 CURVE SMOOTH",
"436 492 OFFCURVE",
"424 493 OFFCURVE",
"413 493 CURVE SMOOTH",
"369 493 OFFCURVE",
"331 481 OFFCURVE",
"296 456 CURVE SMOOTH",
"278 444 OFFCURVE",
"258 433 OFFCURVE",
"234 419 CURVE",
"234 427 OFFCURVE",
"244 457 OFFCURVE",
"244 468 CURVE SMOOTH",
"244 478 OFFCURVE",
"239 483 OFFCURVE",
"229 483 CURVE SMOOTH",
"214 483 OFFCURVE",
"183 480 OFFCURVE",
"152 480 CURVE SMOOTH",
"103 480 OFFCURVE",
"63 483 OFFCURVE",
"59 484 CURVE",
"42 454 LINE",
"52 458 OFFCURVE",
"64 459 OFFCURVE",
"80 459 CURVE SMOOTH",
"154 459 OFFCURVE",
"158 450 OFFCURVE",
"158 366 CURVE SMOOTH",
"158 341 OFFCURVE",
"156 311 OFFCURVE",
"154 276 CURVE SMOOTH",
"145 153 OFFCURVE",
"137 85 OFFCURVE",
"130 63 CURVE SMOOTH",
"121 35 OFFCURVE",
"85 21 OFFCURVE",
"21 21 CURVE",
"6 -7 LINE",
"105 0 OFFCURVE",
"160 4 OFFCURVE",
"171 4 CURVE SMOOTH",
"227 3 OFFCURVE",
"262 -1 OFFCURVE",
"277 -7 CURVE",
"293 23 LINE",
"243 22 OFFCURVE",
"219 35 OFFCURVE",
"216 63 CURVE SMOOTH",
"215 72 OFFCURVE",
"215 85 OFFCURVE",
"215 102 CURVE SMOOTH",
"215 140 OFFCURVE",
"217 198 OFFCURVE",
"222 275 CURVE SMOOTH",
"229 374 LINE",
"242 390 OFFCURVE",
"263 406 OFFCURVE",
"291 420 CURVE SMOOTH",
"318 433 OFFCURVE",
"344 444 OFFCURVE",
"376 444 CURVE SMOOTH",
"425 444 OFFCURVE",
"450 407 OFFCURVE",
"450 332 CURVE SMOOTH",
"450 314 OFFCURVE",
"448 279 OFFCURVE",
"438 143 CURVE SMOOTH",
"434 102 OFFCURVE",
"430 74 OFFCURVE",
"422 58 CURVE SMOOTH",
"413 35 OFFCURVE",
"380 23 OFFCURVE",
"358 25 CURVE",
"339 -8 LINE"
);
}
);
width = 638;
}
);
leftKerningGroup = n;
note = n;
rightKerningGroup = n;
unicode = 006E;
},
{
glyphname = eng;
lastChange = "2021-11-16 13:04:36 +0000";
layers = (
{
layerId = "24D0D9E8-BA2F-4B13-8DB9-88CA40D3CAFC";
paths = (
{
closed = 1;
nodes = (
"415 -354 OFFCURVE",
"453 -278 OFFCURVE",
"462 -145 CURVE SMOOTH",
"490 276 LINE",
"493 325 LINE SMOOTH",
"495 359 OFFCURVE",
"498 389 OFFCURVE",
"498 412 CURVE SMOOTH",
"498 455 OFFCURVE",
"469 482 OFFCURVE",
"415 490 CURVE SMOOTH",
"405 492 OFFCURVE",
"393 493 OFFCURVE",
"382 493 CURVE SMOOTH",
"313 493 OFFCURVE",
"294 472 OFFCURVE",
"203 419 CURVE",
"203 421 OFFCURVE",
"213 466 OFFCURVE",
"213 468 CURVE SMOOTH",
"213 478 OFFCURVE",
"208 483 OFFCURVE",
"198 483 CURVE SMOOTH",
"190 483 OFFCURVE",
"159 479 OFFCURVE",
"123 480 CURVE SMOOTH",
"72 481 OFFCURVE",
"32 483 OFFCURVE",
"28 484 CURVE",
"11 454 LINE",
"21 458 OFFCURVE",
"33 459 OFFCURVE",
"49 459 CURVE SMOOTH",
"123 459 OFFCURVE",
"127 450 OFFCURVE",
"127 366 CURVE SMOOTH",
"127 341 OFFCURVE",
"125 311 OFFCURVE",
"123 276 CURVE SMOOTH",
"114 153 OFFCURVE",
"106 85 OFFCURVE",
"99 63 CURVE SMOOTH",
"90 35 OFFCURVE",
"54 21 OFFCURVE",
"-10 21 CURVE",
"-25 -7 LINE",
"51 0 OFFCURVE",
"199 10 OFFCURVE",
"278 -5 CURVE",
"290 19 LINE",
"210 18 OFFCURVE",
"188 35 OFFCURVE",
"185 63 CURVE SMOOTH",
"181 102 OFFCURVE",
"190 265 OFFCURVE",
"198 374 CURVE",
"225 408 OFFCURVE",
"295 444 OFFCURVE",
"345 444 CURVE SMOOTH",
"394 444 OFFCURVE",
"419 407 OFFCURVE",
"419 332 CURVE SMOOTH",
"419 320 OFFCURVE",
"406 80 OFFCURVE",
"405 66 CURVE SMOOTH",
"400 -33 OFFCURVE",
"395 -117 OFFCURVE",
"387 -189 CURVE SMOOTH",
"377 -274 OFFCURVE",
"337 -320 OFFCURVE",
"272 -320 CURVE SMOOTH",
"240 -320 OFFCURVE",
"222 -303 OFFCURVE",
"216 -267 CURVE SMOOTH",
"212 -246 OFFCURVE",
"220 -185 OFFCURVE",
"228 -161 CURVE",
"198 -155 LINE",
"185 -241 OFFCURVE",
"164 -313 OFFCURVE",
"155 -313 CURVE",
"152 -324 LINE",
"214 -351 OFFCURVE",
"268 -354 OFFCURVE",
"303 -354 CURVE SMOOTH"
);
}
);
width = 588;
}
);
leftKerningGroup = n;
rightKerningGroup = n;
unicode = 014B;
},
{
glyphname = o;
lastChange = "2021-11-16 13:04:36 +0000";
layers = (
{
anchors = (
{
name = bottom;
position = "{206, 0}";
},
{
name = center;
position = "{239, 240}";
},
{
name = ogonek;
position = "{277, 10}";
},
{
name = top;
position = "{257, 480}";
},
{
name = topright;
position = "{304, 480}";
}
);
background = {
paths = (
{
closed = 1;
nodes = (
"253 -15 OFFCURVE",
"288 -4 OFFCURVE",
"313 17 CURVE SMOOTH",
"346 44 OFFCURVE",
"371 65 OFFCURVE",
"388 78 CURVE",
"433 121 OFFCURVE",
"457 183 OFFCURVE",
"457 271 CURVE SMOOTH",
"457 331 OFFCURVE",
"443 380 OFFCURVE",
"415 418 CURVE SMOOTH",
"380 468 OFFCURVE",
"329 493 OFFCURVE",
"260 493 CURVE SMOOTH",
"223 493 OFFCURVE",
"195 485 OFFCURVE",
"174 468 CURVE SMOOTH",
"125 429 OFFCURVE",
"98 407 OFFCURVE",
"92 402 CURVE SMOOTH",
"45 356 OFFCURVE",
"19 287 OFFCURVE",
"19 196 CURVE SMOOTH",
"19 141 OFFCURVE",
"32 95 OFFCURVE",
"58 58 CURVE SMOOTH",
"91 10 OFFCURVE",
"141 -15 OFFCURVE",
"205 -15 CURVE SMOOTH"
);
},
{
closed = 1;
nodes = (
"189 38 OFFCURVE",
"151 62 OFFCURVE",
"123 112 CURVE SMOOTH",
"104 148 OFFCURVE",
"95 189 OFFCURVE",
"95 233 CURVE SMOOTH",
"95 290 OFFCURVE",
"108 338 OFFCURVE",
"133 376 CURVE SMOOTH",
"158 416 OFFCURVE",
"191 436 OFFCURVE",
"232 436 CURVE SMOOTH",
"261 436 OFFCURVE",
"288 425 OFFCURVE",
"314 404 CURVE SMOOTH",
"337 385 OFFCURVE",
"354 362 OFFCURVE",
"367 332 CURVE SMOOTH",
"379 299 OFFCURVE",
"386 265 OFFCURVE",
"386 231 CURVE SMOOTH",
"386 178 OFFCURVE",
"372 132 OFFCURVE",
"344 94 CURVE SMOOTH",
"317 56 OFFCURVE",
"282 38 OFFCURVE",
"239 38 CURVE SMOOTH"
);
}
);
};
layerId = "24D0D9E8-BA2F-4B13-8DB9-88CA40D3CAFC";
paths = (
{
closed = 1;
nodes = (
"254 -15 OFFCURVE",
"289 -4 OFFCURVE",
"314 17 CURVE SMOOTH",
"347 44 OFFCURVE",
"372 65 OFFCURVE",
"389 78 CURVE SMOOTH",
"434 121 OFFCURVE",
"458 183 OFFCURVE",
"458 271 CURVE SMOOTH",
"458 398 OFFCURVE",
"390 493 OFFCURVE",
"261 493 CURVE SMOOTH",
"224 493 OFFCURVE",
"196 485 OFFCURVE",
"175 468 CURVE SMOOTH",
"126 429 OFFCURVE",
"99 407 OFFCURVE",
"93 402 CURVE SMOOTH",
"46 356 OFFCURVE",
"20 287 OFFCURVE",
"20 196 CURVE SMOOTH",
"20 78 OFFCURVE",
"85 -15 OFFCURVE",
"206 -15 CURVE SMOOTH"
);
},
{
closed = 1;
nodes = (
"146 38 OFFCURVE",
"96 132 OFFCURVE",
"96 233 CURVE SMOOTH",
"96 335 OFFCURVE",
"144 436 OFFCURVE",
"233 436 CURVE SMOOTH",
"323 436 OFFCURVE",
"387 338 OFFCURVE",
"387 231 CURVE SMOOTH",
"387 136 OFFCURVE",
"335 38 OFFCURVE",
"240 38 CURVE SMOOTH"
);
}
);
width = 478;
}
);
leftKerningGroup = o;
note = o;
rightKerningGroup = o;
unicode = 006F;
},
